<svg id="Layer_1" data-name="Layer 1" xmlns="http://www.w3.org/2000/svg" viewBox="0 0 410.41 149"><defs><style>.cls-1{fill:#156d8c;}.cls-2{fill:#0e8ab2;}.cls-3{fill:#07a6d9;}.cls-4{fill:#00c3ff;}.cls-5{fill:#233741;}.cls-6{fill:#ffbe3c;}</style></defs><title>FDK-demo-logo-RGB</title><path class="cls-1" d="M67.46,23.65,31.77,44.26c-4.22,2.44-7.65,9-7.65,14.61V97.5c0,5.63,3.43,8.22,7.65,5.78l.75-.43c0-.18,0-.36,0-.55V63.67c0-5.63,3.43-12.17,7.65-14.61L75.1,28.89C74.88,23.64,71.54,21.3,67.46,23.65Z"/><path class="cls-2" d="M80,30.86,44.34,51.46c-4.22,2.44-7.65,9-7.65,14.62v38.63c0,5.63,3.43,8.22,7.65,5.78l.74-.43c0-.18,0-.37,0-.55V70.88c0-5.63,3.42-12.17,7.65-14.61L87.66,36.09C87.45,30.84,84.11,28.5,80,30.86Z"/><path class="cls-3" d="M57.64,78.09c0-5.63,3.42-12.17,7.64-14.61l35-20.18c-.21-5.25-3.55-7.6-7.64-5.24L56.91,58.67c-4.23,2.44-7.65,9-7.65,14.61v38.63c0,5.63,3.42,8.22,7.65,5.78l.74-.43c0-.18,0-.36,0-.54Z"/><path class="cls-4" d="M105.16,104.3,69.47,124.9c-4.22,2.44-7.64-.15-7.64-5.78V80.49c0-5.63,3.42-12.17,7.64-14.61l35.69-20.61c4.23-2.44,7.65.15,7.65,5.78V89.68C112.81,95.32,109.39,101.86,105.16,104.3Z"/><path class="cls-5" d="M136.41,68.66a.6.6,0,0,1-.61-.6V37.74a.6.6,0,0,1,.61-.6h15.44a.6.6,0,0,1,.61.6v4.2a.61.61,0,0,1-.61.61h-9.76V51H149a.61.61,0,0,1,.61.61v4.2a.6.6,0,0,1-.61.6h-6.87V68.06a.6.6,0,0,1-.6.6Z"/><path class="cls-5" d="M157,68.66a.6.6,0,0,1-.61-.6V37.74a.6.6,0,0,1,.61-.6h16a.6.6,0,0,1,.6.6v4.2a.6.6,0,0,1-.6.61H162.68v7.6h8.06a.6.6,0,0,1,.6.6V55a.6.6,0,0,1-.6.6h-8.06v7.71H173a.6.6,0,0,1,.6.6v4.2a.6.6,0,0,1-.6.6Z"/><path class="cls-5" d="M178.77,68.66a.6.6,0,0,1-.6-.6V37.74a.6.6,0,0,1,.6-.6h5.08a.6.6,0,0,1,.61.6V63.26h8.93a.6.6,0,0,1,.61.6v4.2a.6.6,0,0,1-.61.6Z"/><path class="cls-5" d="M198.78,68.66a.6.6,0,0,1-.6-.6V37.74a.6.6,0,0,1,.6-.6h5.09a.6.6,0,0,1,.6.6V63.26h8.94a.6.6,0,0,1,.6.6v4.2a.6.6,0,0,1-.6.6Z"/><path class="cls-5" d="M218.8,68.66a.6.6,0,0,1-.61-.6V37.74a.6.6,0,0,1,.61-.6h16a.6.6,0,0,1,.6.6v4.2a.6.6,0,0,1-.6.61H224.48v7.6h8.06a.6.6,0,0,1,.61.6V55a.6.6,0,0,1-.61.6h-8.06v7.71h10.33a.6.6,0,0,1,.6.6v4.2a.6.6,0,0,1-.6.6Z"/><path class="cls-5" d="M247.33,68.87a22.26,22.26,0,0,1-7.26-1.35.6.6,0,0,1-.38-.67l.72-4a.58.58,0,0,1,.28-.4.56.56,0,0,1,.31-.09.55.55,0,0,1,.18,0,18.72,18.72,0,0,0,5.49,1h.62a3.62,3.62,0,0,0,2.78-1,3.52,3.52,0,0,0,.88-2.71,3.18,3.18,0,0,0-.73-2,6.26,6.26,0,0,0-1.85-1.33c-.53-.31-1.1-.61-1.67-.92-2.13-1.14-4.34-2.33-5.76-4.13a9.1,9.1,0,0,1-1.7-5.87,8.58,8.58,0,0,1,2-5.66c1.52-1.75,3.94-2.7,7-2.75h.37a19.44,19.44,0,0,1,6.37,1.1.61.61,0,0,1,.39.68l-.72,3.91a.6.6,0,0,1-.27.4.53.53,0,0,1-.32.1l-.15,0a20.44,20.44,0,0,0-5.15-.76,3.31,3.31,0,0,0-2.58.87,3.64,3.64,0,0,0-.77,2.55,3.55,3.55,0,0,0,1.7,3,23.5,23.5,0,0,0,3.37,1.81,27.3,27.3,0,0,1,3.18,1.66,7.31,7.31,0,0,1,1.9,1.58,8,8,0,0,1,1.71,5.46,10.15,10.15,0,0,1-1.76,6.32c-1.44,2-4.33,3.16-8.14,3.22Z"/><path class="cls-5" d="M136.41,111.34a.6.6,0,0,1-.61-.6V80.42a.6.6,0,0,1,.61-.6h8.35c1.35,0,4.73.2,6.82,2A7.57,7.57,0,0,1,154,86.3a25.67,25.67,0,0,1,.31,4.94V100a25.46,25.46,0,0,1-.31,4.9,7.71,7.71,0,0,1-2.47,4.59,8.35,8.35,0,0,1-3.15,1.53,17.63,17.63,0,0,1-4.07.35Zm8-5.4c1.19,0,2.37-.15,3-1.23a7.37,7.37,0,0,0,.52-3.42V89.87a7.46,7.46,0,0,0-.52-3.42c-.62-1.08-1.8-1.22-3-1.22h-2.32v20.71Z"/><path class="cls-5" d="M173.31,111.34a.59.59,0,0,1-.59-.49l-.94-5.22H165l-.94,5.22a.59.59,0,0,1-.59.49h-5a.6.6,0,0,1-.6-.6v-.91a.53.53,0,0,1,0-.13l6.48-29.41a.6.6,0,0,1,.59-.47h7a.6.6,0,0,1,.59.47L179,110a.69.69,0,0,1,0,.13v.66a.6.6,0,0,1-.61.6Zm-2.51-11.12-2.34-13.07h-.17L166,100.22Z"/><path class="cls-5" d="M187.17,111.34a.6.6,0,0,1-.6-.6V85.23h-6.36a.6.6,0,0,1-.6-.61v-4.2a.6.6,0,0,1,.6-.6h18.95a.6.6,0,0,1,.61.6v4.2a.61.61,0,0,1-.61.61h-6.3v25.51a.6.6,0,0,1-.61.6Z"/><path class="cls-5" d="M215.81,111.34a.61.61,0,0,1-.6-.49l-.94-5.22h-6.8l-.94,5.22a.61.61,0,0,1-.6.49h-5a.6.6,0,0,1-.6-.6v-.91a.51.51,0,0,1,0-.13l6.48-29.41a.59.59,0,0,1,.59-.47h7a.61.61,0,0,1,.59.47L221.53,110a.62.62,0,0,1,0,.13v.66a.6.6,0,0,1-.6.6Zm-2.52-11.12L211,87.15h-.18l-2.33,13.07Z"/><path class="cls-5" d="M239.75,111.34a.59.59,0,0,1-.53-.32l-6.59-12.58h-.46v12.3a.6.6,0,0,1-.6.6h-5.09a.6.6,0,0,1-.6-.6V80.42a.6.6,0,0,1,.6-.6h5.09a.6.6,0,0,1,.6.6V92.06h.41l6.28-11.92a.59.59,0,0,1,.53-.32h5.17a.6.6,0,0,1,.6.6v.87a.64.64,0,0,1-.08.3l-7.55,12.87,8.33,15.42a.6.6,0,0,1,.08.29v.57a.6.6,0,0,1-.61.6Z"/><path class="cls-5" d="M264.74,111.34a.59.59,0,0,1-.59-.49l-.94-5.22H256.4l-.94,5.22a.59.59,0,0,1-.59.49h-5a.6.6,0,0,1-.6-.6v-.91a.53.53,0,0,1,0-.13l6.48-29.41a.6.6,0,0,1,.59-.47h7a.6.6,0,0,1,.59.47L270.46,110a.69.69,0,0,1,0,.13v.66a.6.6,0,0,1-.61.6Zm-2.51-11.12-2.34-13.07h-.17l-2.34,13.07Z"/><path class="cls-5" d="M278.6,111.34a.6.6,0,0,1-.6-.6V85.23h-6.36a.6.6,0,0,1-.6-.61v-4.2a.6.6,0,0,1,.6-.6h18.95a.6.6,0,0,1,.61.6v4.2a.61.61,0,0,1-.61.61h-6.3v25.51a.6.6,0,0,1-.61.6Z"/><path class="cls-5" d="M307.24,111.34a.59.59,0,0,1-.6-.49l-.94-5.22h-6.8l-.95,5.22a.59.59,0,0,1-.59.49h-5a.6.6,0,0,1-.6-.6v-.91a.53.53,0,0,1,0-.13l6.48-29.41a.61.61,0,0,1,.59-.47h7a.59.59,0,0,1,.59.47L313,110a.62.62,0,0,1,0,.13v.66a.6.6,0,0,1-.6.6Zm-2.52-11.12-2.33-13.07h-.18l-2.34,13.07Z"/><path class="cls-5" d="M317.91,111.34a.6.6,0,0,1-.6-.6V80.42a.6.6,0,0,1,.6-.6H323a.6.6,0,0,1,.6.6v25.52h8.93a.6.6,0,0,1,.61.6v4.2a.6.6,0,0,1-.61.6Z"/><path class="cls-5" d="M345.47,111.65c-3.57,0-6.16-1-7.68-3.06s-1.81-5-1.81-7.3V90c0-2.06.19-5,1.86-7.25s4.14-3.16,7.63-3.16c3.65,0,6.16,1,7.68,3,1.66,2.2,1.86,5.22,1.86,7.3v11.37c0,2.06-.2,5.05-1.86,7.25S349,111.65,345.47,111.65Zm-.31-26.73A2.68,2.68,0,0,0,342.94,86a6,6,0,0,0-.67,3.16v12.91a6,6,0,0,0,.72,3.16,2.54,2.54,0,0,0,2.17,1h.62a2.59,2.59,0,0,0,2.22-1,5.88,5.88,0,0,0,.67-3.16V89.15a6,6,0,0,0-.62-3.21,2.68,2.68,0,0,0-2.27-1Z"/><path class="cls-5" d="M369.73,111.6a14.46,14.46,0,0,1-4.84-.71,7.15,7.15,0,0,1-3.25-2.25c-1.59-2.06-1.8-5.14-1.8-8.16V90.56a20.18,20.18,0,0,1,.31-4.47,7.59,7.59,0,0,1,2.48-4.33,10.91,10.91,0,0,1,7.17-2.2,20,20,0,0,1,6.26,1.08.62.62,0,0,1,.38.7l-.89,4a.62.62,0,0,1-.59.47l-.13,0-.69-.15-1.82-.38a13.11,13.11,0,0,0-2.58-.31,3.19,3.19,0,0,0-3,1.48,7.23,7.23,0,0,0-.61,3.47v10.76a8.65,8.65,0,0,0,.66,4,3.48,3.48,0,0,0,3,1.48,2.61,2.61,0,0,0,.4,0h.84V97a.6.6,0,0,1,.6-.6h5a.6.6,0,0,1,.6.6v12.91a.63.63,0,0,1-.33.55,11.08,11.08,0,0,1-2.55.78A25.53,25.53,0,0,1,369.73,111.6Z"/><polygon class="cls-6" points="331.84 37.36 280.44 37.36 387.66 99.26 387.66 69.59 331.84 37.36"/><path class="cls-5" d="M324.53,57.61a.28.28,0,0,1-.1-.38l7.9-13.69a.29.29,0,0,1,.39-.1l3.74,2.16a5.59,5.59,0,0,1,2.5,2.67,4,4,0,0,1-.1,2.6,14.12,14.12,0,0,1-1.14,2.31l-2.27,3.92a13.9,13.9,0,0,1-1.4,2.12,4,4,0,0,1-2.3,1.43,4.25,4.25,0,0,1-1.79-.12,9.17,9.17,0,0,1-1.91-.89Zm5-.36a1.59,1.59,0,0,0,1.64.22,3.84,3.84,0,0,0,1.12-1.41l3-5.13a3.85,3.85,0,0,0,.66-1.67c0-.64-.48-1-1-1.32l-1-.59-5.38,9.3Z"/><path class="cls-5" d="M336.74,64.66a.28.28,0,0,1-.1-.38l7.9-13.69a.27.27,0,0,1,.38-.1l7.18,4.14a.28.28,0,0,1,.1.38l-1.13,2a.27.27,0,0,1-.38.1l-4.62-2.67-2,3.42,3.61,2.08a.27.27,0,0,1,.1.38l-1.12,1.95a.27.27,0,0,1-.38.1l-3.61-2.08-2,3.46,4.62,2.67a.28.28,0,0,1,.1.38l-1.12,2a.28.28,0,0,1-.38.1Z"/><path class="cls-5" d="M356.06,75.81a.28.28,0,0,1-.1-.38l5.24-9.28,0,0-.06,0c-.75.78-1.38,1.39-1.89,1.84l-3,2.57a.3.3,0,0,1-.33,0l-1.21-.7a.28.28,0,0,1-.13-.3l.83-3.8c.11-.64.3-1.38.48-2.11l.11-.45,0,0,0,0-5.32,9.08a.29.29,0,0,1-.38.1l-2.09-1.21a.26.26,0,0,1-.13-.17.3.3,0,0,1,0-.21l8.13-13.56a.29.29,0,0,1,.38-.1l2.33,1.35a.26.26,0,0,1,.13.27c-.18,1.47-.47,3-.72,4.45-.17.94-.34,1.88-.48,2.79h0c.71-.57,1.43-1.18,2.16-1.8,1.15-1,2.34-2,3.51-2.86a.26.26,0,0,1,.3,0l2.33,1.35a.27.27,0,0,1,.11.37L358.5,76.9a.26.26,0,0,1-.16.13.28.28,0,0,1-.22,0Z"/><path class="cls-5" d="M365.8,81.62a4.62,4.62,0,0,1-2.62-3.35,6.24,6.24,0,0,1,1.09-3.74l2.94-5.09a6.26,6.26,0,0,1,2.7-2.78,4.6,4.6,0,0,1,4.22.53c1.62.94,2.48,2,2.63,3.33a6.41,6.41,0,0,1-1.07,3.76l-2.95,5.11a6.31,6.31,0,0,1-2.7,2.78A4.62,4.62,0,0,1,365.8,81.62Zm6.8-12.1a1.37,1.37,0,0,0-1.27-.08,3,3,0,0,0-1.11,1.25l-3.35,5.8a3,3,0,0,0-.5,1.6,1.28,1.28,0,0,0,.69,1l.28.16a1.32,1.32,0,0,0,1.25.11,3.2,3.2,0,0,0,1.12-1.25l3.35-5.8a3.22,3.22,0,0,0,.56-1.61,1.41,1.41,0,0,0-.75-1Z"/></svg>