<svg xmlns="http://www.w3.org/2000/svg" viewBox="0 0 32 32"><defs><style>.cls-1{fill:#0069a5;}.cls-2{fill:#c4ebfa;}</style></defs><title>icon-catalog-api-md</title><g id="outline"><path class="cls-1" d="M30.62,12.61l-4-1c-.1-.23-.2-.46-.31-.68l2-3.3A.5.5,0,0,0,28.25,7L24.56,3.34A.5.5,0,0,0,24,3.27l-3.51,2.1-.7-.27-.93-3.72A.51.51,0,0,0,18.32,1H13.1a.51.51,0,0,0-.49.38l-1,4-.68.31-3.3-2A.5.5,0,0,0,7,3.75L3.34,7.44a.5.5,0,0,0-.07.61l2.1,3.51c-.1.25-.19.48-.27.7l-3.72.93a.51.51,0,0,0-.38.49V18.9a.51.51,0,0,0,.38.49l4,1c.1.24.2.46.31.68l-2,3.3a.5.5,0,0,0,.07.61l3.69,3.69a.5.5,0,0,0,.61.07l3.51-2.1.7.27.93,3.72a.51.51,0,0,0,.49.38H18.9a.51.51,0,0,0,.49-.38l1-4,.68-.31,3.3,2a.5.5,0,0,0,.61-.07l3.69-3.69a.5.5,0,0,0,.07-.61l-2.1-3.51c.1-.25.19-.48.27-.7l3.72-.93a.51.51,0,0,0,.38-.49V13.1A.51.51,0,0,0,30.62,12.61ZM16,20.56A4.56,4.56,0,1,1,20.56,16,4.57,4.57,0,0,1,16,20.56Z"/><path class="cls-2" d="M14.07,30h4.44l1-3.84a.5.5,0,0,1,.31-.35c.38-.15.74-.31,1.07-.48a.5.5,0,0,1,.49,0l3.2,1.92,3.13-3.14-2-3.39a.47.47,0,0,1,0-.46,10.48,10.48,0,0,0,.42-1.1.5.5,0,0,1,.36-.34l3.61-.9V13.49l-3.84-1a.5.5,0,0,1-.35-.31c-.15-.38-.31-.74-.48-1.07a.5.5,0,0,1,0-.49l1.92-3.2L24.12,4.33l-3.39,2a.47.47,0,0,1-.46,0A10.48,10.48,0,0,0,19.17,6a.5.5,0,0,1-.34-.36L17.93,2H13.49l-1,3.84a.5.5,0,0,1-.31.35,10.71,10.71,0,0,0-1.07.48.5.5,0,0,1-.49,0L7.46,4.74,4.33,7.88l2,3.39a.47.47,0,0,1,0,.46A10.48,10.48,0,0,0,6,12.83a.5.5,0,0,1-.36.34L2,14.07v4.44l3.84,1a.5.5,0,0,1,.35.31,10.71,10.71,0,0,0,.48,1.07.5.5,0,0,1,0,.49l-1.92,3.2,3.14,3.13,3.39-2a.47.47,0,0,1,.46,0,10.48,10.48,0,0,0,1.1.42.5.5,0,0,1,.34.36ZM16,21.56A5.56,5.56,0,1,1,21.56,16,5.56,5.56,0,0,1,16,21.56Z"/></g></svg>