<svg id="outline" xmlns="http://www.w3.org/2000/svg" viewBox="0 0 32 32"><defs><style>.cls-1{fill:#c4ebfa;}.cls-2{fill:#0069a5;}</style></defs><title>icon-report-api</title><path class="cls-1" d="M30.5,18.32V13.1L26.28,12a11.3,11.3,0,0,0-.51-1.12l2.12-3.53L24.2,3.7,20.47,5.93c-.37-.16-.76-.31-1.15-.44l-1-4H13.1L12,5.72a11.3,11.3,0,0,0-1.12.51L7.39,4.11,3.7,7.8l2.23,3.73c-.16.37-.31.76-.44,1.15l-4,1V18.9L5.72,20a11.3,11.3,0,0,0,.51,1.12L4.11,24.61,7.8,28.3l3.73-2.23c.37.16.76.31,1.15.44l1,4H18.9L20,26.28a11.3,11.3,0,0,0,1.12-.51l3.53,2.12L28.3,24.2l-2.23-3.73c.16-.37.31-.76.44-1.15ZM20.5,16A4.5,4.5,0,1,1,16,11.5,4.49,4.49,0,0,1,20.5,16Z"/><path class="cls-2" d="M18.9,31H13.68a.51.51,0,0,1-.49-.38l-.93-3.72-.7-.27-3.51,2.1a.5.5,0,0,1-.61-.07L3.75,25a.5.5,0,0,1-.07-.61l2-3.3c-.11-.22-.21-.44-.31-.68l-4-1A.51.51,0,0,1,1,18.9V13.68a.51.51,0,0,1,.38-.49l3.72-.93c.08-.22.17-.45.27-.7L3.27,8.05a.5.5,0,0,1,.07-.61L7,3.75a.5.5,0,0,1,.61-.07l3.3,2,.68-.31,1-4A.51.51,0,0,1,13.1,1h5.22a.51.51,0,0,1,.49.38l.93,3.72.7.27L24,3.27a.5.5,0,0,1,.61.07L28.25,7a.5.5,0,0,1,.07.61l-2,3.3c.11.22.21.45.31.68l4,1a.51.51,0,0,1,.38.49v5.22a.51.51,0,0,1-.38.49l-3.72.93c-.08.22-.17.45-.27.7L28.73,24a.5.5,0,0,1-.07.61L25,28.25a.5.5,0,0,1-.61.07l-3.3-2-.68.31-1,4A.51.51,0,0,1,18.9,31Zm-4.83-1h4.44l1-3.84a.5.5,0,0,1,.31-.35c.38-.15.74-.31,1.07-.48a.5.5,0,0,1,.49,0l3.2,1.92,3.13-3.14-2-3.39a.47.47,0,0,1,0-.46,10.48,10.48,0,0,0,.42-1.1.5.5,0,0,1,.36-.34l3.61-.9V13.49l-3.84-1a.5.5,0,0,1-.35-.31c-.15-.38-.31-.74-.48-1.07a.5.5,0,0,1,0-.49l1.92-3.2L24.12,4.33l-3.39,2a.47.47,0,0,1-.46,0A10.48,10.48,0,0,0,19.17,6a.5.5,0,0,1-.34-.36L17.93,2H13.49l-1,3.84a.5.5,0,0,1-.31.35,10.71,10.71,0,0,0-1.07.48.5.5,0,0,1-.49,0L7.46,4.74,4.33,7.88l2,3.39a.47.47,0,0,1,0,.46A10.48,10.48,0,0,0,6,12.83a.5.5,0,0,1-.36.34L2,14.07v4.44l3.84,1a.5.5,0,0,1,.35.31,10.71,10.71,0,0,0,.48,1.07.5.5,0,0,1,0,.49l-1.92,3.2,3.14,3.13,3.39-2a.47.47,0,0,1,.46,0,10.48,10.48,0,0,0,1.1.42.5.5,0,0,1,.34.36ZM30.5,18.32h0ZM16,21a5,5,0,1,1,5-5A5,5,0,0,1,16,21Zm0-9a4,4,0,1,0,4,4A4,4,0,0,0,16,12Z"/></svg>