<svg id="outline" xmlns="http://www.w3.org/2000/svg" viewBox="0 0 32 32"><defs><style>.cls-1{fill:#c4ebfa;}.cls-2{fill:#0069a5;}.cls-3{fill:#fff;}</style></defs><title>icon-report-nedlastbar-fil</title><polygon class="cls-1" points="25.32 29.46 1.5 29.46 1.5 1.5 14.85 1.5 17.73 1.5 25.32 8.75 25.32 29.46"/><path class="cls-2" d="M25.32,9.77H17.55a.51.51,0,0,1-.5-.5V1.5a.5.5,0,0,1,.5-.5.5.5,0,0,1,.5.5V8.77h7.27a.5.5,0,0,1,.5.5A.5.5,0,0,1,25.32,9.77Z"/><circle class="cls-3" cx="25.32" cy="25.32" r="5.18"/><path class="cls-2" d="M25.82,19.67V8.75a.48.48,0,0,0-.15-.36l-7.6-7.25A.48.48,0,0,0,17.73,1H1.5a.5.5,0,0,0-.5.5v28a.5.5,0,0,0,.5.5H22.06a5.67,5.67,0,1,0,3.76-10.29ZM2,2H17.53l7.29,7V19.67a5.68,5.68,0,0,0-5.18,5.65A5.61,5.61,0,0,0,21,29H2ZM25.32,30A4.68,4.68,0,1,1,30,25.32,4.69,4.69,0,0,1,25.32,30Z"/><path class="cls-2" d="M25.32,27.89a.5.5,0,0,1-.5-.5V23.25a.5.5,0,0,1,1,0v4.14A.5.5,0,0,1,25.32,27.89Z"/><path class="cls-2" d="M25.32,27.89a.52.52,0,0,1-.35-.14L22.9,25.67a.49.49,0,0,1,.7-.7l1.72,1.72L27,25a.5.5,0,0,1,.71,0,.5.5,0,0,1,0,.7l-2.08,2.08A.5.5,0,0,1,25.32,27.89Z"/><path class="cls-2" d="M13.41,8.21H5.64a.5.5,0,0,1-.5-.5.51.51,0,0,1,.5-.5h7.77a.5.5,0,0,1,.5.5A.5.5,0,0,1,13.41,8.21Z"/><path class="cls-2" d="M21.18,14.43H5.64a.5.5,0,0,1,0-1H21.18a.5.5,0,0,1,0,1Z"/><path class="cls-2" d="M21.18,17.54H5.64a.51.51,0,0,1-.5-.5.5.5,0,0,1,.5-.5H21.18a.5.5,0,0,1,.5.5A.5.5,0,0,1,21.18,17.54Z"/><path class="cls-2" d="M19.11,20.64H5.64a.5.5,0,0,1-.5-.5.51.51,0,0,1,.5-.5H19.11a.51.51,0,0,1,.5.5A.5.5,0,0,1,19.11,20.64Z"/><path class="cls-2" d="M17,23.75H5.64a.5.5,0,0,1,0-1H17a.5.5,0,0,1,0,1Z"/></svg>