<svg id="outline" xmlns="http://www.w3.org/2000/svg" viewBox="0 0 32 32"><defs><style>.cls-1{fill:#dcfaf0;}.cls-2{fill:#007d69;}</style></defs><title>icon-api-cost-none</title><path class="cls-1" d="M26.77,17.52l-13,13-12-12,13-13a8.51,8.51,0,0,1,12,0h0A8.51,8.51,0,0,1,26.77,17.52Zm-2.1-9.9a2,2,0,1,0-2.79,2.8,1.92,1.92,0,0,0,2.79,0h0A1.92,1.92,0,0,0,24.67,7.62Z"/><path class="cls-2" d="M28.38,6.62c1.39-1.4,2.39-3.1,2.39-4.2a1.37,1.37,0,0,0-.39-1c-1-1-3.3.3-5.11,2l-.2.2a9.26,9.26,0,0,0-10.69,1.5l-13,13a.48.48,0,0,0,0,.7l12,12c.1.1.19.1.39.1s.3,0,.4-.1l13-13A9.11,9.11,0,0,0,28.38,6.62Zm-2.31-2.5c1.7-1.7,3.4-2.3,3.7-2a.34.34,0,0,1,.11.2,6.27,6.27,0,0,1-2,3.4A13.58,13.58,0,0,0,26.07,4.12Zm.31,13L13.77,29.82,2.47,18.52l12.7-12.6a8,8,0,0,1,11.31,0l.6.6c-.7.5-1.31.8-1.81,1.1L25,7.32a2.47,2.47,0,0,0-3.5,3.5,2.4,2.4,0,0,0,1.79.7h0a2.85,2.85,0,0,0,1.8-.7,2.78,2.78,0,0,0,.7-2.3,8.81,8.81,0,0,0,1.8-1.2A7.89,7.89,0,0,1,26.38,17.12Zm-2.11-7a1.49,1.49,0,0,1-1.1.4h0a2.13,2.13,0,0,1-1.1-.4,1.45,1.45,0,0,1,0-2.1,2,2,0,0,1,.8-.4,1.22,1.22,0,0,0,.4.9,1.69,1.69,0,0,0,1,.3h.4A1.37,1.37,0,0,1,24.27,10.12Z"/><path class="cls-2" d="M16.17,15.92a.6.6,0,0,1-.4-.1l-2.1-2.1a.49.49,0,0,1,.7-.7l2.1,2.1a.48.48,0,0,1,0,.7A.36.36,0,0,1,16.17,15.92Z"/><path class="cls-2" d="M13.27,18.82a.56.56,0,0,1-.39-.1l-2.11-2.1a.49.49,0,0,1,.7-.7l2.1,2.1a.48.48,0,0,1,0,.7A.91.91,0,0,1,13.27,18.82Z"/><path class="cls-2" d="M13.07,21.72a.5.5,0,0,1,0-1,5.68,5.68,0,0,0,5.5-5.5.47.47,0,0,1,.5-.5h0a.47.47,0,0,1,.5.5,6.75,6.75,0,0,1-6.5,6.5Z"/></svg>