<svg id="outline" xmlns="http://www.w3.org/2000/svg" viewBox="0 0 32 32"><defs><style>.cls-1{fill:#d2d7dc;}.cls-2{fill:#fff;}.cls-3{fill:#646e78;}</style></defs><title>icon-report-concept-none</title><path class="cls-1" d="M27.5,6.5v24H7.25A2.75,2.75,0,0,1,4.5,27.75V4"/><path class="cls-2" d="M27.5,1.5a2.5,2.5,0,0,0,0,5H7a2.5,2.5,0,0,1,0-5Z"/><polygon class="cls-2" points="13 7 13 19 11 17 9 19 9 7 13 7"/><path class="cls-3" d="M30.71,1.29a1,1,0,0,0-1.42,0L25.71,4.88A2,2,0,0,1,27.5,2a.5.5,0,0,0,0-1H7A3,3,0,0,0,4,4V26.59l-2.71,2.7a1,1,0,0,0,0,1.42,1,1,0,0,0,1.42,0l1.6-1.6A3.24,3.24,0,0,0,7.25,31H27.5a.5.5,0,0,0,.5-.5V6.5a.5.5,0,0,0-.5-.5h-.08l3.29-3.28A1,1,0,0,0,30.71,1.29Zm-18.42,17L11,17,9,19V7h4V17.59ZM14,7h9.59L14,16.59ZM7,2H25.27a3,3,0,0,0-.77,2A3.06,3.06,0,0,0,25,5.61L24.59,6H7A2,2,0,0,1,7,2ZM5,6.22A3,3,0,0,0,7,7H8V21.41l1.71-1.7L11,18.41l.59.59L5,25.59ZM7.25,30a2.23,2.23,0,0,1-2.16-1.67L13,20.41l1,1v-2L26.41,7H27V30Z"/></svg>