<svg xmlns="http://www.w3.org/2000/svg" viewBox="0 0 32 32"><defs><style>.cls-1{fill:#c4ebfa;}.cls-2{fill:#0069a5;}</style></defs><title>icon-catalog-infomodel-md</title><g id="outline"><path class="cls-1" d="M29.67,22H27.5V18.5A2.5,2.5,0,0,0,25,16H16.5V12h5.87A1.63,1.63,0,0,0,24,10.37V3.63A1.63,1.63,0,0,0,22.37,2H9.63A1.63,1.63,0,0,0,8,3.63v6.74A1.63,1.63,0,0,0,9.63,12H15.5v4H7a2.5,2.5,0,0,0-2.5,2.5V22H2.33A1.34,1.34,0,0,0,1,23.33v5.34A1.34,1.34,0,0,0,2.33,30H7.67A1.34,1.34,0,0,0,9,28.67V23.33A1.34,1.34,0,0,0,7.67,22H5.5V18.5A1.5,1.5,0,0,1,7,17h8.5v5H13.33A1.34,1.34,0,0,0,12,23.33v5.34A1.34,1.34,0,0,0,13.33,30h5.34A1.34,1.34,0,0,0,20,28.67V23.33A1.34,1.34,0,0,0,18.67,22H16.5V17H25a1.5,1.5,0,0,1,1.5,1.5V22H24.33A1.34,1.34,0,0,0,23,23.33v5.34A1.34,1.34,0,0,0,24.33,30h5.34A1.34,1.34,0,0,0,31,28.67V23.33A1.34,1.34,0,0,0,29.67,22Z"/><path class="cls-2" d="M29.67,22H27.5V18.5A2.5,2.5,0,0,0,25,16H16.5V12h5.87A1.63,1.63,0,0,0,24,10.37V3.63A1.63,1.63,0,0,0,22.37,2H9.63A1.63,1.63,0,0,0,8,3.63v6.74A1.63,1.63,0,0,0,9.63,12H15.5v4H7a2.5,2.5,0,0,0-2.5,2.5V22H2.33A1.34,1.34,0,0,0,1,23.33v5.34A1.34,1.34,0,0,0,2.33,30H7.67A1.34,1.34,0,0,0,9,28.67V23.33A1.34,1.34,0,0,0,7.67,22H5.5V18.5A1.5,1.5,0,0,1,7,17h8.5v5H13.33A1.34,1.34,0,0,0,12,23.33v5.34A1.34,1.34,0,0,0,13.33,30h5.34A1.34,1.34,0,0,0,20,28.67V23.33A1.34,1.34,0,0,0,18.67,22H16.5V17H25a1.5,1.5,0,0,1,1.5,1.5V22H24.33A1.34,1.34,0,0,0,23,23.33v5.34A1.34,1.34,0,0,0,24.33,30h5.34A1.34,1.34,0,0,0,31,28.67V23.33A1.34,1.34,0,0,0,29.67,22ZM9,10.37V3.63A.63.63,0,0,1,9.63,3H22.37a.63.63,0,0,1,.63.63v6.74a.63.63,0,0,1-.63.63H9.63A.63.63,0,0,1,9,10.37Zm-1,13v5.34a.33.33,0,0,1-.33.33H2.33A.33.33,0,0,1,2,28.67V23.33A.33.33,0,0,1,2.33,23H7.67A.33.33,0,0,1,8,23.33Zm11,0v5.34a.33.33,0,0,1-.33.33H13.33a.33.33,0,0,1-.33-.33V23.33a.33.33,0,0,1,.33-.33h5.34A.33.33,0,0,1,19,23.33Zm11,5.34a.33.33,0,0,1-.33.33H24.33a.33.33,0,0,1-.33-.33V23.33a.33.33,0,0,1,.33-.33h5.34a.33.33,0,0,1,.33.33Z"/></g></svg>