<svg id="outline" xmlns="http://www.w3.org/2000/svg" viewBox="0 0 32 32"><defs><style>.cls-1{fill:#d70a5a;}.cls-2{fill:#f9dae6;}</style></defs><title>icon-dataset-not-public-md</title><path class="cls-1" d="M1,14.69V28.31A1.69,1.69,0,0,0,2.69,30H19.31A1.69,1.69,0,0,0,21,28.31V14.69A1.69,1.69,0,0,0,19.31,13H18.5V9.5a7.5,7.5,0,0,0-15,0V13H2.69A1.69,1.69,0,0,0,1,14.69ZM5.5,9.5a5.5,5.5,0,0,1,11,0V13H5.5Z"/><path class="cls-2" d="M2,14.69V28.31a.69.69,0,0,0,.69.69H19.31a.69.69,0,0,0,.69-.69V14.69a.69.69,0,0,0-.69-.69H2.69A.69.69,0,0,0,2,14.69ZM9.59,21.5l-2.3-2.29a1,1,0,1,1,1.42-1.42L11,20.09l2.29-2.3a1,1,0,0,1,1.42,1.42l-2.3,2.29,2.3,2.29a1,1,0,0,1,0,1.42,1,1,0,0,1-1.42,0L11,22.91l-2.29,2.3a1,1,0,0,1-1.42,0,1,1,0,0,1,0-1.42Z"/></svg>