<svg id="outline" xmlns="http://www.w3.org/2000/svg" viewBox="0 0 32 32"><defs><style>.cls-1{fill:#dcfaf0;}.cls-2{fill:#007d69;}</style></defs><title>icon-api-license-open</title><polygon class="cls-1" points="28 30.5 4 30.5 4 1.5 21 1.5 28 8.5 28 30.5"/><path class="cls-2" d="M28.46,8.31a.36.36,0,0,0-.11-.16l-7-7A.36.36,0,0,0,21.19,1,.41.41,0,0,0,21,1H4a.5.5,0,0,0-.5.5v29A.5.5,0,0,0,4,31H28a.5.5,0,0,0,.5-.5V8.5A.41.41,0,0,0,28.46,8.31Zm-7-5.6L26.79,8H21.5ZM4.5,30V2h16V8.5A.5.5,0,0,0,21,9h6.5V30Z"/><path class="cls-2" d="M8,7h8a.5.5,0,0,0,0-1H8A.5.5,0,0,0,8,7Z"/><path class="cls-2" d="M24,14H8a.5.5,0,0,0,0,1H24a.5.5,0,0,0,0-1Z"/><path class="cls-2" d="M24,11H8a.5.5,0,0,0,0,1H24a.5.5,0,0,0,0-1Z"/><path class="cls-2" d="M19.5,17H8a.5.5,0,0,0,0,1H19.5a.5.5,0,0,0,0-1Z"/></svg>