<svg xmlns="http://www.w3.org/2000/svg" viewBox="0 0 32 32"><defs><style>.cls-1{fill:#0069a5;}.cls-2{fill:#fff;}.cls-3{fill:#c4ebfa;}</style></defs><title>icon-catalog-concept-md</title><g id="outline"><path class="cls-1" d="M27.5,7A2.6,2.6,0,0,1,25,4.5,2.6,2.6,0,0,1,27.5,2a.5.5,0,0,0,0-1H7.21A3.37,3.37,0,0,0,4,4.5v23A3.5,3.5,0,0,0,7.5,31h20a.5.5,0,0,0,.5-.5V7.5A.5.5,0,0,0,27.5,7Z"/><path class="cls-2" d="M12.5,16a.47.47,0,0,1,.35.15L15,18.29V8H10V18.29l2.15-2.14A.47.47,0,0,1,12.5,16Z"/><path class="cls-2" d="M7.21,2A2.37,2.37,0,0,0,5,4.5,2.37,2.37,0,0,0,7.21,7H25.1A3.51,3.51,0,0,1,24,4.5,3.51,3.51,0,0,1,25.1,2Z"/><path class="cls-3" d="M16,8V19.5a.5.5,0,0,1-.31.46.43.43,0,0,1-.19,0,.47.47,0,0,1-.35-.15L12.5,17.21,9.85,19.85a.47.47,0,0,1-.54.11A.5.5,0,0,1,9,19.5V8H7.16A2.94,2.94,0,0,1,5,7V27.5A2.5,2.5,0,0,0,7.5,30H27V8Z"/></g></svg>