<?xml version="1.0" encoding="utf-8"?>
<!-- Generator: Adobe Illustrator 23.0.1, SVG Export Plug-In . SVG Version: 6.00 Build 0)  -->
<svg version="1.1" id="outline" xmlns="http://www.w3.org/2000/svg" xmlns:xlink="http://www.w3.org/1999/xlink" x="0px" y="0px"
	 viewBox="0 0 64 64" style="enable-background:new 0 0 64 64;" xml:space="preserve">
<style type="text/css">
	.st0{fill:#9DDEF7;}
	.st1{fill:#3CBEF0;}
</style>
<title>icon-catalogue-dataset-2</title>
<path class="st0" d="M28.8,34.4L10.7,44.9c-2.1,1.2-3.9-0.1-3.9-2.9V22.3c0-2.9,1.7-6.2,3.9-7.4L28.8,4.5c2.1-1.2,3.9,0.1,3.9,2.9
	V27C32.7,29.9,31,33.2,28.8,34.4z"/>
<path class="st0" d="M37,39.3L18.9,49.8C16.7,51,15,49.7,15,46.8V27.2c0-2.9,1.7-6.2,3.9-7.4L37,9.4c2.1-1.2,3.9,0.1,3.9,2.9v19.6
	C40.9,34.7,39.1,38.1,37,39.3z"/>
<path class="st0" d="M45.1,44.2L27,54.7c-2.1,1.2-3.9-0.1-3.9-2.9V32.1c0-2.9,1.7-6.2,3.9-7.4l18.1-10.5c2.1-1.2,3.9,0.1,3.9,2.9
	v19.6C49,39.6,47.3,43,45.1,44.2z"/>
<path class="st0" d="M53.3,49.1L35.2,59.5c-2.1,1.2-3.9-0.1-3.9-2.9V37c0-2.9,1.7-6.2,3.9-7.4l18.1-10.5c2.1-1.2,3.9,0.1,3.9,2.9
	v19.6C57.2,44.5,55.4,47.8,53.3,49.1z"/>
<path class="st1" d="M54.8,16.7c-0.9,0-1.8,0.3-2.5,0.7L51,18.1v-1c0-3.7-2.2-5.4-4.3-5.4c-0.9,0-1.8,0.3-2.5,0.7l-1.3,0.7v-0.9
	c0-3.7-2.2-5.4-4.3-5.4c-0.9,0-1.8,0.3-2.5,0.7l-1.3,0.7v-1c0-3.7-2.2-5.4-4.3-5.4c-0.9,0-1.8,0.3-2.5,0.7L9.7,13.2
	c-2.8,1.6-4.9,5.5-4.9,9.1v19.6c0,3.7,2.2,5.4,4.3,5.4c0.9,0,1.8-0.3,2.5-0.7l1.3-0.7v1c0,3.7,2.2,5.4,4.3,5.4
	c0.9,0,1.8-0.3,2.5-0.7l1.2-0.7v1c0,3.7,2.2,5.4,4.3,5.4c0.9,0,1.8-0.3,2.5-0.8l1.3-0.7v1c0,3.7,2.2,5.4,4.3,5.4
	c0.9,0,1.8-0.3,2.5-0.7l18.1-10.5c2.8-1.6,4.9-5.5,4.9-9.1V22.1C59.2,18.4,56.9,16.7,54.8,16.7z M13,27.2v16.3l-2.3,1.3
	c-0.5,0.3-1,0.4-1.5,0.5c-1.4,0-2.3-1.3-2.3-3.4V22.3c0-2.9,1.7-6.2,3.9-7.4L28.8,4.5c0.5-0.3,1-0.5,1.5-0.5c1.4,0,2.3,1.3,2.3,3.4
	v2.1l-14.9,8.6C15.1,19.7,13,23.6,13,27.2z M21.1,32.1v16.3l-2.3,1.3c-0.5,0.3-1,0.4-1.5,0.5C16,50.2,15,49,15,46.8V27.2
	c0-2.8,1.7-6.2,3.9-7.4L37,9.3c0.5-0.3,1-0.4,1.5-0.5c1.4,0,2.3,1.3,2.3,3.4v2.1L26,23C23.2,24.6,21.1,28.5,21.1,32.1z M29.3,37
	v16.3L27,54.7c-0.5,0.3-1,0.4-1.5,0.5c-1.4,0-2.3-1.3-2.3-3.4V32.1c0-2.8,1.7-6.2,3.9-7.4l18.1-10.5c0.5-0.3,1-0.4,1.5-0.5
	c1.4,0,2.3,1.3,2.3,3.4v2.1l-14.8,8.6C31.4,29.5,29.3,33.4,29.3,37z M57.2,41.7c0,2.9-1.7,6.2-3.9,7.4L35.2,59.5
	c-0.5,0.3-1,0.5-1.5,0.5c-1.4,0-2.3-1.3-2.3-3.4V37c0-2.9,1.7-6.2,3.9-7.4l18.1-10.5c0.5-0.3,1-0.4,1.5-0.5c1.4,0,2.3,1.3,2.3,3.4
	V41.7z"/>
</svg>
