<?xml version="1.0" encoding="utf-8"?>
<!-- Generator: Adobe Illustrator 23.0.1, SVG Export Plug-In . SVG Version: 6.00 Build 0)  -->
<svg version="1.1" id="icons" xmlns="http://www.w3.org/2000/svg" xmlns:xlink="http://www.w3.org/1999/xlink" x="0px" y="0px"
	 viewBox="0 0 32 32" style="enable-background:new 0 0 32 32;" xml:space="preserve">
<style type="text/css">
	.st0{fill:#FFEBF0;}
	.st1{fill:#D70A5A;}
</style>
<title>ikon-lisens-1b-32x32</title>
<polygon class="st0" points="23.5,30.5 1.5,30.5 1.5,4.5 8.5,4.5 8.5,27.5 23.5,27.5 "/>
<polygon class="st0" points="30.5,27.5 8.5,27.5 8.5,1.5 23.5,1.5 30.5,8.5 "/>
<g>
	<path class="st1" d="M31,8.3c0-0.1-0.1-0.1-0.1-0.2l-7-7c0,0-0.1-0.1-0.2-0.1c-0.1,0-0.1,0-0.2,0h-15C8.2,1,8,1.2,8,1.5V4H1.5
		C1.2,4,1,4.2,1,4.5v26C1,30.8,1.2,31,1.5,31h22c0.3,0,0.5-0.2,0.5-0.5V28h6.5c0.3,0,0.5-0.2,0.5-0.5v-19C31,8.4,31,8.4,31,8.3z
		 M24,2.7L29.3,8H24V2.7z M23,30H2V5h6v4H5.5C5.2,9,5,9.2,5,9.5S5.2,10,5.5,10H8v4H5.5C5.2,14,5,14.2,5,14.5S5.2,15,5.5,15H8v2H5.5
		C5.2,17,5,17.2,5,17.5S5.2,18,5.5,18H8v2H5.5C5.2,20,5,20.2,5,20.5S5.2,21,5.5,21H8v2H5.5C5.2,23,5,23.2,5,23.5S5.2,24,5.5,24H8v2
		H5.5C5.2,26,5,26.2,5,26.5S5.2,27,5.5,27H8v0.5C8,27.8,8.2,28,8.5,28H23V30z M23.5,27H9V4.5V2h14v6.5C23,8.8,23.2,9,23.5,9H30v18
		H23.5z"/>
	<path class="st1" d="M12.5,7h6C18.8,7,19,6.8,19,6.5S18.8,6,18.5,6h-6C12.2,6,12,6.2,12,6.5S12.2,7,12.5,7z"/>
	<path class="st1" d="M26.5,11h-14c-0.3,0-0.5,0.2-0.5,0.5s0.2,0.5,0.5,0.5h14c0.3,0,0.5-0.2,0.5-0.5S26.8,11,26.5,11z"/>
	<path class="st1" d="M26.5,14h-14c-0.3,0-0.5,0.2-0.5,0.5s0.2,0.5,0.5,0.5h14c0.3,0,0.5-0.2,0.5-0.5S26.8,14,26.5,14z"/>
	<path class="st1" d="M26.5,17h-14c-0.3,0-0.5,0.2-0.5,0.5s0.2,0.5,0.5,0.5h14c0.3,0,0.5-0.2,0.5-0.5S26.8,17,26.5,17z"/>
	<path class="st1" d="M26.5,20h-14c-0.3,0-0.5,0.2-0.5,0.5s0.2,0.5,0.5,0.5h14c0.3,0,0.5-0.2,0.5-0.5S26.8,20,26.5,20z"/>
	<path class="st1" d="M22.5,23h-10c-0.3,0-0.5,0.2-0.5,0.5s0.2,0.5,0.5,0.5h10c0.3,0,0.5-0.2,0.5-0.5S22.8,23,22.5,23z"/>
</g>
</svg>
