<?xml version="1.0" encoding="UTF-8"?>
<svg width="40px" height="44px" viewBox="0 0 40 44" version="1.1" xmlns="http://www.w3.org/2000/svg" xmlns:xlink="http://www.w3.org/1999/xlink">
    <!-- Generator: Sketch 60 (88103) - https://sketch.com -->
    <title>nap-datasett-ikon</title>
    <desc>Created with Sketch.</desc>
    <defs>
        <path d="M36.9811,11.001 L36.9811,11.001 C36.4381,11.001 35.8801,11.164 35.3261,11.484 L33.6241,12.466 L33.6241,10.883 C33.6241,8.432 32.2411,7.334 30.8701,7.334 C30.3261,7.334 29.7691,7.497 29.2131,7.817 L27.5121,8.799 L27.5121,7.216 C27.5121,4.765 26.1281,3.667 24.7571,3.667 C24.2141,3.667 23.6581,3.83 23.1021,4.15 L21.4011,5.132 L21.4011,3.549 C21.4011,1.098 20.0171,0 18.6461,0 C18.1031,0 17.5451,0.163 16.9911,0.483 L3.4101,8.324 C1.4981,9.428 0.0001,12.251 0.0001,14.751 L0.0001,29.45 C0.0001,31.901 1.3831,32.999 2.7541,32.999 C3.2971,32.999 3.8551,32.837 4.4101,32.516 L6.1121,31.533 L6.1121,33.117 C6.1121,35.568 7.4951,36.666 8.8661,36.666 C9.4101,36.666 9.9661,36.504 10.5221,36.183 L12.2231,35.2 L12.2231,36.784 C12.2231,39.235 13.6071,40.333 14.9781,40.333 C15.5211,40.333 16.0781,40.17 16.6331,39.85 L18.3351,38.867 L18.3351,40.451 C18.3351,42.902 19.7181,44 21.0891,44 C21.6321,44 22.1901,43.838 22.7451,43.517 L36.3261,35.676 C38.2381,34.572 39.7361,31.749 39.7361,29.25 L39.7361,14.55 C39.7361,12.099 38.3521,11.001 36.9811,11.001" id="path-1"></path>
        <path d="M38.736,29.25 C38.736,31.393 37.432,33.882 35.826,34.81 L22.245,42.65 C20.637,43.579 19.335,42.594 19.335,40.451 L19.335,25.751 C19.335,23.608 20.637,21.119 22.245,20.191 L35.826,12.35 C37.432,11.422 38.736,12.407 38.736,14.55 L38.736,29.25 Z M18.335,25.751 L18.335,37.713 L16.133,38.983 C14.526,39.912 13.223,38.927 13.223,36.784 L13.223,22.084 C13.223,19.941 14.526,17.452 16.133,16.524 L29.714,8.683 C31.321,7.755 32.624,8.74 32.624,10.883 L32.624,13.044 L21.745,19.325 C19.833,20.429 18.335,23.252 18.335,25.751 L18.335,25.751 Z M12.223,22.084 L12.223,34.046 L10.022,35.316 C8.415,36.245 7.112,35.26 7.112,33.117 L7.112,18.417 C7.112,16.274 8.415,13.785 10.022,12.857 L23.602,5.016 C25.21,4.088 26.512,5.073 26.512,7.216 L26.512,9.377 L15.633,15.658 C13.721,16.762 12.223,19.585 12.223,22.084 L12.223,22.084 Z M6.112,18.417 L6.112,30.379 L3.91,31.649 C2.303,32.578 1,31.593 1,29.45 L1,14.75 C1,12.607 2.303,10.118 3.91,9.19 L17.491,1.349 C19.098,0.421 20.401,1.406 20.401,3.549 L20.401,5.71 L9.522,11.991 C7.609,13.095 6.112,15.918 6.112,18.417 L6.112,18.417 Z M36.981,11.001 L36.981,11.001 C36.438,11.001 35.881,11.164 35.326,11.484 L33.624,12.466 L33.624,10.883 C33.624,8.432 32.241,7.334 30.87,7.334 C30.326,7.334 29.769,7.497 29.214,7.817 L27.512,8.799 L27.512,7.216 C27.512,4.765 26.129,3.667 24.757,3.667 C24.215,3.667 23.658,3.83 23.102,4.15 L21.401,5.132 L21.401,3.549 C21.401,1.098 20.017,0 18.646,0 C18.103,0 17.546,0.163 16.991,0.483 L3.41,8.324 C1.498,9.428 0,12.251 0,14.75 L0,29.45 C0,31.901 1.383,32.999 2.755,32.999 C3.298,32.999 3.855,32.837 4.41,32.516 L6.112,31.533 L6.112,33.117 C6.112,35.568 7.495,36.666 8.866,36.666 C9.41,36.666 9.966,36.504 10.522,36.183 L12.223,35.2 L12.223,36.784 C12.223,39.235 13.607,40.333 14.978,40.333 C15.521,40.333 16.078,40.17 16.633,39.85 L18.335,38.867 L18.335,40.451 C18.335,42.902 19.718,44 21.09,44 C21.632,44 22.19,43.838 22.745,43.517 L36.326,35.676 C38.238,34.572 39.736,31.749 39.736,29.25 L39.736,14.55 C39.736,12.099 38.352,11.001 36.981,11.001 L36.981,11.001 Z" id="path-3"></path>
    </defs>
    <g id="TRANSPORTDATA" stroke="none" stroke-width="1" fill="none" fill-rule="evenodd">
        <g id="DATA-PORTAL-DETALJ-én-distribusjon-(D)" transform="translate(-359.000000, -153.000000)">
            <g id="katalig" transform="translate(55.000000, 153.000000)">
                <g id="nap-datasett-ikon" transform="translate(304.000000, 0.000000)">
                    <g id="fyll">
                        <mask id="mask-2" fill="white">
                            <use xlink:href="#path-1"></use>
                        </mask>
                        <use id="Mask" fill="#D2EBFF" xlink:href="#path-1"></use>
                        <g id="farger" mask="url(#mask-2)">
                            <g transform="translate(-4.000000, -2.000000)">
                                <rect id="Rectangle" fill="#FFFFFF" x="0" y="0" width="48" height="48"></rect>
                                <g id="farge" stroke-width="1" fill="none">
                                    <rect id="NAP" fill="#DADADA" x="0" y="0" width="48" height="48"></rect>
                                </g>
                            </g>
                        </g>
                    </g>
                    <g id="strek">
                        <mask id="mask-4" fill="white">
                            <use xlink:href="#path-3"></use>
                        </mask>
                        <use id="Mask" fill="#0069A5" xlink:href="#path-3"></use>
                        <g id="farger" mask="url(#mask-4)">
                            <g transform="translate(-4.000000, -2.000000)" id="farge">
                                <g>
                                    <rect id="NAP" fill="#444F55" x="0" y="0" width="48" height="48"></rect>
                                </g>
                            </g>
                        </g>
                    </g>
                </g>
            </g>
        </g>
    </g>
</svg>