<svg id="outline" xmlns="http://www.w3.org/2000/svg" viewBox="0 0 64 64"><defs><style>.cls-1{fill:#e3b1e3;}.cls-2{fill:#c864c8;}</style></defs><title>icon-catalogue-api-2</title><path class="cls-1" d="M42.09,32A10.09,10.09,0,1,1,32,21.91,10.09,10.09,0,0,1,42.09,32ZM61,36.64V26.2l-8.45-2.11a22.63,22.63,0,0,0-1-2.25l4.24-7.07L48.4,7.39,41,11.87A21.57,21.57,0,0,0,38.64,11l-2-8H26.2l-2.11,8.45a22.63,22.63,0,0,0-2.25,1L14.77,8.21,7.39,15.6l4.48,7.45A21.57,21.57,0,0,0,11,25.36l-8,2V37.8l8.45,2.11a22.63,22.63,0,0,0,1,2.25L8.21,49.23l7.39,7.38,7.45-4.48a21.57,21.57,0,0,0,2.31.89l2,8H37.8l2.11-8.45a22.63,22.63,0,0,0,2.25-1l7.07,4.24,7.38-7.39L52.13,41A21.57,21.57,0,0,0,53,38.64Z"/><path class="cls-2" d="M37.8,62H27.36a1,1,0,0,1-1-.76L24.53,53.8c-.45-.16-.92-.34-1.4-.55l-7,4.21a1,1,0,0,1-1.22-.15L7.51,49.93a1,1,0,0,1-.15-1.22l4-6.59c-.21-.44-.41-.89-.6-1.36l-8-2a1,1,0,0,1-.76-1V27.36a1,1,0,0,1,.76-1l7.44-1.86c.16-.45.34-.92.55-1.4l-4.21-7a1,1,0,0,1,.15-1.22l7.38-7.38a1,1,0,0,1,1.22-.15l6.59,4c.44-.21.89-.41,1.36-.6l2-8a1,1,0,0,1,1-.76H36.64a1,1,0,0,1,1,.76l1.86,7.44c.45.16.92.34,1.4.55l7-4.21a1,1,0,0,1,1.22.15l7.38,7.38a1,1,0,0,1,.15,1.22l-4,6.59c.21.44.41.89.6,1.36l8,2a1,1,0,0,1,.76,1V36.64a1,1,0,0,1-.76,1L53.8,39.47c-.16.45-.34.92-.55,1.4l4.21,7a1,1,0,0,1-.15,1.22l-7.38,7.38a1,1,0,0,1-1.22.15l-6.59-4c-.44.21-.89.41-1.36.6l-2,8A1,1,0,0,1,37.8,62Zm-9.66-2H37l1.92-7.69a1,1,0,0,1,.61-.69,20.64,20.64,0,0,0,2.15-1,1,1,0,0,1,1,0l6.4,3.84,6.28-6.28-4.08-6.79a1,1,0,0,1-.05-.92,21,21,0,0,0,.85-2.21,1,1,0,0,1,.71-.66L60,35.86V27l-7.69-1.92a1,1,0,0,1-.69-.61,20.64,20.64,0,0,0-1-2.15,1,1,0,0,1,0-1l3.84-6.4L48.25,8.65l-6.79,4.08a1,1,0,0,1-.92,0,21,21,0,0,0-2.21-.85,1,1,0,0,1-.66-.71L35.86,4H27l-1.92,7.69a1,1,0,0,1-.61.69,20.64,20.64,0,0,0-2.15,1,1,1,0,0,1-1,0l-6.4-3.84L8.65,15.75l4.08,6.79a1,1,0,0,1,0,.92,21,21,0,0,0-.85,2.21,1,1,0,0,1-.71.66L4,28.14V37l7.69,1.92a1,1,0,0,1,.69.61,20.64,20.64,0,0,0,1,2.15,1,1,0,0,1,0,1l-3.84,6.4,6.28,6.28,6.79-4.08a1,1,0,0,1,.92-.05,21,21,0,0,0,2.21.85,1,1,0,0,1,.66.71ZM61,36.64h0ZM32,43.09A11.09,11.09,0,1,1,43.09,32,11.1,11.1,0,0,1,32,43.09Zm0-20.18A9.09,9.09,0,1,0,41.09,32,9.1,9.1,0,0,0,32,22.91Z"/></svg>