<svg id="outline" xmlns="http://www.w3.org/2000/svg" viewBox="0 0 32 32"><defs><style>.cls-1{fill:#007d69;}.cls-2{fill:#d9ebe8;}</style></defs><title>icon-dataset-public-md</title><path class="cls-1" d="M2.69,14H16V8.5a7.5,7.5,0,0,1,15,0V10a1,1,0,0,1-2,0V8.5a5.5,5.5,0,0,0-11,0V14h1.31A1.69,1.69,0,0,1,21,15.69V29.31A1.69,1.69,0,0,1,19.31,31H2.69A1.69,1.69,0,0,1,1,29.31V15.69A1.69,1.69,0,0,1,2.69,14Z"/><path class="cls-2" d="M19.31,15H2.69a.69.69,0,0,0-.69.69V29.31a.69.69,0,0,0,.69.69H19.31a.69.69,0,0,0,.69-.69V15.69A.69.69,0,0,0,19.31,15Zm-4,5.14-5,6a1,1,0,0,1-.73.36h0a1,1,0,0,1-.71-.29l-2-2a1,1,0,1,1,1.42-1.42L9.43,24l4.3-5.16a1,1,0,0,1,1.54,1.28Z"/></svg>