<svg id="outline" xmlns="http://www.w3.org/2000/svg" viewBox="0 0 32 32"><defs><style>.cls-1{fill:#ffebf0;}.cls-2{fill:#d70a5a;}</style></defs><title>icon-api-license-not-open</title><polygon class="cls-1" points="23.5 30.5 1.5 30.5 1.5 4.5 8.5 4.5 8.5 27.5 23.5 27.5 23.5 30.5"/><path class="cls-2" d="M8.5,10h-3a.5.5,0,0,1,0-1h3a.5.5,0,0,1,0,1Z"/><path class="cls-2" d="M8.5,15h-3a.5.5,0,0,1,0-1h3a.5.5,0,0,1,0,1Z"/><path class="cls-2" d="M8.5,18h-3a.5.5,0,0,1,0-1h3a.5.5,0,0,1,0,1Z"/><path class="cls-2" d="M8.5,21h-3a.5.5,0,0,1,0-1h3a.5.5,0,0,1,0,1Z"/><path class="cls-2" d="M8.5,24h-3a.5.5,0,0,1,0-1h3a.5.5,0,0,1,0,1Z"/><path class="cls-2" d="M8.5,27h-3a.5.5,0,0,1,0-1h3a.5.5,0,0,1,0,1Z"/><polygon class="cls-1" points="30.5 27.5 8.5 27.5 8.5 1.5 23.5 1.5 30.5 8.5 30.5 27.5"/><path class="cls-2" d="M31,8.31a.36.36,0,0,0-.11-.16l-7-7A.36.36,0,0,0,23.69,1a.41.41,0,0,0-.19,0H8.5a.5.5,0,0,0-.5.5V4H1.5a.5.5,0,0,0-.5.5v26a.5.5,0,0,0,.5.5h22a.5.5,0,0,0,.5-.5V28h6.5a.5.5,0,0,0,.5-.5V8.5A.41.41,0,0,0,31,8.31Zm-7-5.6L29.29,8H24ZM23,30H2V5H8V27.5a.5.5,0,0,0,.5.5H23Zm.5-3H9V2H23V8.5a.5.5,0,0,0,.5.5H30V27Z"/><path class="cls-2" d="M18.5,7h-6a.5.5,0,0,1,0-1h6a.5.5,0,0,1,0,1Z"/><path class="cls-2" d="M26.5,12h-14a.5.5,0,0,1,0-1h14a.5.5,0,0,1,0,1Z"/><path class="cls-2" d="M26.5,15h-14a.5.5,0,0,1,0-1h14a.5.5,0,0,1,0,1Z"/><path class="cls-2" d="M26.5,18h-14a.5.5,0,0,1,0-1h14a.5.5,0,0,1,0,1Z"/><path class="cls-2" d="M26.5,21h-14a.5.5,0,0,1,0-1h14a.5.5,0,0,1,0,1Z"/><path class="cls-2" d="M22.5,24h-10a.5.5,0,0,1,0-1h10a.5.5,0,0,1,0,1Z"/></svg>