<?xml version="1.0" encoding="utf-8"?>
<!-- Generator: Adobe Illustrator 23.0.1, SVG Export Plug-In . SVG Version: 6.00 Build 0)  -->
<svg version="1.1" id="outline" xmlns="http://www.w3.org/2000/svg" xmlns:xlink="http://www.w3.org/1999/xlink" x="0px" y="0px"
	 viewBox="0 0 64 64" style="enable-background:new 0 0 64 64;" xml:space="preserve">
<style type="text/css">
	.st0{fill:#FFCAB1;}
	.st1{fill:#FF9664;}
</style>
<path class="st0" d="M58.3,49.4c-0.8,0-1.6-0.3-2.1-0.9L32.4,25.6l-1.6,1.6c0.4,1.3,0.1,2.7-0.9,3.7l-2.2,2.2
	C27,33.9,26,34.3,25,34.3c-1,0-1.9-0.4-2.6-1.1l-7.5-7.5c-1.5-1.5-1.4-3.8,0-5.3l2.2-2.2c0.7-0.7,1.6-1.1,2.6-1.1
	c0.4,0,0.8,0.1,1.1,0.2l7.9-7.9c-0.4-1.3-0.1-2.7,0.9-3.7l2.6-2.6C33,2.4,33.9,2,34.9,2c1,0,1.9,0.4,2.6,1.1l7.5,7.5
	c0.7,0.7,1.1,1.6,1.1,2.6c0,1-0.4,1.9-1.1,2.6l-2.6,2.6c-0.7,0.7-1.6,1.1-2.6,1.1c-0.4,0-0.8-0.1-1.1-0.2l-1.2,1.2l23,23.7
	c1.2,1.2,1.2,3.1,0,4.2C59.8,49.1,59.1,49.4,58.3,49.4z"/>
<title>icon-catalogue-protokoll-2</title>
<rect x="7.6" y="51.7" class="st0" width="22.7" height="3.7"/>
<rect x="8.1" y="52.2" class="st0" width="21.7" height="2.7"/>
<rect x="3.5" y="56.5" class="st0" width="30.9" height="3.7"/>
<rect x="4" y="57" class="st0" width="29.9" height="2.7"/>
<g>
	<path class="st1" d="M61.1,43.6C61.1,43.6,61.1,43.6,61.1,43.6L38.5,21l0.5-0.5c0.3,0,0.5,0.1,0.8,0.1c1.2,0,2.4-0.5,3.3-1.4
		l2.6-2.6c1.8-1.8,1.8-4.8,0-6.7l-7.5-7.5C37.4,1.5,36.2,1,34.9,1c-1.3,0-2.5,0.5-3.3,1.4L29,5c-1.1,1.1-1.6,2.6-1.3,4.1l-7.1,7.1
		c-0.3,0-0.5-0.1-0.8-0.1c-1.2,0-2.4,0.5-3.3,1.4l-2.2,2.2c-1.8,1.8-1.8,4.8,0,6.7l7.5,7.5c1.8,1.8,4.8,1.9,6.7,0c0,0,0,0,0,0
		l2.2-2.2c1.1-1.1,1.6-2.6,1.3-4.1l0.9-0.9l22.6,22.6c1.6,1.6,4.1,1.6,5.7,0c0,0,0,0,0,0C62.7,47.7,62.7,45.2,61.1,43.6z M29.6,27
		c0.6,1.1,0.4,2.4-0.4,3.3L27,32.5c-1.1,1.1-2.8,1.1-3.8,0c0,0,0,0,0,0L15.6,25c-1.1-1.1-1.1-2.8,0-3.8c0,0,0,0,0,0l2.2-2.2
		c0.9-0.9,2.2-1,3.3-0.4L30,9.7c-0.6-1.1-0.4-2.4,0.4-3.3L33,3.8C33.5,3.3,34.2,3,34.9,3c0.7,0,1.4,0.3,1.9,0.8l7.5,7.5
		c1.1,1.1,1.1,2.8,0,3.8l-2.6,2.6c-0.5,0.5-1.2,0.8-1.9,0.8c-0.5,0-0.9-0.1-1.3-0.3L29.6,27z M32.8,23.8L32.8,23.8L32.8,23.8
		L32.8,23.8z M59.7,47.8C59.7,47.8,59.7,47.8,59.7,47.8c-0.8,0.8-2,0.8-2.8,0L34.2,25.2l2.8-2.8L59.7,45
		C60.5,45.8,60.5,47,59.7,47.8z"/>
	<path class="st1" d="M33.9,55h-2.1c0,0,0-0.1,0-0.1v-2.7c0-1.1-0.9-2-2-2H8.1c-1.1,0-2,0.9-2,2v2.7c0,0,0,0.1,0,0.1H4
		c-1.1,0-2,0.9-2,2v2.7c0,1.1,0.9,2,2,2h29.9c1.1,0,2-0.9,2-2V57C35.9,55.9,35,55,33.9,55z M8.1,52.2h21.7v2.7H8.1V52.2z M33.9,59.7
		H4V57h29.9V59.7z"/>
</g>
</svg>
