<svg id="outline" xmlns="http://www.w3.org/2000/svg" viewBox="0 0 32 32"><defs><style>.cls-1{fill:#c4ebfa;}.cls-2{fill:#0069a5;}</style></defs><title>icon-report-dataset</title><path class="cls-1" d="M15.05,17.34,6,22.59c-1.08.62-1.95,0-1.95-1.47V11.27A4.66,4.66,0,0,1,6,7.54l9.1-5.25c1.08-.63,1.95,0,1.95,1.47v9.85A4.68,4.68,0,0,1,15.05,17.34Z"/><path class="cls-2" d="M15.82,2.05c.7,0,1.18.64,1.18,1.71v9.85a4.68,4.68,0,0,1-1.95,3.73L6,22.59a1.56,1.56,0,0,1-.77.23c-.7,0-1.18-.64-1.18-1.7V11.27A4.66,4.66,0,0,1,6,7.54l9.1-5.25a1.59,1.59,0,0,1,.77-.24m0-1h0a2.57,2.57,0,0,0-1.27.37L5.45,6.67A5.61,5.61,0,0,0,3,11.27v9.85c0,1.86,1.13,2.7,2.18,2.7a2.56,2.56,0,0,0,1.27-.36l9.1-5.26A5.59,5.59,0,0,0,18,13.61V3.76c0-1.86-1.13-2.71-2.18-2.71Z"/><path class="cls-1" d="M19.05,19.78,10,25C8.87,25.66,8,25,8,23.56V13.71A4.68,4.68,0,0,1,10,10l9.1-5.25C20.13,4.11,21,4.77,21,6.2v9.85A4.66,4.66,0,0,1,19.05,19.78Z"/><path class="cls-2" d="M19.82,4.5c.7,0,1.18.64,1.18,1.7v9.85a4.66,4.66,0,0,1-1.95,3.73L10,25a1.59,1.59,0,0,1-.77.24c-.7,0-1.18-.64-1.18-1.71V13.71A4.68,4.68,0,0,1,10,10l9.1-5.25a1.56,1.56,0,0,1,.77-.23m0-1h0a2.56,2.56,0,0,0-1.27.36L9.45,9.12A5.59,5.59,0,0,0,7,13.71v9.85c0,1.86,1.13,2.71,2.18,2.71a2.57,2.57,0,0,0,1.27-.37l9.1-5.25A5.61,5.61,0,0,0,22,16.05V6.2c0-1.86-1.13-2.7-2.18-2.7Z"/><path class="cls-1" d="M23.05,22.22,14,27.48C12.87,28.1,12,27.44,12,26V16.15A4.66,4.66,0,0,1,14,12.43l9.1-5.26c1.08-.62,1.95,0,1.95,1.48V18.5A4.66,4.66,0,0,1,23.05,22.22Z"/><path class="cls-2" d="M23.82,6.94c.7,0,1.18.64,1.18,1.71V18.5a4.66,4.66,0,0,1-1.95,3.72L14,27.48a1.56,1.56,0,0,1-.77.23c-.7,0-1.18-.64-1.18-1.71V16.15A4.66,4.66,0,0,1,14,12.43l9.1-5.26a1.68,1.68,0,0,1,.77-.23m0-1h0a2.47,2.47,0,0,0-1.27.37l-9.1,5.25A5.6,5.6,0,0,0,11,16.15V26c0,1.87,1.13,2.71,2.18,2.71a2.47,2.47,0,0,0,1.27-.37l9.1-5.25A5.6,5.6,0,0,0,26,18.5V8.65c0-1.86-1.13-2.71-2.18-2.71Z"/><path class="cls-1" d="M27.05,24.67,18,29.92c-1.08.63-1.95,0-1.95-1.47V18.6A4.68,4.68,0,0,1,18,14.87l9.1-5.25C28.13,9,29,9.66,29,11.09v9.85A4.66,4.66,0,0,1,27.05,24.67Z"/><path class="cls-2" d="M27.82,9.39c.7,0,1.18.63,1.18,1.7v9.85a4.66,4.66,0,0,1-1.95,3.73L18,29.92a1.59,1.59,0,0,1-.77.24c-.7,0-1.18-.64-1.18-1.71V18.6A4.68,4.68,0,0,1,18,14.87l9.1-5.25a1.56,1.56,0,0,1,.77-.23m0-1h0a2.56,2.56,0,0,0-1.27.36L17.45,14A5.59,5.59,0,0,0,15,18.6v9.85c0,1.86,1.13,2.71,2.18,2.71a2.57,2.57,0,0,0,1.27-.37l9.1-5.25A5.62,5.62,0,0,0,30,20.94V11.09c0-1.86-1.13-2.7-2.18-2.7Z"/></svg>