<?xml version="1.0" encoding="UTF-8"?>
<svg width="407px" height="223px" viewBox="0 0 407 223" version="1.1" xmlns="http://www.w3.org/2000/svg" xmlns:xlink="http://www.w3.org/1999/xlink">
    <!-- Generator: Sketch 60 (88103) - https://sketch.com -->
    <title>stripes</title>
    <desc>Created with Sketch.</desc>
    <g id="TRANSPORTDATA" stroke="none" stroke-width="1" fill="none" fill-rule="evenodd">
        <g id="TRAFIKK-SØK-default-(D)" transform="translate(-873.000000, -80.000000)">
            <g id="søkefelt" transform="translate(0.000000, 80.000000)">
                <g id="bg-search">
                    <g id="FDK-illustrasjon-grey">
                        <g id="stripes" transform="translate(873.000000, -1.000000)">
                            <g id="light-tones" transform="translate(119.000000, 11.000000)" fill="#DADADA">
                                <path d="M196.399679,160.625446 L128.157789,199.867066 C122.218676,203.282119 120.17659,210.85885 123.595922,216.789497 C125.892365,220.772522 130.066494,223 134.359529,223 C136.459518,223 138.589492,222.46714 140.539556,221.345656 L208.781446,182.104037 C214.720559,178.688983 216.761611,171.112253 213.343313,165.181605 C209.922947,159.248892 202.334655,157.210393 196.399679,160.625446" id="Fill-25"></path>
                                <path d="M75.2037728,2.29495273 L6.86306559,41.7654748 C0.977503826,45.1644785 -1.02303261,52.6641433 2.3957486,58.5184369 C4.68178253,62.4352576 8.81533446,64.620915 13.063907,64.620915 C15.1640594,64.620915 17.292967,64.0867567 19.241128,62.9612453 L87.5818353,23.4917445 C93.467397,20.0927408 95.4669065,12.5920547 92.0491523,6.7387824 C88.632425,0.884488749 81.0903615,-1.10711499 75.2037728,2.29495273" id="Fill-20"></path>
                            </g>
                            <g id="midtones" fill="#F2F2F2">
                                <path d="M346.782092,154.236489 C340.923807,157.63281 338.923716,165.143592 342.316107,171.010431 C344.588938,174.941776 348.704549,177.138132 352.93559,177.138132 C355.019444,177.138132 357.1319,176.605155 359.065594,175.48396 L407.063696,147.65458 L407.063696,119.286086 L346.782092,154.236489 Z" id="Fill-8"></path>
                                <path d="M282.669714,76.1144332 L271.156799,82.8128775 C265.2941,86.2238744 263.284703,93.7799584 266.670133,99.6897448 C268.941048,103.653626 273.060976,105.869281 277.29736,105.869281 C279.377245,105.869281 281.485732,105.335959 283.415448,104.212688 L294.928363,97.5142433 C300.791062,94.1032464 302.800459,86.5471624 299.41605,80.637376 C296.03062,74.7275896 288.531391,72.7034363 282.669714,76.1144332" id="Fill-13"></path>
                                <path d="M216.575534,57.1958073 C210.659237,60.6148361 208.635567,68.1816408 212.05786,74.0961381 C214.351766,78.0583771 218.50947,80.2745098 222.783726,80.2745098 C224.886817,80.2745098 227.017757,79.7374842 228.969227,78.6098334 L364.991453,0 L315.543547,0 L216.575534,57.1958073 Z" id="Fill-1"></path>
                                <path d="M12.4463757,31.4117647 C14.555946,31.4117647 16.6945281,30.8697504 18.6528227,29.731416 L69.7435897,0 L20.008087,0 L6.21920607,8.02369134 C0.271792765,11.4846458 -1.7652481,19.1501273 1.66746624,25.1436148 C3.97079372,29.1643374 8.14952506,31.4117647 12.4463757,31.4117647 Z" id="Fill-18"></path>
                                <path d="M221.64116,11.2600537 C223.938929,15.2359424 228.134225,17.4626866 232.4498,17.4626866 C234.546411,17.4626866 236.672055,16.9368134 238.621426,15.830631 L266.530612,0 L221.139301,0 C219.525885,3.49212648 219.567361,7.67343438 221.64116,11.2600537" id="Fill-11"></path>
                            </g>
                            <g id="dark-tones" transform="translate(309.000000, 4.000000)" fill="#444F55">
                                <path d="M13.4829293,220.260777 C7.61281164,223.688805 5.61310124,231.259335 9.01762612,237.168946 C11.2968659,241.126901 15.4201807,243.337335 19.6571504,243.337335 C21.7490133,243.337335 23.8705699,242.798129 25.8098692,241.666107 L98.6308646,199.145155 L98.6308646,170.541481 L13.4829293,220.260777 Z" id="Fill-22"></path>
                                <path d="M6.22723586,52.4939276 C0.290669937,55.8660541 -1.76012497,63.3648945 1.64547503,69.2420876 C3.93583913,73.1949806 8.11074538,75.407619 12.4044036,75.407619 C14.4965035,75.407619 16.617517,74.8820663 18.5598862,73.777792 L98.6234976,28.2919162 L98.6234976,0 L6.22723586,52.4939276 Z" id="Fill-3"></path>
                            </g>
                            <g id="white" transform="translate(107.000000, 0.000000)" fill="#FFFFFF">
                                <path d="M170.251692,135.994986 C164.360873,139.38275 162.348999,146.873588 165.757581,152.726666 C168.042635,156.649126 172.181407,158.840969 176.435202,158.840969 C178.53129,158.840969 180.65408,158.309335 182.597146,157.191985 L300.071523,89.647916 L300.071523,61.3519177 L170.251692,135.994986 Z" id="Fill-6"></path>
                                <path d="M1.65566122,20.0344464 C3.94268205,23.9871275 8.09182959,26.1965222 12.3582602,26.1965222 C14.4528956,26.1965222 16.5763373,25.6636802 18.520768,24.5446095 L61.1202602,5.32907052e-15 L11.7368655,5.32907052e-15 L6.17517651,3.20423835 C0.269868578,6.60662409 -1.75275083,14.1423849 1.65566122,20.0344464" id="Fill-15"></path>
                            </g>
                        </g>
                    </g>
                </g>
            </g>
        </g>
    </g>
</svg>