<svg id="crop" xmlns="http://www.w3.org/2000/svg" viewBox="0 0 500 500"><defs><style>.cls-1{fill:#00c3ff;}.cls-2{fill:#0e8ab2;}.cls-3{fill:#07a6d9;}.cls-4{fill:#156d8c;}</style></defs><title>illustration</title><path class="cls-1" d="M330.45,279.46l-49.16,28.38a10.76,10.76,0,1,0,10.76,18.63l49.16-28.38a10.76,10.76,0,1,0-10.76-18.63Z"/><path class="cls-1" d="M463.94,450.8a10.76,10.76,0,0,0-3.85,14.84A11,11,0,0,0,475,469.23l24.77-14.3V430.09Z"/><polygon class="cls-2" points="499.8 479.77 465.11 499.8 499.8 499.8 499.8 479.77"/><path class="cls-1" d="M474,196.56l-102.23,59a10.76,10.76,0,1,0,10.76,18.63l102.22-59A10.75,10.75,0,0,0,474,196.56Z"/><path class="cls-1" d="M469.65,298.46l-102.23,59a10.76,10.76,0,1,0,10.76,18.63l102.22-59a10.75,10.75,0,1,0-10.75-18.63Z"/><path class="cls-2" d="M496.87,133.7,310.79,241.13a10.76,10.76,0,1,0,10.76,18.63L499.8,156.84v-24.3A10.41,10.41,0,0,0,496.87,133.7Z"/><path class="cls-3" d="M420.91,376.27a10.76,10.76,0,0,0,10.76,18.63l68.13-39.33V330.73Z"/><path class="cls-1" d="M389.77,145.85a10.76,10.76,0,0,0,10.76,18.63l99.27-57.32V82.32Z"/><path class="cls-1" d="M400.43,288.74a10.75,10.75,0,1,0,10.75,18.63l88.62-51.16V231.37Z"/><path class="cls-1" d="M344.36,172.07l-61.69,35.61a10.76,10.76,0,1,0,10.76,18.63l61.69-35.61a10.76,10.76,0,0,0-10.76-18.63Z"/><path class="cls-3" d="M246.53,228.55l-13.34,7.7a10.75,10.75,0,1,0,10.75,18.63l13.35-7.7a10.76,10.76,0,1,0-10.76-18.63Z"/><path class="cls-1" d="M386.38,396.21,365,408.57a10.76,10.76,0,1,0,10.76,18.63l21.4-12.36a10.76,10.76,0,1,0-10.76-18.63Z"/><path class="cls-3" d="M325.43,83.63,212.09,149.07a10.76,10.76,0,0,0,10.76,18.63l113.34-65.44a10.76,10.76,0,1,0-10.76-18.63Z"/><path class="cls-1" d="M175.82,170l-39.61,22.87A10.76,10.76,0,1,0,147,211.51l39.61-22.87A10.76,10.76,0,1,0,175.82,170Z"/><path class="cls-1" d="M350.63,317.49l-78.3,45.21a10.76,10.76,0,1,0,10.76,18.63l78.3-45.21a10.76,10.76,0,0,0-10.76-18.63Z"/><path class="cls-1" d="M151.57,47.39a10.76,10.76,0,0,0,14.7,3.93L255.16,0h-43L155.51,32.69A10.76,10.76,0,0,0,151.57,47.39Z"/><path class="cls-1" d="M264.54,31.85a10.76,10.76,0,0,0,14.69,3.93L341.21,0h-43L268.48,17.15A10.76,10.76,0,0,0,264.54,31.85Z"/><path class="cls-1" d="M311.53,54.4a10.76,10.76,0,0,0,14.69,3.94L427.26,0h-43L315.46,39.71A10.74,10.74,0,0,0,311.53,54.4Z"/><path class="cls-4" d="M123.43,51.21,71.69,81.09A10.76,10.76,0,1,0,82.45,99.72l51.73-29.87a10.76,10.76,0,0,0-10.75-18.64Z"/><path class="cls-1" d="M236.19,35.8,157.36,81.31a10.75,10.75,0,1,0,10.75,18.63l78.82-45.51A10.75,10.75,0,0,0,236.19,35.8Z"/><path class="cls-1" d="M70.42,44.56A10.76,10.76,0,0,0,85.11,48.5l84-48.5h-43L74.36,29.87A10.75,10.75,0,0,0,70.42,44.56Z"/><path class="cls-1" d="M264.13,69.34l-113,65.27a10.75,10.75,0,1,0,10.75,18.63L274.89,88a10.76,10.76,0,1,0-10.76-18.63Z"/><path class="cls-1" d="M477.82,393.1,366.19,457.55a10.75,10.75,0,1,0,10.75,18.63l111.64-64.45a10.76,10.76,0,1,0-10.76-18.63Z"/><path class="cls-1" d="M310.58,141.89,207.1,201.63a10.76,10.76,0,1,0,10.76,18.63l103.48-59.74a10.76,10.76,0,1,0-10.76-18.63Z"/><path class="cls-3" d="M458.07,56.74,354.59,116.48a10.75,10.75,0,1,0,10.75,18.63L468.82,75.37a10.75,10.75,0,1,0-10.75-18.63Z"/><path class="cls-1" d="M422,27.86l-64.4,37.19a10.75,10.75,0,1,0,10.75,18.63l64.4-37.19A10.75,10.75,0,1,0,422,27.86Z"/><path class="cls-1" d="M493.08,36.52a10.76,10.76,0,0,0,6.72,20V32.64Z"/><path class="cls-1" d="M470.29,0l-14,8.08a10.76,10.76,0,0,0,10.76,18.63L499.8,7.8V0Z"/></svg>