<svg id="outline" xmlns="http://www.w3.org/2000/svg" viewBox="0 0 1280 275"><defs><style>.cls-1{fill:#c4ebfa;}.cls-2{fill:#3cbef0;}.cls-3{fill:#0069a5;}.cls-4{fill:#fff;}.cls-5{fill:#8ad8f6;}</style></defs><title>illustration-search</title><rect class="cls-1" width="1280" height="275"/><path class="cls-2" d="M1095.12,55.49a12,12,0,1,0,12,20.77L1239,0h-47.94Z"/><path class="cls-3" d="M1190.52,55.83a12,12,0,0,0,12,20.82L1280,32.16V4.49Z"/><path class="cls-4" d="M1153.59,132.58a12,12,0,1,0,12,20.77L1280,87.16V59.43Z"/><path class="cls-2" d="M1221,149.62a12,12,0,1,0,12,20.76l47-27.2V115.45Z"/><path class="cls-2" d="M1099.59,11A12,12,0,0,0,1110,17a11.91,11.91,0,0,0,6-1.59L1142.88,0H1099.1A12,12,0,0,0,1099.59,11Z"/><path class="cls-2" d="M1158.84,74.13l-11.27,6.5a12,12,0,1,0,12,20.79l11.27-6.51a12,12,0,0,0-12-20.78Z"/><path class="cls-4" d="M989.43,19.51a12,12,0,0,0,16.39,4.4L1047.23,0h-48l-5.41,3.12A12,12,0,0,0,989.43,19.51Z"/><path class="cls-2" d="M885.53,24.08a12,12,0,0,0,16.39,4.39L951.23,0h-48L889.92,7.68A12,12,0,0,0,885.53,24.08Z"/><path class="cls-3" d="M1073,12.62l-66.54,38.65A12,12,0,1,0,1018.48,72L1085,33.38A12,12,0,0,0,1073,12.62Z"/><path class="cls-2" d="M1196.84,218.46a12,12,0,1,0,12,20.76L1280,198V170.24Z"/><path class="cls-5" d="M1190,166.6l-66,38a12,12,0,0,0,12,20.8l66-38a12,12,0,1,0-12-20.8Z"/></svg>