<?xml version="1.0" encoding="utf-8"?>
<!-- Generator: Adobe Illustrator 23.0.1, SVG Export Plug-In . SVG Version: 6.00 Build 0)  -->
<svg version="1.1" id="Layer_1" xmlns="http://www.w3.org/2000/svg" xmlns:xlink="http://www.w3.org/1999/xlink" x="0px" y="0px"
	 viewBox="0 0 358 149" style="enable-background:new 0 0 358 149;" xml:space="preserve">
<style type="text/css">
	.st0{fill:#156D8C;}
	.st1{fill:#0E8AB2;}
	.st2{fill:#07A6D9;}
	.st3{fill:#00C3FF;}
	.st4{fill:#233741;}
</style>
<g>
	<path class="st0" d="M67.46,23.65l-35.69,20.6c-4.22,2.44-7.65,8.98-7.65,14.61V97.5c0,5.63,3.42,8.22,7.65,5.78l0.74-0.43
		c-0.01-0.18-0.01-0.36-0.01-0.55V63.67c0-5.63,3.42-12.17,7.65-14.61L75.1,28.89C74.88,23.64,71.54,21.3,67.46,23.65z"/>
	<path class="st1" d="M80.03,30.86l-35.69,20.6c-4.22,2.44-7.65,8.98-7.65,14.61v38.63c0,5.63,3.42,8.22,7.65,5.78l0.74-0.43
		c-0.01-0.18-0.01-0.36-0.01-0.55V70.88c0-5.63,3.42-12.17,7.65-14.61l34.95-20.18C87.45,30.84,84.11,28.5,80.03,30.86z"/>
	<path class="st2" d="M57.64,78.09c0-5.63,3.42-12.17,7.65-14.61l34.95-20.18c-0.21-5.25-3.55-7.6-7.64-5.24l-35.69,20.6
		c-4.22,2.44-7.65,8.98-7.65,14.61v38.63c0,5.63,3.42,8.22,7.65,5.78l0.74-0.43c-0.01-0.18-0.01-0.36-0.01-0.54V78.09z"/>
	<path class="st3" d="M105.16,104.3l-35.69,20.6c-4.22,2.44-7.65-0.15-7.65-5.78V80.49c0-5.63,3.42-12.17,7.65-14.61l35.69-20.6
		c4.22-2.44,7.65,0.15,7.65,5.78v38.63C112.81,95.32,109.39,101.86,105.16,104.3z"/>
</g>
<g>
	<path class="st4" d="M136.02,56.36c-0.27,0-0.5-0.22-0.5-0.5V30.9c0-0.27,0.22-0.5,0.5-0.5h12.72c0.27,0,0.5,0.22,0.5,0.5v3.46
		c0,0.27-0.22,0.5-0.5,0.5h-8.04v6.97h5.66c0.27,0,0.5,0.22,0.5,0.5v3.46c0,0.27-0.22,0.5-0.5,0.5h-5.66v9.58
		c0,0.27-0.22,0.5-0.5,0.5H136.02z"/>
	<g>
		<path class="st4" d="M152.97,56.36c-0.27,0-0.5-0.22-0.5-0.5V30.9c0-0.27,0.22-0.5,0.5-0.5h13.18c0.27,0,0.5,0.22,0.5,0.5v3.46
			c0,0.27-0.22,0.5-0.5,0.5h-8.5v6.26h6.63c0.27,0,0.5,0.22,0.5,0.5v3.46c0,0.27-0.22,0.5-0.5,0.5h-6.63v6.34h8.5
			c0.27,0,0.5,0.22,0.5,0.5v3.46c0,0.27-0.22,0.5-0.5,0.5H152.97z"/>
	</g>
	<path class="st4" d="M170.9,56.36c-0.27,0-0.5-0.22-0.5-0.5V30.9c0-0.27,0.22-0.5,0.5-0.5h4.19c0.27,0,0.5,0.22,0.5,0.5v21.01h7.36
		c0.27,0,0.5,0.22,0.5,0.5v3.46c0,0.27-0.22,0.5-0.5,0.5H170.9z"/>
	<path class="st4" d="M187.37,56.36c-0.27,0-0.5-0.22-0.5-0.5V30.9c0-0.27,0.22-0.5,0.5-0.5h4.19c0.27,0,0.5,0.22,0.5,0.5v21.01
		h7.36c0.27,0,0.5,0.22,0.5,0.5v3.46c0,0.27-0.22,0.5-0.5,0.5H187.37z"/>
	<path class="st4" d="M203.85,56.36c-0.27,0-0.5-0.22-0.5-0.5V30.9c0-0.27,0.22-0.5,0.5-0.5h13.18c0.27,0,0.5,0.22,0.5,0.5v3.46
		c0,0.27-0.22,0.5-0.5,0.5h-8.5v6.26h6.63c0.27,0,0.5,0.22,0.5,0.5v3.46c0,0.27-0.22,0.5-0.5,0.5h-6.63v6.34h8.5
		c0.27,0,0.5,0.22,0.5,0.5v3.46c0,0.27-0.22,0.5-0.5,0.5H203.85z"/>
	<path class="st4" d="M227.34,56.53c-2.23,0-4.55-0.57-5.98-1.11c-0.23-0.08-0.36-0.32-0.31-0.55l0.59-3.29
		c0.03-0.14,0.11-0.26,0.23-0.33c0.08-0.05,0.17-0.07,0.26-0.07c0.05,0,0.1,0.01,0.14,0.02c1.63,0.48,3.02,0.81,4.52,0.81h0.51
		c1,0,1.77-0.28,2.29-0.84c0.51-0.51,0.76-1.29,0.72-2.23c0-0.73-0.3-1.24-0.6-1.64c-0.34-0.37-0.81-0.71-1.53-1.09
		c-0.44-0.25-0.9-0.5-1.37-0.76c-1.76-0.94-3.57-1.92-4.74-3.4c-0.98-1.31-1.4-2.75-1.4-4.83c0-1.82,0.59-3.52,1.61-4.66
		c1.25-1.44,3.24-2.23,5.77-2.27l0.31,0c1.74,0,3.55,0.31,5.24,0.91c0.23,0.08,0.37,0.32,0.32,0.56l-0.59,3.22
		c-0.02,0.14-0.1,0.25-0.22,0.33c-0.08,0.05-0.17,0.08-0.27,0.08c-0.04,0-0.08,0-0.12-0.02c-1.48-0.37-2.77-0.62-4.24-0.62
		c-1,0-1.67,0.23-2.12,0.71c-0.43,0.47-0.64,1.15-0.64,2.1c0,0.99,0.43,1.76,1.4,2.48c0.83,0.57,1.82,1.04,2.78,1.49
		c0.89,0.42,1.81,0.85,2.62,1.37c0.65,0.38,1.15,0.8,1.57,1.3c0.96,1.12,1.4,2.55,1.4,4.49c0,2.22-0.46,3.87-1.44,5.21
		C232.87,55.54,230.48,56.48,227.34,56.53C227.35,56.53,227.35,56.53,227.34,56.53z"/>
	<path class="st4" d="M136.02,91.5c-0.27,0-0.5-0.22-0.5-0.5V66.04c0-0.27,0.22-0.5,0.5-0.5l6.88,0c1.12,0,3.9,0.16,5.62,1.68
		c1.03,0.93,1.67,2.13,1.95,3.65c0.25,1.26,0.25,2.69,0.25,4.07v7.18c0,1.36,0,2.77-0.25,4.03c-0.32,1.65-1.03,2.96-2.04,3.78
		c-0.7,0.57-1.58,1-2.59,1.26c-1.04,0.26-2.23,0.29-3.35,0.29H136.02z M142.61,87.05c0.98,0,1.95-0.12,2.46-1.01
		c0.39-0.65,0.42-1.79,0.42-2.81v-9.41c0-1.05-0.03-2.12-0.42-2.81c-0.51-0.89-1.49-1.01-2.46-1.01h-1.91v17.05H142.61z"/>
	<path class="st4" d="M166.4,91.5c-0.24,0-0.45-0.17-0.49-0.41l-0.77-4.3h-5.6l-0.77,4.3c-0.04,0.24-0.25,0.41-0.49,0.41h-4.1
		c-0.27,0-0.5-0.22-0.5-0.5v-0.75c0-0.04,0-0.07,0.01-0.11l5.34-24.21c0.05-0.23,0.25-0.39,0.49-0.39h5.74
		c0.23,0,0.44,0.16,0.49,0.39l5.38,24.42c0.01,0.03,0.01,0.07,0.01,0.11V91c0,0.27-0.22,0.5-0.5,0.5H166.4z M164.33,82.35
		l-1.92-10.76h-0.15l-1.92,10.76H164.33z"/>
	<path class="st4" d="M177.81,91.5c-0.27,0-0.5-0.22-0.5-0.5V70h-5.23c-0.27,0-0.5-0.22-0.5-0.5v-3.46c0-0.27,0.22-0.5,0.5-0.5h15.6
		c0.27,0,0.5,0.22,0.5,0.5v3.46c0,0.27-0.22,0.5-0.5,0.5h-5.19V91c0,0.27-0.22,0.5-0.5,0.5H177.81z"/>
	<path class="st4" d="M201.39,91.5c-0.24,0-0.45-0.17-0.49-0.41l-0.78-4.3h-5.6l-0.78,4.3c-0.04,0.24-0.25,0.41-0.49,0.41h-4.1
		c-0.27,0-0.5-0.22-0.5-0.5v-0.75c0-0.04,0-0.07,0.01-0.11l5.34-24.21c0.05-0.23,0.25-0.39,0.49-0.39h5.74
		c0.23,0,0.44,0.16,0.49,0.39l5.38,24.42c0.01,0.03,0.01,0.07,0.01,0.11V91c0,0.27-0.22,0.5-0.5,0.5H201.39z M199.32,82.35
		l-1.92-10.76h-0.15l-1.92,10.76H199.32z"/>
	<path class="st4" d="M221.11,91.5c-0.18,0-0.35-0.1-0.44-0.27l-5.42-10.36h-0.38V91c0,0.27-0.22,0.5-0.5,0.5h-4.19
		c-0.27,0-0.5-0.22-0.5-0.5V66.04c0-0.27,0.22-0.5,0.5-0.5h4.19c0.27,0,0.5,0.22,0.5,0.5v9.58h0.34l5.17-9.81
		c0.09-0.16,0.26-0.27,0.44-0.27h4.25c0.27,0,0.5,0.22,0.5,0.5v0.71c0,0.09-0.02,0.17-0.07,0.25l-6.21,10.59l6.86,12.7
		c0.04,0.07,0.06,0.15,0.06,0.24V91c0,0.27-0.22,0.5-0.5,0.5H221.11z"/>
	<path class="st4" d="M241.68,91.5c-0.24,0-0.45-0.17-0.49-0.41l-0.78-4.3h-5.6l-0.78,4.3c-0.04,0.24-0.25,0.41-0.49,0.41h-4.1
		c-0.27,0-0.5-0.22-0.5-0.5v-0.75c0-0.04,0-0.07,0.01-0.11l5.34-24.21c0.05-0.23,0.25-0.39,0.49-0.39h5.74
		c0.23,0,0.43,0.16,0.49,0.39l5.38,24.42c0.01,0.03,0.01,0.07,0.01,0.11V91c0,0.27-0.22,0.5-0.5,0.5H241.68z M239.61,82.35
		l-1.92-10.76h-0.15l-1.92,10.76H239.61z"/>
	<path class="st4" d="M253.09,91.5c-0.27,0-0.5-0.22-0.5-0.5V70h-5.23c-0.27,0-0.5-0.22-0.5-0.5v-3.46c0-0.27,0.22-0.5,0.5-0.5h15.6
		c0.27,0,0.5,0.22,0.5,0.5v3.46c0,0.27-0.22,0.5-0.5,0.5h-5.19V91c0,0.27-0.22,0.5-0.5,0.5H253.09z"/>
	<path class="st4" d="M276.66,91.5c-0.24,0-0.45-0.17-0.49-0.41l-0.77-4.3h-5.6l-0.78,4.3c-0.04,0.24-0.25,0.41-0.49,0.41h-4.1
		c-0.27,0-0.5-0.22-0.5-0.5v-0.75c0-0.04,0-0.07,0.01-0.11l5.34-24.21c0.05-0.23,0.25-0.39,0.49-0.39h5.74
		c0.23,0,0.43,0.16,0.49,0.39l5.38,24.42c0.01,0.03,0.01,0.07,0.01,0.11V91c0,0.27-0.22,0.5-0.5,0.5H276.66z M274.59,82.35
		l-1.92-10.76h-0.15l-1.92,10.76H274.59z"/>
	<path class="st4" d="M285.45,91.5c-0.27,0-0.5-0.22-0.5-0.5V66.04c0-0.27,0.22-0.5,0.5-0.5h4.18c0.27,0,0.5,0.22,0.5,0.5v21.01
		h7.36c0.27,0,0.5,0.22,0.5,0.5V91c0,0.27-0.22,0.5-0.5,0.5H285.45z"/>
	<path class="st4" d="M308.14,91.75c-2.94,0-5.07-0.85-6.33-2.52c-1.32-1.74-1.49-4.12-1.49-6.01V73.9c0-1.69,0.16-4.16,1.53-5.96
		c1.3-1.73,3.41-2.6,6.28-2.6c3,0,5.07,0.81,6.32,2.48c1.37,1.8,1.53,4.29,1.53,6v9.37c0,1.69-0.16,4.16-1.53,5.96
		C313.17,90.88,311.04,91.75,308.14,91.75z M307.88,69.74c-0.76,0-1.46,0.34-1.83,0.88c-0.49,0.75-0.55,1.78-0.55,2.6v10.63
		c0,0.8,0.1,1.9,0.59,2.61c0.36,0.53,1.01,0.84,1.78,0.84h0.51c0.8,0,1.47-0.31,1.83-0.84c0.49-0.71,0.55-1.83,0.55-2.6V73.23
		c0-0.9-0.04-1.93-0.51-2.64c-0.35-0.53-1.05-0.84-1.87-0.84H307.88z"/>
	<path class="st4" d="M328.12,91.71c-1.57,0-2.91-0.2-3.99-0.59c-1.16-0.43-2.06-1.05-2.67-1.85c-1.31-1.69-1.49-4.23-1.49-6.72
		l0-8.17c0-1.31-0.01-2.53,0.26-3.68c0.28-1.43,0.95-2.61,2.04-3.57c1.34-1.16,3.44-1.81,5.9-1.81c1.65,0,3.73,0.36,5.16,0.89
		c0.23,0.09,0.37,0.33,0.31,0.57l-0.73,3.27c-0.05,0.23-0.26,0.39-0.49,0.39c-0.03,0-0.07,0-0.11-0.01l-0.57-0.12
		c-0.55-0.12-1.03-0.23-1.5-0.32c-0.55-0.11-1.36-0.25-2.12-0.25c-1.17,0-1.99,0.41-2.46,1.22c-0.45,0.76-0.51,1.87-0.51,2.86v8.86
		c0,1.18,0.07,2.4,0.55,3.28c0.44,0.75,1.24,1.14,2.51,1.22c0.11,0.01,0.22,0.02,0.33,0.02c0.12,0,0.25,0,0.38-0.01
		c0.11,0,0.22-0.01,0.31-0.01v-7.48c0-0.27,0.22-0.5,0.5-0.5h4.1c0.27,0,0.5,0.22,0.5,0.5v10.63c0,0.19-0.11,0.36-0.28,0.45
		c-0.53,0.26-1.23,0.48-2.1,0.65C330.57,91.68,329.1,91.71,328.12,91.71z"/>
</g>
<g>
	<path class="st2" d="M142.62,118.14c-0.13,0-0.24-0.07-0.3-0.18l-3.07-6.23h-0.28v6.08c0,0.18-0.15,0.33-0.33,0.33h-2.78
		c-0.18,0-0.33-0.15-0.33-0.33V101c0-0.18,0.15-0.33,0.33-0.33h4.59c1.95,0,3.31,0.55,4.15,1.7c0.87,1.16,0.99,2.62,0.99,3.9
		c0,1.55-0.3,2.77-0.9,3.65c-0.47,0.69-1.21,1.21-2.12,1.5l3.38,5.92c0.03,0.05,0.04,0.11,0.04,0.16v0.31
		c0,0.18-0.15,0.33-0.33,0.33H142.62z M138.97,108.78h1.38c0.8,0,1.21-0.32,1.41-0.59c0.32-0.47,0.37-1.15,0.37-1.75v-0.42
		c0-0.61-0.03-1.3-0.37-1.78c-0.22-0.33-0.79-0.57-1.33-0.57h-1.47L138.97,108.78z"/>
	<path class="st2" d="M149.92,118.14c-0.18,0-0.33-0.15-0.33-0.33V101c0-0.18,0.15-0.33,0.33-0.33h8.78c0.18,0,0.33,0.15,0.33,0.33
		v2.33c0,0.18-0.15,0.33-0.33,0.33h-5.66v4.21h4.42c0.18,0,0.33,0.15,0.33,0.33v2.33c0,0.18-0.15,0.33-0.33,0.33h-4.42v4.27h5.66
		c0.18,0,0.33,0.15,0.33,0.33v2.33c0,0.18-0.15,0.33-0.33,0.33H149.92z"/>
	<path class="st2" d="M167.7,118.28c-1.05,0-1.94-0.13-2.66-0.4c-0.77-0.29-1.37-0.71-1.78-1.24c-0.87-1.14-0.99-2.85-0.99-4.52
		l0-5.49c0-0.87-0.01-1.7,0.17-2.48c0.19-0.97,0.63-1.75,1.36-2.4c0.89-0.78,2.29-1.22,3.93-1.22c1.1,0,2.48,0.24,3.43,0.6
		c0.16,0.06,0.24,0.22,0.21,0.38l-0.49,2.2c-0.03,0.15-0.17,0.26-0.32,0.26c-0.02,0-0.05,0-0.07-0.01l-0.37-0.08
		c-0.34-0.07-0.67-0.15-1-0.21c-0.36-0.07-0.91-0.17-1.41-0.17c-0.76,0-1.34,0.29-1.64,0.82c-0.3,0.51-0.34,1.26-0.34,1.92v5.96
		c0,0.8,0.04,1.62,0.37,2.2c0.3,0.5,0.83,0.77,1.67,0.82c0.08,0.01,0.15,0.01,0.22,0.01c0.08,0,0.16,0,0.24-0.01
		c0.08,0,0.16-0.01,0.22-0.01v-5.04c0-0.18,0.15-0.33,0.33-0.33h2.73c0.18,0,0.33,0.15,0.33,0.33v7.16c0,0.13-0.07,0.24-0.18,0.3
		c-0.35,0.17-0.82,0.32-1.4,0.44C169.33,118.26,168.35,118.28,167.7,118.28z"/>
	<path class="st2" d="M176.13,118.14c-0.18,0-0.33-0.15-0.33-0.33V101c0-0.18,0.15-0.33,0.33-0.33h2.78c0.18,0,0.33,0.15,0.33,0.33
		v16.8c0,0.18-0.15,0.33-0.33,0.33H176.13z"/>
	<path class="st2" d="M187.34,118.25c-1.49,0-3.03-0.39-3.98-0.75c-0.15-0.06-0.24-0.21-0.21-0.37l0.4-2.22
		c0.02-0.09,0.07-0.18,0.15-0.22c0.05-0.03,0.11-0.05,0.17-0.05c0.03,0,0.06,0,0.1,0.01c1.08,0.32,2.01,0.54,3.01,0.54h0.34
		c0.67,0,1.18-0.19,1.53-0.57c0.34-0.34,0.51-0.87,0.48-1.5c0-0.49-0.2-0.83-0.4-1.1c-0.23-0.25-0.54-0.48-1.02-0.73
		c-0.29-0.17-0.59-0.33-0.89-0.5c-1.19-0.65-2.4-1.3-3.18-2.3c-0.66-0.88-0.93-1.85-0.93-3.25c0-1.22,0.39-2.37,1.07-3.14
		c0.83-0.97,2.16-1.5,3.84-1.53l0.2,0c1.16,0,2.37,0.21,3.49,0.61c0.15,0.05,0.24,0.21,0.21,0.37l-0.39,2.17
		c-0.02,0.09-0.07,0.17-0.15,0.22c-0.05,0.03-0.12,0.05-0.18,0.05c-0.03,0-0.06,0-0.08-0.01c-0.99-0.25-1.84-0.42-2.82-0.42
		c-0.66,0-1.11,0.15-1.41,0.48c-0.28,0.31-0.42,0.78-0.42,1.41c0,0.67,0.29,1.18,0.93,1.67c0.55,0.38,1.21,0.7,1.85,1
		c0.6,0.28,1.21,0.57,1.74,0.92c0.43,0.26,0.76,0.54,1.05,0.88c0.64,0.76,0.93,1.72,0.93,3.02c0,1.49-0.31,2.61-0.96,3.5
		C191.01,117.58,189.43,118.22,187.34,118.25C187.34,118.25,187.34,118.25,187.34,118.25z"/>
	<path class="st2" d="M198.46,118.14c-0.18,0-0.33-0.15-0.33-0.33v-14.14h-3.48c-0.18,0-0.33-0.15-0.33-0.33V101
		c0-0.18,0.15-0.33,0.33-0.33h10.39c0.18,0,0.33,0.15,0.33,0.33v2.33c0,0.18-0.15,0.33-0.33,0.33h-3.46v14.14
		c0,0.18-0.15,0.33-0.33,0.33H198.46z"/>
	<path class="st2" d="M215.59,118.14c-0.13,0-0.24-0.07-0.3-0.18l-3.07-6.23h-0.28v6.08c0,0.18-0.15,0.33-0.33,0.33h-2.78
		c-0.18,0-0.33-0.15-0.33-0.33V101c0-0.18,0.15-0.33,0.33-0.33h4.59c1.95,0,3.31,0.55,4.15,1.7c0.87,1.16,0.99,2.62,0.99,3.9
		c0,1.55-0.3,2.77-0.9,3.65c-0.47,0.69-1.21,1.21-2.12,1.5l3.38,5.92c0.03,0.05,0.04,0.11,0.04,0.16v0.31
		c0,0.18-0.15,0.33-0.33,0.33H215.59z M211.94,108.78h1.38c0.8,0,1.21-0.32,1.41-0.59c0.32-0.47,0.37-1.15,0.37-1.75v-0.42
		c0-0.61-0.03-1.3-0.37-1.78c-0.22-0.33-0.79-0.57-1.33-0.57h-1.47L211.94,108.78z"/>
	<path class="st2" d="M222.89,118.14c-0.18,0-0.33-0.15-0.33-0.33V101c0-0.18,0.15-0.33,0.33-0.33h8.78c0.18,0,0.33,0.15,0.33,0.33
		v2.33c0,0.18-0.15,0.33-0.33,0.33H226v4.21h4.42c0.18,0,0.33,0.15,0.33,0.33v2.33c0,0.18-0.15,0.33-0.33,0.33H226v4.27h5.66
		c0.18,0,0.33,0.15,0.33,0.33v2.33c0,0.18-0.15,0.33-0.33,0.33H222.89z"/>
	<path class="st2" d="M242.77,118.14c-0.13,0-0.24-0.07-0.3-0.18l-3.07-6.23h-0.28v6.08c0,0.18-0.15,0.33-0.33,0.33H236
		c-0.18,0-0.33-0.15-0.33-0.33V101c0-0.18,0.15-0.33,0.33-0.33h4.59c1.95,0,3.31,0.55,4.15,1.7c0.87,1.16,0.99,2.62,0.99,3.9
		c0,1.55-0.3,2.77-0.9,3.65c-0.47,0.69-1.21,1.21-2.12,1.5l3.38,5.92c0.03,0.05,0.04,0.11,0.04,0.16v0.31
		c0,0.18-0.15,0.33-0.33,0.33H242.77z M239.11,108.78h1.38c0.8,0,1.21-0.32,1.41-0.59c0.32-0.47,0.37-1.15,0.37-1.75v-0.42
		c0-0.61-0.03-1.3-0.37-1.78c-0.22-0.33-0.79-0.57-1.33-0.57h-1.47L239.11,108.78z"/>
	<path class="st2" d="M250.13,118.14c-0.18,0-0.33-0.15-0.33-0.33V101c0-0.18,0.15-0.33,0.33-0.33h2.78c0.18,0,0.33,0.15,0.33,0.33
		v16.8c0,0.18-0.15,0.33-0.33,0.33H250.13z"/>
	<path class="st2" d="M265.59,118.14c-0.13,0-0.24-0.07-0.3-0.19l-3.67-7.64c-0.28-0.55-0.68-1.46-0.96-2.35l-0.06,0
		c0.06,0.75,0.08,1.46,0.08,2.18v7.67c0,0.18-0.15,0.33-0.33,0.33h-2.62c-0.18,0-0.33-0.15-0.33-0.33V101
		c0-0.18,0.15-0.33,0.33-0.33h2.31c0.13,0,0.24,0.07,0.3,0.19l3.78,7.87c0.27,0.53,0.61,1.35,0.88,2.09l0.06,0
		c-0.06-0.74-0.08-1.47-0.08-2.23V101c0-0.18,0.15-0.33,0.33-0.33h2.59c0.18,0,0.33,0.15,0.33,0.33v16.8c0,0.18-0.15,0.33-0.33,0.33
		H265.59z"/>
	<path class="st2" d="M277.63,118.28c-1.05,0-1.94-0.13-2.66-0.4c-0.77-0.29-1.37-0.71-1.78-1.24c-0.87-1.14-0.99-2.85-0.99-4.52
		l0-5.49c0-0.87-0.01-1.7,0.17-2.48c0.19-0.97,0.63-1.75,1.36-2.4c0.89-0.78,2.29-1.22,3.93-1.22c1.1,0,2.48,0.24,3.43,0.6
		c0.16,0.06,0.24,0.22,0.21,0.38l-0.49,2.2c-0.03,0.15-0.17,0.26-0.32,0.26c-0.02,0-0.05,0-0.07-0.01l-0.37-0.08
		c-0.34-0.07-0.67-0.15-1-0.21c-0.36-0.07-0.91-0.17-1.41-0.17c-0.76,0-1.34,0.29-1.64,0.82c-0.3,0.51-0.34,1.26-0.34,1.92v5.96
		c0,0.8,0.04,1.62,0.37,2.2c0.3,0.5,0.83,0.77,1.67,0.82c0.08,0.01,0.15,0.01,0.22,0.01c0.08,0,0.16,0,0.24-0.01
		c0.08,0,0.16-0.01,0.22-0.01v-5.04c0-0.18,0.15-0.33,0.33-0.33h2.73c0.18,0,0.33,0.15,0.33,0.33v7.16c0,0.13-0.07,0.24-0.18,0.3
		c-0.35,0.17-0.82,0.32-1.4,0.44C279.26,118.26,278.28,118.28,277.63,118.28z"/>
</g>
</svg>
