<?xml version="1.0" encoding="UTF-8"?>
<svg width="46px" height="46px" viewBox="0 0 46 46" version="1.1" xmlns="http://www.w3.org/2000/svg" xmlns:xlink="http://www.w3.org/1999/xlink">
    <!-- Generator: Sketch 51.3 (57544) - http://www.bohemiancoding.com/sketch -->
    <title>SØKEFELT / banner beta 2@1x</title>
    <desc>Created with Sketch.</desc>
    <defs></defs>
    <g id="SØKEFELT-/-banner-beta-2" stroke="none" stroke-width="1" fill="none" fill-rule="evenodd">
        <polygon id="Rectangle" fill="#2D3741" points="1 0 28 0 46 18 46 45"></polygon>
        <path d="M19.9359816,16.6295851 C20.4480284,16.7607706 20.828884,17.0115006 21.0785597,17.3817824 C21.3282354,17.7520642 21.4530714,18.1741791 21.4530714,18.6481398 C21.4530714,19.5452797 21.1653139,20.2244721 20.5897902,20.6857374 C20.0142665,21.1470028 19.1785001,21.377632 18.082466,21.377632 L14.5087355,21.377632 L14.5087355,12.1354445 L17.7714308,12.1354445 C18.8843921,12.1354445 19.742375,12.3470309 20.3454054,12.7702101 C20.9484358,13.1933893 21.2499464,13.8281486 21.2499464,14.674507 C21.2499464,15.1146133 21.1409794,15.5071062 20.9230421,15.8519972 C20.7051048,16.1968883 20.3760879,16.4560816 19.9359816,16.6295851 Z M16.5018995,13.7477492 L16.5018995,15.9948195 L17.7714308,15.9948195 C18.275014,15.9948195 18.6484641,15.9027794 18.8917921,15.7186964 C19.1351202,15.5346135 19.2567824,15.2606091 19.2567824,14.8966749 C19.2567824,14.4904229 19.1393519,14.1973757 18.9044874,14.0175245 C18.669623,13.8376734 18.2919412,13.7477492 17.7714308,13.7477492 L16.5018995,13.7477492 Z M18.082466,19.7716749 C18.5394995,19.7716749 18.8843854,19.6669397 19.1171339,19.457466 C19.3498825,19.2479923 19.466255,18.971872 19.466255,18.6290968 C19.466255,17.7996656 19.0325028,17.3849562 18.1649855,17.3849562 L16.5018995,17.3849562 L16.5018995,19.7716749 L18.082466,19.7716749 Z M29.5702589,19.7716749 L29.5702589,21.377632 L23.3305128,21.377632 L23.3305128,12.1354445 L29.5639113,12.1354445 L29.5639113,13.7477492 L25.3236769,13.7477492 L25.3236769,15.8488234 L28.9354933,15.8488234 L28.9354933,17.4039992 L25.3236769,17.4039992 L25.3236769,19.7716749 L29.5702589,19.7716749 Z M38.3031691,13.7477492 L35.4848097,13.7477492 L35.4848097,21.377632 L33.4979933,21.377632 L33.4979933,13.7477492 L30.7240675,13.7477492 L30.7240675,12.1354445 L38.3031691,12.1354445 L38.3031691,13.7477492 Z M44.2748488,19.5431593 L40.9994581,19.5431593 L40.3964308,21.377632 L38.2763136,21.377632 L41.704048,12.1354445 L43.5575636,12.1354445 L47.004341,21.377632 L44.8778761,21.377632 L44.2748488,19.5431593 Z M43.7416456,17.9308546 L42.6308058,14.5602492 L41.5263136,17.9308546 L43.7416456,17.9308546 Z" id="BETA" fill="#FFFFFF" transform="translate(30.756538, 16.756538) rotate(45.000000) translate(-30.756538, -16.756538) "></path>
    </g>
</svg>