<svg xmlns="http://www.w3.org/2000/svg" viewBox="0 0 48 48"><defs><style>.cls-1{fill:#c4ebfa;}.cls-2{fill:#0069a5;}</style></defs><title>icon-catalog-dataset-lg</title><g id="outline"><path class="cls-1" d="M41.11,13h0a3.28,3.28,0,0,0-1.65.48l-1.7,1V12.88c0-2.45-1.39-3.55-2.76-3.55h0a3.3,3.3,0,0,0-1.65.49l-1.71,1V9.22c0-2.46-1.38-3.55-2.75-3.55h0a3.35,3.35,0,0,0-1.66.48l-1.7,1V5.55C25.53,3.1,24.15,2,22.78,2h0a3.35,3.35,0,0,0-1.66.48L7.54,10.32a8,8,0,0,0-3.41,6.43v14.7C4.13,33.9,5.52,35,6.89,35a3.28,3.28,0,0,0,1.65-.48l1.7-1v1.59c0,2.45,1.39,3.55,2.76,3.55a3.3,3.3,0,0,0,1.65-.49l1.71-1v1.58c0,2.46,1.38,3.55,2.75,3.55a3.35,3.35,0,0,0,1.66-.48l1.7-1v1.58c0,2.45,1.38,3.55,2.75,3.55a3.35,3.35,0,0,0,1.66-.48l13.58-7.84a8,8,0,0,0,3.41-6.43V16.55C43.87,14.1,42.48,13,41.11,13Z"/><path class="cls-2" d="M41.11,13h0a3.28,3.28,0,0,0-1.65.48l-1.7,1V12.88c0-2.45-1.39-3.55-2.76-3.55h0a3.3,3.3,0,0,0-1.65.49l-1.71,1V9.22c0-2.46-1.38-3.55-2.75-3.55h0a3.35,3.35,0,0,0-1.66.48l-1.7,1V5.55C25.53,3.1,24.15,2,22.78,2h0a3.35,3.35,0,0,0-1.66.48L7.54,10.32a8,8,0,0,0-3.41,6.43v14.7C4.13,33.9,5.52,35,6.89,35a3.28,3.28,0,0,0,1.65-.48l1.7-1v1.59c0,2.45,1.39,3.55,2.76,3.55a3.3,3.3,0,0,0,1.65-.49l1.71-1v1.58c0,2.46,1.38,3.55,2.75,3.55a3.35,3.35,0,0,0,1.66-.48l1.7-1v1.58c0,2.45,1.38,3.55,2.75,3.55a3.35,3.35,0,0,0,1.66-.48l13.58-7.84a8,8,0,0,0,3.41-6.43V16.55C43.87,14.1,42.48,13,41.11,13ZM10.24,20.42v12L8,33.65c-1.6.93-2.91-.06-2.91-2.2V16.75A7,7,0,0,1,8,11.19L21.62,3.35c1.61-.93,2.91.06,2.91,2.2V7.71L13.65,14A8,8,0,0,0,10.24,20.42Zm6.12,3.66v12l-2.21,1.27c-1.6.92-2.91-.06-2.91-2.2V20.42a7,7,0,0,1,2.91-5.56L27.73,7c1.61-.93,2.91.05,2.91,2.2v2.16L19.77,17.66A7.92,7.92,0,0,0,16.36,24.08Zm6.11,3.67v12L20.27,41c-1.61.93-2.91,0-2.91-2.2V24.08a7,7,0,0,1,2.91-5.56l13.58-7.84c1.6-.92,2.91.06,2.91,2.2V15L25.88,21.32A8,8,0,0,0,22.47,27.75Zm20.4,3.5A7,7,0,0,1,40,36.81L26.38,44.65c-1.61.93-2.91-.06-2.91-2.2V27.75a7,7,0,0,1,2.91-5.56L40,14.35c1.6-.93,2.91.06,2.91,2.2Z"/></g></svg>