<svg xmlns="http://www.w3.org/2000/svg" viewBox="0 0 64 64"><defs><style>.cls-1{fill:#c4ebfa;}.cls-2{fill:#f9c9b5;}.cls-3{fill:#0069a5;}</style></defs><title>icon-catalog-protocol-xl</title><g id="outline"><path class="cls-1" d="M58.14,50.05a2.72,2.72,0,0,1-2.1-.9l-23.8-22.9-1.6,1.6a3.65,3.65,0,0,1-.9,3.7l-2.2,2.2a3.57,3.57,0,0,1-2.7,1.2,3.63,3.63,0,0,1-2.6-1.1l-7.5-7.5a3.77,3.77,0,0,1,0-5.3l2.2-2.2a3.63,3.63,0,0,1,2.6-1.1,3.59,3.59,0,0,1,1.1.2l7.9-7.9a3.65,3.65,0,0,1,.9-3.7L32,3.75a4,4,0,0,1,2.7-1.1,3.63,3.63,0,0,1,2.6,1.1l7.5,7.5a3.62,3.62,0,0,1,0,5.2l-2.6,2.6a3.63,3.63,0,0,1-2.6,1.1,3.59,3.59,0,0,1-1.1-.2l-1.2,1.2,23,23.7a2.9,2.9,0,0,1,0,4.2A3,3,0,0,1,58.14,50.05Z"/><rect class="cls-2" x="7.44" y="52.35" width="22.7" height="3.7"/><rect class="cls-1" x="7.94" y="52.85" width="21.7" height="2.7"/><rect class="cls-2" x="3.34" y="57.15" width="30.9" height="3.7"/><rect class="cls-1" x="3.84" y="57.65" width="29.9" height="2.7"/><path class="cls-3" d="M60.94,44.25h0l-22.6-22.6.5-.5c.3,0,.5.1.8.1a4.71,4.71,0,0,0,3.3-1.4l2.6-2.6a4.83,4.83,0,0,0,0-6.7L38,3.05a4.59,4.59,0,0,0-6.6,0l-2.6,2.6a4.51,4.51,0,0,0-1.3,4.1l-7.1,7.1c-.3,0-.5-.1-.8-.1a4.71,4.71,0,0,0-3.3,1.4l-2.2,2.2a4.83,4.83,0,0,0,0,6.7l7.5,7.5a4.74,4.74,0,0,0,6.7,0h0l2.2-2.2a4.51,4.51,0,0,0,1.3-4.1l.9-.9L55.34,50A4,4,0,0,0,61,50h0A4.08,4.08,0,0,0,60.94,44.25Zm-31.5-16.6A2.87,2.87,0,0,1,29,31l-2.2,2.2a2.6,2.6,0,0,1-3.8,0h0l-7.6-7.5a2.6,2.6,0,0,1,0-3.8h0l2.2-2.2a2.72,2.72,0,0,1,3.3-.4l8.9-8.9a2.87,2.87,0,0,1,.4-3.3l2.6-2.6a2.66,2.66,0,0,1,3.8,0l7.5,7.5a2.6,2.6,0,0,1,0,3.8l-2.6,2.6a2.73,2.73,0,0,1-1.9.8,2.77,2.77,0,0,1-1.3-.3Zm3.2-3.2Zm26.9,24h0a1.93,1.93,0,0,1-2.8,0L34,25.85l2.8-2.8,22.7,22.6A1.93,1.93,0,0,1,59.54,48.45Z"/><path class="cls-3" d="M33.74,55.65h-2.1v-2.8a2,2,0,0,0-2-2H7.94a2,2,0,0,0-2,2v2.8H3.84a2,2,0,0,0-2,2v2.7a2,2,0,0,0,2,2h29.9a2,2,0,0,0,2-2v-2.7A2,2,0,0,0,33.74,55.65Zm-25.8-2.8h21.7v2.7H7.94Zm25.8,7.5H3.84v-2.7h29.9Z"/></g></svg>