<svg xmlns="http://www.w3.org/2000/svg" viewBox="0 0 24 24"><defs><style>.cls-1{fill:#00c3ff;}.cls-2{fill:#fff;}</style></defs><title>icon-published-circle-md</title><g id="outline"><circle class="cls-1" cx="12" cy="12" r="10"/><path class="cls-2" d="M8.25,8.46,13,5.7V5c0-.87-.53-1.28-1.19-.9L6.3,7.34A2.85,2.85,0,0,0,5.12,9.61v6c0,.88.53,1.28,1.18.9l.77-.44V10.73A2.85,2.85,0,0,1,8.25,8.46Z"/><path class="cls-2" d="M17.7,16.66l-5.54,3.2c-.66.38-1.19,0-1.19-.9V13a2.81,2.81,0,0,1,1.19-2.26L17.7,7.5c.65-.38,1.18,0,1.18.9v6A2.85,2.85,0,0,1,17.7,16.66Z"/><path class="cls-2" d="M11.18,10.14,16,7.38V6.72c0-.88-.53-1.28-1.19-.9L9.23,9A2.83,2.83,0,0,0,8,11.29v6c0,.88.53,1.28,1.19.9l.76-.44V12.41A2.86,2.86,0,0,1,11.18,10.14Z"/></g></svg>