<svg xmlns="http://www.w3.org/2000/svg" viewBox="0 0 48 48"><defs><style>.cls-1{fill:#0069a5;}.cls-2{fill:#c4ebfa;}.cls-3{fill:#fff;}</style></defs><title>icon-catalog-concept-lg</title><g id="outline"><path class="cls-1" d="M41.5,9.94h-.63A3.5,3.5,0,0,1,41.5,3a.5.5,0,0,0,0-1h-31A4.48,4.48,0,0,0,6,6.5V41.56A4.45,4.45,0,0,0,10.45,46H41.5a.5.5,0,0,0,.5-.5V10.44A.5.5,0,0,0,41.5,9.94Z"/><path class="cls-2" d="M10.45,45A3.45,3.45,0,0,1,7,41.56V9.31A4.42,4.42,0,0,0,10.45,11H13V28.5a.5.5,0,0,0,.31.46.47.47,0,0,0,.54-.11l3.65-3.64,3.65,3.64a.47.47,0,0,0,.35.15.43.43,0,0,0,.19,0A.5.5,0,0,0,22,28.5V11H41V45Z"/><path class="cls-3" d="M14,11h7V27.29l-3.15-3.14a.48.48,0,0,0-.7,0L14,27.29Z"/><path class="cls-3" d="M10.45,3H38.71a4.52,4.52,0,0,0-.07,6.94H10.45a3.47,3.47,0,0,1,0-6.94Z"/></g></svg>