
<svg id="Layer_1" data-name="Layer 1" xmlns="http://www.w3.org/2000/svg" viewBox="0 0 378 149"><defs><style>.cls-1{fill:#156d8c;}.cls-2{fill:#0e8ab2;}.cls-3{fill:#07a6d9;}.cls-4{fill:#00c3ff;}.cls-5{fill:#233741;}.cls-6{fill:#ffbe3c;}</style></defs><title>FDK-registrering-demo-logo-RGB</title><path class="cls-1" d="M67.46,23.65,31.77,44.26c-4.22,2.44-7.65,9-7.65,14.61V97.5c0,5.63,3.43,8.22,7.65,5.78l.75-.43c0-.18,0-.36,0-.55V63.67c0-5.63,3.43-12.17,7.65-14.61L75.1,28.89C74.88,23.64,71.54,21.3,67.46,23.65Z"/><path class="cls-2" d="M80,30.86,44.34,51.46c-4.22,2.44-7.65,9-7.65,14.62v38.63c0,5.63,3.43,8.22,7.65,5.78l.74-.43c0-.18,0-.37,0-.55V70.88c0-5.63,3.42-12.17,7.65-14.61L87.66,36.09C87.45,30.84,84.11,28.5,80,30.86Z"/><path class="cls-3" d="M57.64,78.09c0-5.63,3.42-12.17,7.64-14.61l35-20.18c-.21-5.25-3.55-7.6-7.64-5.24L56.91,58.67c-4.23,2.44-7.65,9-7.65,14.61v38.63c0,5.63,3.42,8.22,7.65,5.78l.74-.43c0-.18,0-.36,0-.54Z"/><path class="cls-4" d="M105.16,104.3,69.47,124.9c-4.22,2.44-7.64-.15-7.64-5.78V80.49c0-5.63,3.42-12.17,7.64-14.61l35.69-20.61c4.23-2.44,7.65.15,7.65,5.78V89.68C112.81,95.32,109.39,101.86,105.16,104.3Z"/><path class="cls-5" d="M136,56.36a.49.49,0,0,1-.5-.49v-25a.49.49,0,0,1,.5-.49h12.72a.49.49,0,0,1,.49.49v3.46a.49.49,0,0,1-.49.5h-8v7h5.66a.5.5,0,0,1,.5.5v3.46a.5.5,0,0,1-.5.49H140.7v9.59a.49.49,0,0,1-.5.49Z"/><path class="cls-5" d="M153,56.36a.49.49,0,0,1-.5-.49v-25a.49.49,0,0,1,.5-.49h13.18a.49.49,0,0,1,.5.49v3.46a.5.5,0,0,1-.5.5h-8.5v6.26h6.64a.49.49,0,0,1,.49.5v3.45a.49.49,0,0,1-.49.5h-6.64v6.34h8.5a.5.5,0,0,1,.5.5v3.46a.49.49,0,0,1-.5.49Z"/><path class="cls-5" d="M170.9,56.36a.49.49,0,0,1-.5-.49v-25a.49.49,0,0,1,.5-.49h4.18a.49.49,0,0,1,.5.49v21h7.36a.49.49,0,0,1,.49.5v3.46a.49.49,0,0,1-.49.49Z"/><path class="cls-5" d="M187.37,56.36a.49.49,0,0,1-.49-.49v-25a.49.49,0,0,1,.49-.49h4.19a.5.5,0,0,1,.5.49v21h7.35a.5.5,0,0,1,.5.5v3.46a.49.49,0,0,1-.5.49Z"/><path class="cls-5" d="M203.85,56.36a.5.5,0,0,1-.5-.49v-25a.5.5,0,0,1,.5-.49H217a.49.49,0,0,1,.5.49v3.46a.5.5,0,0,1-.5.5h-8.5v6.26h6.64a.49.49,0,0,1,.49.5v3.45a.49.49,0,0,1-.49.5h-6.64v6.34H217a.5.5,0,0,1,.5.5v3.46a.49.49,0,0,1-.5.49Z"/><path class="cls-5" d="M227.34,56.53a18.1,18.1,0,0,1-6-1.11.49.49,0,0,1-.32-.55l.6-3.29a.49.49,0,0,1,.22-.34.48.48,0,0,1,.26-.07l.15,0a15.58,15.58,0,0,0,4.52.81h.51a3,3,0,0,0,2.29-.84,2.91,2.91,0,0,0,.72-2.23,2.63,2.63,0,0,0-.6-1.64,5.27,5.27,0,0,0-1.52-1.09l-1.38-.76a14.74,14.74,0,0,1-4.74-3.4,7.48,7.48,0,0,1-1.4-4.83,7,7,0,0,1,1.62-4.66,7.51,7.51,0,0,1,5.77-2.27h.3a15.79,15.79,0,0,1,5.24.91.5.5,0,0,1,.33.55l-.6,3.23a.45.45,0,0,1-.22.32.42.42,0,0,1-.26.08h-.13a16.43,16.43,0,0,0-4.24-.63,2.71,2.71,0,0,0-2.12.72,3.2,3.2,0,0,0,.77,4.58,19.16,19.16,0,0,0,2.77,1.48,22.38,22.38,0,0,1,2.62,1.37,6,6,0,0,1,1.57,1.3,6.63,6.63,0,0,1,1.4,4.5,8.34,8.34,0,0,1-1.45,5.2c-1.18,1.66-3.57,2.6-6.7,2.65Z"/><path class="cls-5" d="M136,91.5a.5.5,0,0,1-.5-.5V66a.5.5,0,0,1,.5-.5h6.87c1.12,0,3.9.17,5.62,1.68a6.27,6.27,0,0,1,2,3.66,20.8,20.8,0,0,1,.26,4.07v7.18a20.54,20.54,0,0,1-.26,4,6.4,6.4,0,0,1-2,3.78,7,7,0,0,1-2.59,1.26,14.86,14.86,0,0,1-3.36.29Zm6.59-4.45a2.54,2.54,0,0,0,2.46-1,6.12,6.12,0,0,0,.43-2.81V73.82a6.21,6.21,0,0,0-.43-2.82,2.55,2.55,0,0,0-2.46-1H140.7v17Z"/><path class="cls-5" d="M166.4,91.5a.5.5,0,0,1-.49-.41l-.77-4.29h-5.6l-.78,4.29a.49.49,0,0,1-.49.41h-4.09a.5.5,0,0,1-.5-.5v-.75a.34.34,0,0,1,0-.1L159,65.94a.5.5,0,0,1,.48-.4h5.74a.5.5,0,0,1,.48.4l5.38,24.42a.34.34,0,0,1,0,.1V91a.49.49,0,0,1-.49.5Zm-2.07-9.15-1.92-10.77h-.15l-1.92,10.77Z"/><path class="cls-5" d="M177.81,91.5a.49.49,0,0,1-.49-.5V70h-5.24a.49.49,0,0,1-.49-.5V66a.5.5,0,0,1,.49-.5h15.61a.5.5,0,0,1,.49.5V69.5a.49.49,0,0,1-.49.5h-5.2V91a.49.49,0,0,1-.49.5Z"/><path class="cls-5" d="M201.39,91.5a.49.49,0,0,1-.49-.41l-.77-4.29h-5.61l-.77,4.29a.5.5,0,0,1-.49.41h-4.1a.5.5,0,0,1-.5-.5v-.75a.36.36,0,0,1,0-.1L194,65.94a.5.5,0,0,1,.49-.4h5.74a.5.5,0,0,1,.48.4l5.38,24.42a.34.34,0,0,1,0,.1V91a.5.5,0,0,1-.5.5Zm-2.07-9.15L197.4,71.58h-.15l-1.92,10.77Z"/><path class="cls-5" d="M221.11,91.5a.48.48,0,0,1-.44-.27l-5.43-10.36h-.38V91a.5.5,0,0,1-.5.5h-4.18a.5.5,0,0,1-.5-.5V66a.5.5,0,0,1,.5-.5h4.18a.5.5,0,0,1,.5.5v9.59h.34l5.17-9.82a.49.49,0,0,1,.44-.27h4.25a.5.5,0,0,1,.5.5v.71a.52.52,0,0,1-.07.25l-6.21,10.6,6.86,12.7a.6.6,0,0,1,.06.23V91a.5.5,0,0,1-.5.5Z"/><path class="cls-5" d="M241.68,91.5a.49.49,0,0,1-.49-.41l-.78-4.29h-5.6L234,91.09a.5.5,0,0,1-.49.41h-4.1a.5.5,0,0,1-.5-.5v-.75s0-.07,0-.1l5.34-24.21a.5.5,0,0,1,.49-.4h5.73a.5.5,0,0,1,.49.4l5.38,24.42a.34.34,0,0,1,0,.1V91a.5.5,0,0,1-.5.5Zm-2.07-9.15-1.92-10.77h-.15l-1.92,10.77Z"/><path class="cls-5" d="M253.09,91.5a.5.5,0,0,1-.5-.5V70h-5.23a.5.5,0,0,1-.5-.5V66a.5.5,0,0,1,.5-.5H263a.5.5,0,0,1,.5.5V69.5a.5.5,0,0,1-.5.5h-5.19V91a.5.5,0,0,1-.5.5Z"/><path class="cls-5" d="M276.66,91.5a.5.5,0,0,1-.49-.41l-.77-4.29h-5.6L269,91.09a.49.49,0,0,1-.49.41h-4.1a.49.49,0,0,1-.49-.5v-.75a.34.34,0,0,1,0-.1l5.33-24.21a.52.52,0,0,1,.49-.4h5.74a.5.5,0,0,1,.48.4l5.38,24.42a.34.34,0,0,1,0,.1V91a.49.49,0,0,1-.49.5Zm-2.07-9.15-1.92-10.77h-.15L270.6,82.35Z"/><path class="cls-5" d="M285.45,91.5A.49.49,0,0,1,285,91V66a.5.5,0,0,1,.49-.5h4.19a.5.5,0,0,1,.49.5v21h7.36a.5.5,0,0,1,.5.5V91a.5.5,0,0,1-.5.5Z"/><path class="cls-5" d="M308.14,91.75c-2.94,0-5.07-.85-6.33-2.52s-1.48-4.12-1.48-6V73.9c0-1.69.16-4.15,1.53-6s3.41-2.6,6.28-2.6,5.07.81,6.32,2.47c1.37,1.81,1.53,4.3,1.53,6v9.36c0,1.7-.16,4.16-1.53,6S311,91.75,308.14,91.75Zm-.26-22a2.19,2.19,0,0,0-1.82.89,4.84,4.84,0,0,0-.55,2.6V83.86a4.87,4.87,0,0,0,.59,2.6,2.07,2.07,0,0,0,1.78.84h.51a2.15,2.15,0,0,0,1.83-.84,4.88,4.88,0,0,0,.55-2.6V73.23a4.93,4.93,0,0,0-.51-2.64,2.19,2.19,0,0,0-1.87-.85Z"/><path class="cls-5" d="M328.12,91.71a11.82,11.82,0,0,1-4-.59,5.83,5.83,0,0,1-2.68-1.85C320.15,87.58,320,85,320,82.55V74.39a16.22,16.22,0,0,1,.25-3.68,6.19,6.19,0,0,1,2-3.57,9,9,0,0,1,5.9-1.8,16.43,16.43,0,0,1,5.16.88.51.51,0,0,1,.31.58l-.73,3.26a.51.51,0,0,1-.49.39h-.11l-.56-.12c-.55-.12-1-.23-1.5-.32a11.26,11.26,0,0,0-2.12-.26A2.6,2.6,0,0,0,325.66,71a5.9,5.9,0,0,0-.51,2.86v8.86A7,7,0,0,0,325.7,86a2.85,2.85,0,0,0,2.5,1.21,1.83,1.83,0,0,0,.33,0h.69V79.69a.49.49,0,0,1,.5-.49h4.1a.5.5,0,0,1,.5.49V90.32a.5.5,0,0,1-.28.45,8.73,8.73,0,0,1-2.1.65A21.2,21.2,0,0,1,328.12,91.71Z"/><path class="cls-3" d="M142.62,118.14a.33.33,0,0,1-.29-.19l-3.08-6.23H139v6.08a.34.34,0,0,1-.33.34h-2.79a.34.34,0,0,1-.33-.34V101a.33.33,0,0,1,.33-.33h4.59c1.95,0,3.3.55,4.15,1.7a6.28,6.28,0,0,1,1,3.9,6.38,6.38,0,0,1-.9,3.64,3.92,3.92,0,0,1-2.12,1.5l3.38,5.92a.42.42,0,0,1,0,.16v.31a.34.34,0,0,1-.33.34ZM139,108.78h1.38a1.68,1.68,0,0,0,1.42-.59,3.19,3.19,0,0,0,.36-1.75V106a3.13,3.13,0,0,0-.36-1.78,1.72,1.72,0,0,0-1.33-.56H139Z"/><path class="cls-3" d="M149.92,118.14a.34.34,0,0,1-.34-.34V101a.34.34,0,0,1,.34-.33h8.77a.33.33,0,0,1,.33.33v2.33a.33.33,0,0,1-.33.34H153v4.21h4.42a.33.33,0,0,1,.33.33v2.33a.33.33,0,0,1-.33.33H153v4.27h5.66a.33.33,0,0,1,.33.33v2.33a.33.33,0,0,1-.33.34Z"/><path class="cls-3" d="M167.7,118.28a7.88,7.88,0,0,1-2.66-.4,4,4,0,0,1-1.78-1.24c-.87-1.14-1-2.85-1-4.52v-5.5a11,11,0,0,1,.17-2.47,4.19,4.19,0,0,1,1.36-2.41,6,6,0,0,1,3.93-1.21,10.69,10.69,0,0,1,3.43.6.33.33,0,0,1,.21.38l-.49,2.2a.33.33,0,0,1-.33.26h-.07l-.37-.08-1-.21a7,7,0,0,0-1.41-.17,1.77,1.77,0,0,0-1.64.82,4,4,0,0,0-.34,1.92v6a4.7,4.7,0,0,0,.37,2.21,1.89,1.89,0,0,0,1.66.82h.68v-5a.33.33,0,0,1,.33-.33h2.73a.33.33,0,0,1,.33.33v7.16a.32.32,0,0,1-.18.29,5.65,5.65,0,0,1-1.4.44A13.55,13.55,0,0,1,167.7,118.28Z"/><rect class="cls-3" x="175.8" y="100.67" width="3.45" height="17.47" rx="0.33"/><path class="cls-3" d="M187.34,118.25a12,12,0,0,1-4-.75.32.32,0,0,1-.21-.36l.39-2.22a.35.35,0,0,1,.16-.23.34.34,0,0,1,.17,0l.1,0a10.34,10.34,0,0,0,3,.54h.34a2,2,0,0,0,1.53-.57,2,2,0,0,0,.48-1.5,1.77,1.77,0,0,0-.4-1.1,3.37,3.37,0,0,0-1-.73l-.9-.5a9.74,9.74,0,0,1-3.17-2.3,5,5,0,0,1-.94-3.25,4.74,4.74,0,0,1,1.08-3.14,5,5,0,0,1,3.84-1.53h.2a10.51,10.51,0,0,1,3.49.61.34.34,0,0,1,.22.38l-.4,2.17a.33.33,0,0,1-.14.22.41.41,0,0,1-.18.05h-.08a11.14,11.14,0,0,0-2.83-.42,1.78,1.78,0,0,0-1.41.48,2,2,0,0,0-.42,1.41,2,2,0,0,0,.93,1.67,12.11,12.11,0,0,0,1.85,1,16.91,16.91,0,0,1,1.74.92,3.94,3.94,0,0,1,1,.88,4.44,4.44,0,0,1,.94,3,5.73,5.73,0,0,1-1,3.51c-.8,1.11-2.38,1.75-4.47,1.78Z"/><path class="cls-3" d="M198.46,118.14a.34.34,0,0,1-.33-.34V103.67h-3.48a.33.33,0,0,1-.33-.34V101a.33.33,0,0,1,.33-.33H205a.33.33,0,0,1,.33.33v2.33a.34.34,0,0,1-.33.34h-3.46V117.8a.34.34,0,0,1-.33.34Z"/><path class="cls-3" d="M215.59,118.14a.33.33,0,0,1-.29-.19l-3.08-6.23h-.28v6.08a.34.34,0,0,1-.33.34h-2.79a.34.34,0,0,1-.33-.34V101a.33.33,0,0,1,.33-.33h4.59c2,0,3.31.55,4.15,1.7a6.28,6.28,0,0,1,1,3.9,6.38,6.38,0,0,1-.9,3.64,3.92,3.92,0,0,1-2.12,1.5l3.38,5.92a.29.29,0,0,1,0,.16v.31a.34.34,0,0,1-.33.34Zm-3.65-9.36h1.39a1.65,1.65,0,0,0,1.41-.59,3.2,3.2,0,0,0,.37-1.75V106a3.13,3.13,0,0,0-.37-1.78,1.72,1.72,0,0,0-1.33-.56h-1.47Z"/><path class="cls-3" d="M222.89,118.14a.33.33,0,0,1-.33-.34V101a.33.33,0,0,1,.33-.33h8.77a.34.34,0,0,1,.34.33v2.33a.34.34,0,0,1-.34.34H226v4.21h4.42a.33.33,0,0,1,.33.33v2.33a.33.33,0,0,1-.33.33H226v4.27h5.66a.34.34,0,0,1,.34.33v2.33a.34.34,0,0,1-.34.34Z"/><path class="cls-3" d="M242.77,118.14a.35.35,0,0,1-.3-.19l-3.07-6.23h-.29v6.08a.33.33,0,0,1-.33.34H236a.33.33,0,0,1-.33-.34V101a.33.33,0,0,1,.33-.33h4.58c1.95,0,3.31.55,4.16,1.7a8,8,0,0,1,.08,7.54,3.89,3.89,0,0,1-2.12,1.5l3.38,5.92a.29.29,0,0,1,0,.16v.31a.34.34,0,0,1-.33.34Zm-3.66-9.36h1.39a1.64,1.64,0,0,0,1.41-.59,3.11,3.11,0,0,0,.37-1.75V106a3.13,3.13,0,0,0-.37-1.78,1.69,1.69,0,0,0-1.33-.56h-1.47Z"/><rect class="cls-3" x="249.79" y="100.67" width="3.45" height="17.47" rx="0.33"/><path class="cls-3" d="M265.59,118.14a.34.34,0,0,1-.3-.19l-3.67-7.64a16.59,16.59,0,0,1-1-2.35h-.06c.06.75.09,1.46.09,2.18v7.66a.34.34,0,0,1-.34.34h-2.61a.34.34,0,0,1-.33-.34V101a.33.33,0,0,1,.33-.33h2.31a.32.32,0,0,1,.3.19l3.78,7.86a22.29,22.29,0,0,1,.88,2.1h.06c-.06-.74-.09-1.47-.09-2.24V101a.33.33,0,0,1,.33-.33h2.59a.33.33,0,0,1,.33.33v16.8a.34.34,0,0,1-.33.34Z"/><path class="cls-3" d="M277.63,118.28a7.88,7.88,0,0,1-2.66-.4,4,4,0,0,1-1.78-1.24c-.87-1.14-1-2.85-1-4.52v-5.5a11.6,11.6,0,0,1,.17-2.47,4.19,4.19,0,0,1,1.36-2.41,6,6,0,0,1,3.93-1.21,10.69,10.69,0,0,1,3.43.6.33.33,0,0,1,.21.38l-.49,2.2a.32.32,0,0,1-.32.26h-.08l-.37-.08-1-.21a6.89,6.89,0,0,0-1.41-.17,1.77,1.77,0,0,0-1.64.82,4,4,0,0,0-.34,1.92v6a4.7,4.7,0,0,0,.37,2.21,1.89,1.89,0,0,0,1.66.82h.68v-5a.33.33,0,0,1,.34-.33h2.72a.33.33,0,0,1,.34.33v7.16a.33.33,0,0,1-.19.29,5.65,5.65,0,0,1-1.4.44A13.55,13.55,0,0,1,277.63,118.28Z"/><polygon class="cls-6" points="298.49 30.63 247.1 30.63 354.31 92.53 354.31 62.86 298.49 30.63"/><path class="cls-5" d="M291.19,50.88a.28.28,0,0,1-.11-.38L299,36.81a.27.27,0,0,1,.38-.1l3.74,2.16a5.59,5.59,0,0,1,2.5,2.67,4,4,0,0,1-.09,2.6,13,13,0,0,1-1.15,2.3l-2.26,3.93a13.94,13.94,0,0,1-1.41,2.12,4,4,0,0,1-2.3,1.43,4.25,4.25,0,0,1-1.79-.12,9.17,9.17,0,0,1-1.91-.89Zm5-.36a1.61,1.61,0,0,0,1.65.22,3.93,3.93,0,0,0,1.11-1.41l3-5.13a3.92,3.92,0,0,0,.65-1.67c0-.64-.48-1-1-1.32l-1-.6-5.37,9.31Z"/><path class="cls-5" d="M303.39,57.93a.28.28,0,0,1-.1-.38l7.9-13.69a.28.28,0,0,1,.38-.11l7.18,4.15a.27.27,0,0,1,.1.38l-1.12,1.95a.28.28,0,0,1-.38.1l-4.62-2.67-2,3.42,3.61,2.08a.28.28,0,0,1,.11.38l-1.13,2a.27.27,0,0,1-.38.1l-3.61-2.08-2,3.46L312,59.64a.27.27,0,0,1,.1.38L311,62a.28.28,0,0,1-.38.1Z"/><path class="cls-5" d="M322.71,69.08a.28.28,0,0,1-.1-.38l5.24-9.28,0,0-.06,0c-.74.78-1.38,1.39-1.89,1.84l-3,2.57a.29.29,0,0,1-.32,0l-1.22-.7a.3.3,0,0,1-.13-.3l.83-3.8c.11-.64.3-1.38.48-2.11l.11-.45,0,0,0,0-5.32,9.08a.29.29,0,0,1-.38.1l-2.09-1.21a.28.28,0,0,1-.13-.17.31.31,0,0,1,0-.21l8.12-13.56a.28.28,0,0,1,.38-.1l2.33,1.35a.27.27,0,0,1,.14.27c-.19,1.47-.48,3.05-.73,4.45-.17.94-.33,1.88-.48,2.79h0c.71-.57,1.43-1.18,2.16-1.8,1.16-1,2.34-2,3.51-2.86a.27.27,0,0,1,.31,0L332.76,56a.29.29,0,0,1,.1.38l-7.7,13.81a.31.31,0,0,1-.17.13.29.29,0,0,1-.22,0Z"/><path class="cls-5" d="M332.45,74.89a4.62,4.62,0,0,1-2.62-3.35,6.22,6.22,0,0,1,1.09-3.74l2.94-5.09a6.26,6.26,0,0,1,2.7-2.78,4.6,4.6,0,0,1,4.22.53c1.62.94,2.48,2,2.63,3.33a6.36,6.36,0,0,1-1.06,3.75l-3,5.12a6.31,6.31,0,0,1-2.7,2.78A4.62,4.62,0,0,1,332.45,74.89Zm6.8-12.1A1.36,1.36,0,0,0,338,62.7,3.2,3.2,0,0,0,336.87,64l-3.35,5.8a3.15,3.15,0,0,0-.5,1.61,1.27,1.27,0,0,0,.7,1l.27.16a1.32,1.32,0,0,0,1.25.11,3.12,3.12,0,0,0,1.12-1.25l3.35-5.8a3.13,3.13,0,0,0,.56-1.61,1.4,1.4,0,0,0-.74-1Z"/></svg>