<svg xmlns="http://www.w3.org/2000/svg" viewBox="0 0 64 64"><defs><style>.cls-1{fill:#87d7f5;}.cls-2{fill:#c4ebfa;}.cls-3{fill:#0069a5;}</style></defs><title>icon-catalog-dataset-xl</title><g id="outline"><path class="cls-1" d="M55,17.65a4.09,4.09,0,0,0-2,.58l-2.8,1.63V17.1c0-3-1.71-4.35-3.39-4.35a4.09,4.09,0,0,0-2,.58l-2.7,1.57V12.3c0-3-1.7-4.35-3.39-4.35a4.09,4.09,0,0,0-2,.58l-2.8,1.61V7.4c0-3-1.71-4.35-3.39-4.35a4.09,4.09,0,0,0-2,.58L10.4,14C7.92,15.37,6,19,6,22.3V42c0,3,1.7,4.35,3.39,4.35a4.12,4.12,0,0,0,2-.58l2.8-1.63V46.8c0,2.7,1.31,4.45,3.35,4.45a4.38,4.38,0,0,0,2-.58l2.7-1.57v2.7c0,3,1.7,4.35,3.39,4.35a4.12,4.12,0,0,0,2-.58l2.8-1.63V56.6c0,3,1.7,4.35,3.39,4.35a4.12,4.12,0,0,0,2-.58L54,50a10.62,10.62,0,0,0,4.38-8.35V22C58.38,19,56.67,17.65,55,17.65Z"/><path class="cls-2" d="M29,34.4,10.88,44.9C8.78,46.1,7,44.8,7,42V22.3c0-2.9,1.7-6.2,3.9-7.4L29,4.5c2.1-1.2,3.9.1,3.9,2.9V27C32.88,29.9,31.18,33.2,29,34.4Z"/><path class="cls-2" d="M37.18,39.3,19.08,49.8c-2.2,1.2-3.9-.1-3.9-3V27.2c0-2.9,1.7-6.2,3.9-7.4L37.18,9.4c2.1-1.2,3.9.1,3.9,2.9V31.9C41.08,34.7,39.28,38.1,37.18,39.3Z"/><path class="cls-2" d="M45.28,44.2,27.18,54.7c-2.1,1.2-3.9-.1-3.9-2.9V32.1c0-2.9,1.7-6.2,3.9-7.4l18.1-10.5c2.1-1.2,3.9.1,3.9,2.9V36.7C49.18,39.6,47.48,43,45.28,44.2Z"/><path class="cls-2" d="M53.48,49.1,35.38,59.5c-2.1,1.2-3.9-.1-3.9-2.9V37c0-2.9,1.7-6.2,3.9-7.4l18.1-10.5c2.1-1.2,3.9.1,3.9,2.9V41.6A9.63,9.63,0,0,1,53.48,49.1Z"/><path class="cls-3" d="M55,16.7a5.2,5.2,0,0,0-2.5.7l-1.3.7v-1c0-3.7-2.2-5.4-4.3-5.4a5.2,5.2,0,0,0-2.5.7l-1.3.7v-.9c0-3.7-2.2-5.4-4.3-5.4a5.2,5.2,0,0,0-2.5.7L35,8.2v-1c0-3.7-2.2-5.4-4.3-5.4a5.2,5.2,0,0,0-2.5.7L9.88,13.2C7.08,14.8,5,18.7,5,22.3V41.9c0,3.7,2.2,5.4,4.3,5.4a5.2,5.2,0,0,0,2.5-.7l1.3-.7v1c0,3.7,2.2,5.4,4.3,5.4a5.2,5.2,0,0,0,2.5-.7l1.2-.7v1c0,3.7,2.2,5.4,4.3,5.4a4.38,4.38,0,0,0,2.5-.8l1.3-.7v1c0,3.7,2.2,5.4,4.3,5.4a5.2,5.2,0,0,0,2.5-.7L54.08,51c2.8-1.6,4.9-5.5,4.9-9.1V22.1C59.38,18.4,57.08,16.7,55,16.7ZM13.18,27.2V43.5l-2.3,1.3a4.42,4.42,0,0,1-1.5.5c-1.4,0-2.3-1.3-2.3-3.4V22.3c0-2.9,1.7-6.2,3.9-7.4L29,4.5a3,3,0,0,1,1.5-.5c1.4,0,2.3,1.3,2.3,3.4V9.5l-14.9,8.6C15.28,19.7,13.18,23.6,13.18,27.2Zm8.1,4.9V48.4L19,49.7a4.42,4.42,0,0,1-1.5.5c-1.3,0-2.3-1.2-2.3-3.4V27.2c0-2.8,1.7-6.2,3.9-7.4L37.18,9.3a4.42,4.42,0,0,1,1.5-.5c1.4,0,2.3,1.3,2.3,3.4v2.1L26.18,23C23.38,24.6,21.28,28.5,21.28,32.1Zm8.2,4.9V53.3l-2.3,1.4a4.42,4.42,0,0,1-1.5.5c-1.4,0-2.3-1.3-2.3-3.4V32.1c0-2.8,1.7-6.2,3.9-7.4l18.1-10.5a4.42,4.42,0,0,1,1.5-.5c1.4,0,2.3,1.3,2.3,3.4v2.1l-14.8,8.6A11.39,11.39,0,0,0,29.48,37Zm27.9,4.7c0,2.9-1.7,6.2-3.9,7.4L35.38,59.5a3,3,0,0,1-1.5.5c-1.4,0-2.3-1.3-2.3-3.4V37c0-2.9,1.7-6.2,3.9-7.4l18.1-10.5a4.42,4.42,0,0,1,1.5-.5c1.4,0,2.3,1.3,2.3,3.4Z"/></g></svg>