<svg xmlns="http://www.w3.org/2000/svg" viewBox="0 0 32 32"><defs><style>.cls-1{fill:#d70a5a;}.cls-2{fill:#f9dae6;}</style></defs><title>icon-dataset-not-public-md</title><g id="outline"><path class="cls-1" d="M24.31,13H23.5V9.5a7.5,7.5,0,0,0-15,0V13H7.69A1.69,1.69,0,0,0,6,14.69V28.31A1.69,1.69,0,0,0,7.69,30H24.31A1.69,1.69,0,0,0,26,28.31V14.69A1.69,1.69,0,0,0,24.31,13ZM21.5,13h-11V9.5a5.5,5.5,0,0,1,11,0Z"/><path class="cls-2" d="M24.31,14H7.69a.69.69,0,0,0-.69.69V28.31a.69.69,0,0,0,.69.69H24.31a.69.69,0,0,0,.69-.69V14.69A.69.69,0,0,0,24.31,14Zm-4.6,9.79a1,1,0,0,1,0,1.42,1,1,0,0,1-1.42,0L16,22.91l-2.29,2.3a1,1,0,0,1-1.42,0,1,1,0,0,1,0-1.42l2.3-2.29-2.3-2.29a1,1,0,0,1,1.42-1.42L16,20.09l2.29-2.3a1,1,0,0,1,1.42,1.42l-2.3,2.29Z"/></g></svg>