<svg xmlns="http://www.w3.org/2000/svg" viewBox="0 0 32 32"><defs><style>.cls-1{fill:#007d69;}.cls-2{fill:#d9ebe8;}</style></defs><title>icon-dataset-public-md</title><g id="outline"><path class="cls-1" d="M29.31,14H16V8.5a7.5,7.5,0,0,0-15,0V10a1,1,0,0,0,2,0V8.5a5.5,5.5,0,0,1,11,0V14H12.69A1.69,1.69,0,0,0,11,15.69V29.31A1.69,1.69,0,0,0,12.69,31H29.31A1.69,1.69,0,0,0,31,29.31V15.69A1.69,1.69,0,0,0,29.31,14Z"/><path class="cls-2" d="M29.31,15H12.69a.69.69,0,0,0-.69.69V29.31a.69.69,0,0,0,.69.69H29.31a.69.69,0,0,0,.69-.69V15.69A.69.69,0,0,0,29.31,15Zm-4,5.14-5,6a1,1,0,0,1-.73.36h0a1,1,0,0,1-.71-.29l-2-2a1,1,0,0,1,1.42-1.42L19.43,24l4.3-5.16a1,1,0,0,1,1.54,1.28Z"/></g></svg>