<svg id="outline" xmlns="http://www.w3.org/2000/svg" viewBox="0 0 32 32"><defs><style>.cls-1{fill:#885b00;}.cls-2{fill:#fff2d8;}</style></defs><title>icon-dataset-restricted-md</title><path class="cls-1" d="M2.69,14H16.5V8.5a5.5,5.5,0,0,0-11,0V10a1,1,0,0,1-2,0V8.5a7.5,7.5,0,0,1,15,0V14h.81A1.69,1.69,0,0,1,21,15.69V29.31A1.69,1.69,0,0,1,19.31,31H2.69A1.69,1.69,0,0,1,1,29.31V15.69A1.69,1.69,0,0,1,2.69,14Z"/><path class="cls-2" d="M2,15.69V29.31a.69.69,0,0,0,.69.69H19.31a.69.69,0,0,0,.69-.69V15.69a.69.69,0,0,0-.69-.69H2.69A.69.69,0,0,0,2,15.69ZM6.67,22.5a1,1,0,0,1,1-1h6.66a1,1,0,0,1,0,2H7.67A1,1,0,0,1,6.67,22.5Z"/></svg>