<svg id="outline" xmlns="http://www.w3.org/2000/svg" viewBox="0 0 32 32"><defs><style>.cls-1{fill:#ffebf0;}.cls-2{fill:#d70a5a;}</style></defs><title>icon-api-access-limited</title><path class="cls-1" d="M16,7c-6.2,0-11.6,3.6-14.7,9a.91.91,0,0,0,0,1c3.1,5.4,8.5,9,14.7,9s11.6-3.6,14.7-9a.91.91,0,0,0,0-1C27.64,10.6,22.24,7,16,7Z"/><path class="cls-2" d="M31.24,15.8a12.74,12.74,0,0,0-1.3-1.9l.5-.5a.62.62,0,0,0,.1-.7.62.62,0,0,0-.7-.1l-.5.4a22,22,0,0,0-3.1-3l.6-.9a.5.5,0,0,0-.8-.6l-.6.9a2.09,2.09,0,0,1-.6-.4l1.9-1.9a1,1,0,0,0-1.4-1.4L23,8.1c-.4-.2-.9-.4-1.4-.6L22,6.2a.47.47,0,1,0-.9-.3l-.5,1.3A13.53,13.53,0,0,0,17,6.5V5a.5.5,0,0,0-1,0V6.5a14.87,14.87,0,0,0-4.7.7l-.5-1.3a.45.45,0,0,0-.6-.3c-.2,0-.4.3-.3.6l.5,1.3a16.88,16.88,0,0,0-3.8,1.9L6,8.6a.53.53,0,0,0-.7-.2.49.49,0,0,0-.1.7l.6.9a29.12,29.12,0,0,0-3.1,3l-.5-.4a.49.49,0,0,0-.7.1.43.43,0,0,0,.1.7l.5.5c-.4.6-.9,1.3-1.3,1.9a1.36,1.36,0,0,0,0,1.5A19.35,19.35,0,0,0,7.14,24l-1.9,1.9a1,1,0,0,0,0,1.4,2.35,2.35,0,0,0,.8.2.91.91,0,0,0,.7-.3L9,24.9a17.05,17.05,0,0,0,7,1.6c6.2,0,11.8-3.5,15.2-9.2A2,2,0,0,0,31.24,15.8ZM7.94,23.2a18.14,18.14,0,0,1-6.2-6.4.45.45,0,0,1,0-.5c3.2-5.5,8.5-8.8,14.3-8.8a16.9,16.9,0,0,1,6.3,1.3l-2.1,2.1A6.85,6.85,0,0,0,16,9.5a7,7,0,0,0-7,7,6.85,6.85,0,0,0,1.4,4.2Zm5.6-9.7a1.5,1.5,0,0,1,0,3,1.57,1.57,0,0,1-1.4-.9,2.77,2.77,0,0,0-.1.9,3.61,3.61,0,0,0,.6,2L11.14,20a6,6,0,0,1,8.4-8.4L18,13.1a3.61,3.61,0,0,0-2-.6,4,4,0,0,0-2.6,1Zm.5,6.4a3.61,3.61,0,0,0,2,.6,4,4,0,0,0,4-4,3.61,3.61,0,0,0-.6-2l1.5-1.5a6,6,0,0,1-8.4,8.4Zm16.3-3.1c-3.2,5.4-8.5,8.7-14.3,8.7a16.9,16.9,0,0,1-6.3-1.3l2.1-2.1A6.85,6.85,0,0,0,16,23.5a7,7,0,0,0,7-7,6.85,6.85,0,0,0-1.4-4.2l2.5-2.5a18.14,18.14,0,0,1,6.2,6.4A.64.64,0,0,1,30.34,16.8Z"/></svg>