<svg id="outline" xmlns="http://www.w3.org/2000/svg" viewBox="0 0 32 32"><defs><style>.cls-1{fill:#c4ebfa;}.cls-2{fill:#fff;}.cls-3{fill:#0069a5;}</style></defs><title>icon-report-concept</title><path class="cls-1" d="M27.5,6.5v24H7.25A2.75,2.75,0,0,1,4.5,27.75V4"/><polygon class="cls-2" points="13 6.5 13 19 11 17 9 19 9 6.5 13 6.5"/><path class="cls-2" d="M27.5,1.5a2.5,2.5,0,0,0,0,5H7a2.5,2.5,0,0,1,0-5Z"/><polygon class="cls-2" points="13 7 13 19 11 17 9 19 9 7 13 7"/><path class="cls-3" d="M27.5,6a2,2,0,0,1,0-4,.5.5,0,0,0,0-1H7A3,3,0,0,0,4,4V27.75A3.26,3.26,0,0,0,7.25,31H27.5a.5.5,0,0,0,.5-.5V6.5A.5.5,0,0,0,27.5,6ZM7,2H25.27a3,3,0,0,0,0,4H7A2,2,0,0,1,7,2ZM9,7h4V19l-2-2L9,19ZM27,30H7.25A2.25,2.25,0,0,1,5,27.75V6.22A3,3,0,0,0,7,7H8V21.41l1.71-1.7L11,18.41l1.29,1.3L14,21.41V7H27Z"/></svg>