<svg xmlns="http://www.w3.org/2000/svg" viewBox="0 0 32 32"><defs><style>.cls-1{fill:#c4ebfa;}.cls-2{fill:#0069a5;}.cls-3{opacity:0.98;}</style></defs><title>icon-catalog-dataset-md</title><g id="outline"><path class="cls-1" d="M27.41,8.33h0a2.57,2.57,0,0,0-1.27.37l-.64.37V8.59c0-1.86-1.12-2.7-2.17-2.7h0a2.5,2.5,0,0,0-1.27.37l-.63.36V6.14c0-1.85-1.13-2.7-2.17-2.7h0A2.57,2.57,0,0,0,18,3.81l-.63.37V3.7c0-1.86-1.13-2.7-2.17-2.7h0a2.44,2.44,0,0,0-1.27.37L4.86,6.59a5.6,5.6,0,0,0-2.44,4.58V21c0,1.85,1.13,2.7,2.17,2.7a2.57,2.57,0,0,0,1.27-.37l.64-.37v.48c0,1.86,1.12,2.7,2.17,2.7a2.5,2.5,0,0,0,1.27-.37l.63-.36v.48c0,1.85,1.13,2.7,2.17,2.7A2.57,2.57,0,0,0,14,28.19l.63-.37v.48c0,1.86,1.13,2.7,2.17,2.7a2.44,2.44,0,0,0,1.27-.37l9.06-5.22a5.6,5.6,0,0,0,2.44-4.58V11C29.58,9.18,28.45,8.33,27.41,8.33Z"/><path class="cls-2" d="M27.41,8.33h0a2.57,2.57,0,0,0-1.27.37l-.64.37V8.59c0-1.86-1.12-2.7-2.17-2.7h0a2.5,2.5,0,0,0-1.27.37l-.63.36V6.14c0-1.85-1.13-2.7-2.17-2.7h0A2.57,2.57,0,0,0,18,3.81l-.63.37V3.7c0-1.86-1.13-2.7-2.17-2.7h0a2.44,2.44,0,0,0-1.27.37L4.86,6.59a5.6,5.6,0,0,0-2.44,4.58V21c0,1.85,1.13,2.7,2.17,2.7a2.57,2.57,0,0,0,1.27-.37l.64-.37v.48c0,1.86,1.12,2.7,2.17,2.7a2.5,2.5,0,0,0,1.27-.37l.63-.36v.48c0,1.85,1.13,2.7,2.17,2.7A2.57,2.57,0,0,0,14,28.19l.63-.37v.48c0,1.86,1.13,2.7,2.17,2.7a2.44,2.44,0,0,0,1.27-.37l9.06-5.22a5.6,5.6,0,0,0,2.44-4.58V11C29.58,9.18,28.45,8.33,27.41,8.33ZM6.5,13.61v8.17l-1.14.65c-1.07.62-1.94,0-1.94-1.46v-9.8A4.66,4.66,0,0,1,5.36,7.46l9.06-5.23c1.07-.62,1.94,0,1.94,1.47V4.76L8.94,9A5.56,5.56,0,0,0,6.5,13.61Zm4.07,2.45v8.16l-1.13.66c-1.08.62-1.94,0-1.94-1.47v-9.8A4.63,4.63,0,0,1,9.44,9.9l9-5.22c1.07-.62,1.94,0,1.94,1.46V7.2L13,11.48A5.6,5.6,0,0,0,10.57,16.06Zm4.07,2.44v8.17l-1.13.65c-1.07.62-1.94,0-1.94-1.46v-9.8a4.66,4.66,0,0,1,1.94-3.71l9-5.23c1.08-.62,1.94,0,1.94,1.47V9.64l-7.42,4.29A5.58,5.58,0,0,0,14.64,18.5Zm13.94,2.33a4.66,4.66,0,0,1-1.94,3.71l-9.06,5.23c-1.07.62-1.94,0-1.94-1.47V18.5a4.66,4.66,0,0,1,1.94-3.71l9.06-5.22c1.07-.62,1.94,0,1.94,1.46Z"/></g><g id="pp_report" data-name="pp report"><g class="cls-3"><path class="cls-1" d="M4.59,23.17c-.83,0-1.67-.68-1.67-2.2v-9.8A5.11,5.11,0,0,1,5.11,7L14.17,1.8a2,2,0,0,1,1-.3c.83,0,1.67.68,1.67,2.2v9.8a5.15,5.15,0,0,1-2.19,4.14L5.61,22.87A2,2,0,0,1,4.59,23.17Z"/><path class="cls-2" d="M15.19,2c.68,0,1.17.64,1.17,1.7v9.8a4.66,4.66,0,0,1-1.94,3.71L5.36,22.43a1.53,1.53,0,0,1-.77.24c-.69,0-1.17-.64-1.17-1.7v-9.8A4.66,4.66,0,0,1,5.36,7.46l9.06-5.23A1.51,1.51,0,0,1,15.19,2m0-1h0a2.44,2.44,0,0,0-1.27.37L4.86,6.59a5.6,5.6,0,0,0-2.44,4.58V21c0,1.85,1.13,2.7,2.17,2.7a2.57,2.57,0,0,0,1.27-.37l9.06-5.23a5.58,5.58,0,0,0,2.44-4.57V3.7c0-1.86-1.13-2.7-2.17-2.7Z"/><path class="cls-1" d="M8.67,25.61c-.84,0-1.67-.68-1.67-2.2v-9.8A5.13,5.13,0,0,1,9.19,9.47l9-5.22a2,2,0,0,1,1-.31c.83,0,1.67.68,1.67,2.2v9.8a5.1,5.1,0,0,1-2.19,4.14l-9,5.23A2.05,2.05,0,0,1,8.67,25.61Z"/><path class="cls-2" d="M19.26,4.44c.69,0,1.17.64,1.17,1.7v9.8a4.66,4.66,0,0,1-1.94,3.71l-9,5.23a1.56,1.56,0,0,1-.77.23c-.69,0-1.17-.63-1.17-1.7v-9.8A4.63,4.63,0,0,1,9.44,9.9l9-5.22a1.53,1.53,0,0,1,.77-.24m0-1h0A2.57,2.57,0,0,0,18,3.81L8.94,9A5.56,5.56,0,0,0,6.5,13.61v9.8c0,1.86,1.12,2.7,2.17,2.7a2.5,2.5,0,0,0,1.27-.37l9-5.22a5.6,5.6,0,0,0,2.44-4.58V6.14c0-1.85-1.12-2.7-2.17-2.7Z"/><path class="cls-1" d="M12.74,28.06c-.83,0-1.67-.68-1.67-2.2v-9.8a5.1,5.1,0,0,1,2.19-4.14l9-5.23a2.05,2.05,0,0,1,1-.3c.84,0,1.67.68,1.67,2.2v9.8a5.13,5.13,0,0,1-2.19,4.14l-9,5.22A2,2,0,0,1,12.74,28.06Z"/><path class="cls-2" d="M23.33,6.89c.69,0,1.17.63,1.17,1.7v9.8a4.63,4.63,0,0,1-1.94,3.71l-9,5.22a1.53,1.53,0,0,1-.77.24c-.69,0-1.17-.64-1.17-1.7v-9.8a4.66,4.66,0,0,1,1.94-3.71l9-5.23a1.56,1.56,0,0,1,.77-.23m0-1h0a2.5,2.5,0,0,0-1.27.37l-9,5.22a5.6,5.6,0,0,0-2.44,4.58v9.8c0,1.85,1.13,2.7,2.17,2.7A2.57,2.57,0,0,0,14,28.19l9-5.23a5.56,5.56,0,0,0,2.44-4.57V8.59c0-1.86-1.12-2.7-2.17-2.7Z"/><path class="cls-1" d="M16.81,30.5c-.83,0-1.67-.68-1.67-2.2V18.5a5.15,5.15,0,0,1,2.19-4.14l9.06-5.23a2,2,0,0,1,1-.3c.83,0,1.67.68,1.67,2.2v9.8A5.11,5.11,0,0,1,26.89,25L17.83,30.2A2,2,0,0,1,16.81,30.5Z"/><path class="cls-2" d="M27.41,9.33c.69,0,1.17.64,1.17,1.7v9.8a4.66,4.66,0,0,1-1.94,3.71l-9.06,5.23a1.51,1.51,0,0,1-.77.23c-.68,0-1.17-.64-1.17-1.7V18.5a4.66,4.66,0,0,1,1.94-3.71l9.06-5.22a1.53,1.53,0,0,1,.77-.24m0-1h0a2.57,2.57,0,0,0-1.27.37l-9.06,5.23a5.58,5.58,0,0,0-2.44,4.57v9.8c0,1.86,1.13,2.7,2.17,2.7a2.44,2.44,0,0,0,1.27-.37l9.06-5.22a5.6,5.6,0,0,0,2.44-4.58V11c0-1.85-1.13-2.7-2.17-2.7Z"/></g></g></svg>