
<svg xmlns="http://www.w3.org/2000/svg" viewBox="0 0 48 48"><defs><style>.cls-1{fill:#0069a5;}.cls-2{fill:#c4ebfa;}</style></defs><title>icon-catalog-api-lg</title><g id="outline"><path class="cls-1" d="M45.62,19.21l-6-1.5c-.18-.43-.36-.84-.55-1.22l3-5a.5.5,0,0,0-.07-.61L36.52,5.4a.5.5,0,0,0-.61-.07L30.6,8.51c-.45-.19-.86-.35-1.26-.48L27.93,2.38A.51.51,0,0,0,27.44,2H19.7a.51.51,0,0,0-.49.38l-1.5,6c-.43.18-.84.36-1.22.55l-5-3a.5.5,0,0,0-.61.07L5.4,11.48a.5.5,0,0,0-.07.61L8.51,17.4c-.19.45-.35.86-.48,1.26L2.38,20.07a.51.51,0,0,0-.38.49V28.3a.51.51,0,0,0,.38.49l6,1.5c.18.43.36.84.55,1.22l-3,5a.5.5,0,0,0,.07.61l5.47,5.48a.5.5,0,0,0,.61.07l5.31-3.18c.45.19.86.35,1.26.48l1.41,5.65a.51.51,0,0,0,.49.38H28.3a.51.51,0,0,0,.49-.38l1.5-6c.43-.18.84-.36,1.22-.55l5,3a.5.5,0,0,0,.61-.07l5.48-5.47a.5.5,0,0,0,.07-.61L39.49,30.6c.19-.45.35-.86.48-1.26l5.65-1.41a.51.51,0,0,0,.38-.49V19.7A.51.51,0,0,0,45.62,19.21ZM24,31a7,7,0,1,1,7-7A7,7,0,0,1,24,31Z"/><path class="cls-2" d="M45,27.05l-5.54,1.38a.5.5,0,0,0-.35.34c-.17.52-.38,1.06-.64,1.66a.47.47,0,0,0,0,.46l3.11,5.19L36.69,41l-4.9-2.94a.5.5,0,0,0-.49,0,16.17,16.17,0,0,1-1.61.72.5.5,0,0,0-.31.35L27.91,45H21l-1.38-5.54a.5.5,0,0,0-.34-.35c-.52-.17-1.06-.38-1.66-.64a.47.47,0,0,0-.46,0l-5.19,3.11L7,36.69l2.94-4.9a.5.5,0,0,0,0-.49,16.17,16.17,0,0,1-.72-1.61.5.5,0,0,0-.35-.31L3,27.91V21l5.54-1.38a.5.5,0,0,0,.35-.34c.17-.52.38-1.06.64-1.66a.47.47,0,0,0,0-.46L6.39,11.92,11.31,7l4.9,2.94a.5.5,0,0,0,.49,0,16.17,16.17,0,0,1,1.61-.72.5.5,0,0,0,.31-.35L20.09,3h7l1.38,5.54a.5.5,0,0,0,.34.35c.52.17,1.06.38,1.66.64a.47.47,0,0,0,.46,0l5.19-3.11L41,11.31l-2.94,4.9a.5.5,0,0,0,0,.49,16.17,16.17,0,0,1,.72,1.61.5.5,0,0,0,.35.31L45,20.09ZM24,16a8,8,0,1,0,8,8A8,8,0,0,0,24,16Z"/></g></svg>