<svg id="outline" xmlns="http://www.w3.org/2000/svg" viewBox="0 0 32 32"><defs><style>.cls-1{fill:#c4ebfa;}.cls-2{fill:#0069a5;}</style></defs><title>icon-report-feed</title><circle class="cls-1" cx="4.66" cy="27.34" r="3.16"/><path class="cls-2" d="M4.66,31a3.67,3.67,0,1,1,3.67-3.66A3.66,3.66,0,0,1,4.66,31Zm0-6.33a2.67,2.67,0,1,0,2.67,2.67A2.67,2.67,0,0,0,4.66,24.67Z"/><path class="cls-1" d="M18.9,27.34H12.57a7.92,7.92,0,0,0-7.91-7.91V13.1A14.26,14.26,0,0,1,18.9,27.34Z"/><path class="cls-2" d="M18.9,27.84H12.57a.51.51,0,0,1-.5-.5,7.41,7.41,0,0,0-7.41-7.41.51.51,0,0,1-.5-.5V13.1a.5.5,0,0,1,.5-.5A14.75,14.75,0,0,1,19.4,27.34.5.5,0,0,1,18.9,27.84Zm-5.84-1h5.33A13.76,13.76,0,0,0,5.16,13.61v5.33A8.43,8.43,0,0,1,13.06,26.84Z"/><path class="cls-1" d="M30.5,27.34H24.17A19.53,19.53,0,0,0,4.66,7.83V1.5A25.87,25.87,0,0,1,30.5,27.34Z"/><path class="cls-2" d="M30.5,27.84H24.17a.51.51,0,0,1-.5-.5,19,19,0,0,0-19-19,.51.51,0,0,1-.5-.5V1.5a.5.5,0,0,1,.5-.5A26.36,26.36,0,0,1,31,27.34.5.5,0,0,1,30.5,27.84Zm-5.83-1H30A25.38,25.38,0,0,0,5.16,2V7.33A20.05,20.05,0,0,1,24.67,26.84Z"/></svg>