<svg id="outline" xmlns="http://www.w3.org/2000/svg" viewBox="0 0 32 32"><defs><style>.cls-1{fill:#ed9300;}.cls-2{fill:#444f55;}</style></defs><title>icon-catalog-dataset-nap-md</title><path class="cls-1" d="M27.41,8.33h0a2.57,2.57,0,0,0-1.27.37l-.64.37V8.59c0-1.86-1.12-2.7-2.17-2.7h0a2.5,2.5,0,0,0-1.27.37l-.63.36V6.14c0-1.85-1.13-2.7-2.17-2.7h0A2.57,2.57,0,0,0,18,3.81l-.63.37V3.7c0-1.86-1.13-2.7-2.17-2.7h0a2.44,2.44,0,0,0-1.27.37L4.86,6.59a5.6,5.6,0,0,0-2.44,4.58V21c0,1.85,1.13,2.7,2.17,2.7a2.57,2.57,0,0,0,1.27-.37l.64-.37v.48c0,1.86,1.12,2.7,2.17,2.7a2.5,2.5,0,0,0,1.27-.37l.63-.36v.48c0,1.85,1.13,2.7,2.17,2.7A2.57,2.57,0,0,0,14,28.19l.63-.37v.48c0,1.86,1.13,2.7,2.17,2.7a2.44,2.44,0,0,0,1.27-.37l9.06-5.22a5.6,5.6,0,0,0,2.44-4.58V11C29.58,9.18,28.45,8.33,27.41,8.33Z"/><path class="cls-2" d="M27.41,8.33h0a2.57,2.57,0,0,0-1.27.37l-.64.37V8.59c0-1.86-1.12-2.7-2.17-2.7h0a2.5,2.5,0,0,0-1.27.37l-.63.36V6.14c0-1.85-1.13-2.7-2.17-2.7h0A2.57,2.57,0,0,0,18,3.81l-.63.37V3.7c0-1.86-1.13-2.7-2.17-2.7h0a2.44,2.44,0,0,0-1.27.37L4.86,6.59a5.6,5.6,0,0,0-2.44,4.58V21c0,1.85,1.13,2.7,2.17,2.7a2.57,2.57,0,0,0,1.27-.37l.64-.37v.48c0,1.86,1.12,2.7,2.17,2.7a2.5,2.5,0,0,0,1.27-.37l.63-.36v.48c0,1.85,1.13,2.7,2.17,2.7A2.57,2.57,0,0,0,14,28.19l.63-.37v.48c0,1.86,1.13,2.7,2.17,2.7a2.44,2.44,0,0,0,1.27-.37l9.06-5.22a5.6,5.6,0,0,0,2.44-4.58V11C29.58,9.18,28.45,8.33,27.41,8.33ZM6.5,13.61v8.17l-1.14.65c-1.07.62-1.94,0-1.94-1.46v-9.8A4.66,4.66,0,0,1,5.36,7.46l9.06-5.23c1.07-.62,1.94,0,1.94,1.47V4.76L8.94,9A5.56,5.56,0,0,0,6.5,13.61Zm4.07,2.45v8.16l-1.13.66c-1.08.62-1.94,0-1.94-1.47v-9.8A4.63,4.63,0,0,1,9.44,9.9l9-5.22c1.07-.62,1.94,0,1.94,1.46V7.2L13,11.48A5.6,5.6,0,0,0,10.57,16.06Zm4.07,2.44v8.17l-1.13.65c-1.07.62-1.94,0-1.94-1.46v-9.8a4.66,4.66,0,0,1,1.94-3.71l9-5.23c1.08-.62,1.94,0,1.94,1.47V9.64l-7.42,4.29A5.58,5.58,0,0,0,14.64,18.5Zm13.94,2.33a4.66,4.66,0,0,1-1.94,3.71l-9.06,5.23c-1.07.62-1.94,0-1.94-1.47V18.5a4.66,4.66,0,0,1,1.94-3.71l9.06-5.22c1.07-.62,1.94,0,1.94,1.46Z"/></svg>