<?xml version="1.0" encoding="utf-8"?>
<!-- Generator: Adobe Illustrator 23.0.1, SVG Export Plug-In . SVG Version: 6.00 Build 0)  -->
<svg version="1.1" id="outline" xmlns="http://www.w3.org/2000/svg" xmlns:xlink="http://www.w3.org/1999/xlink" x="0px" y="0px"
	 viewBox="0 0 64 64" style="enable-background:new 0 0 64 64;" xml:space="preserve">
<style type="text/css">
	.st0{fill:#FFFFFF;}
	.st1{fill:#93E8CA;}
	.st2{fill:#28D296;}
</style>
<title>icon-catalogue-begrep-2</title>
<path class="st0" d="M55,3c-2.9,0.1-5.2,2.6-5.1,5.5c0.1,2.8,2.3,5,5.1,5.1H13.8c-2.9-0.1-5.2-2.6-5.1-5.5c0.1-2.8,2.3-5,5.1-5.1H55
	z"/>
<path class="st1" d="M55.2,13.6V61H14.1c-2.9,0-5.3-2.4-5.3-5.3V8.3c0,2.9,2.4,5.3,5.3,5.3L55.2,13.6z"/>
<polygon class="st0" points="27.6,13.6 27.6,37.8 22.3,32.5 17,37.8 17,13.6 "/>
<path class="st2" d="M55.2,12.6H55c-2.2-0.1-4-1.9-4.1-4.1C50.8,6.1,52.6,4.1,55,4c0.6,0,1-0.4,1-1s-0.4-1-1-1H13.8
	c-3.3,0.1-5.9,2.8-6.1,6.1c0,0.1,0,0.1,0,0.2c0,0,0,0,0,0v47.4c0,3.5,2.8,6.3,6.3,6.3h41.1c0.6,0,1-0.4,1-1V13.6
	C56.2,13.1,55.8,12.6,55.2,12.6z M13.8,4h36.5c-2.3,2.4-2.3,6.2,0,8.6H27.6H17h-2.9c-0.3,0-0.6,0-0.8-0.1c0,0,0,0-0.1,0
	c-2-0.4-3.4-2.1-3.4-4.2c0,0,0-0.1,0-0.1C9.8,6,11.6,4.1,13.8,4z M18,14.6h8.7v20.8L23,31.7c-0.2-0.2-0.4-0.3-0.7-0.3h0
	c-0.3,0-0.5,0.1-0.7,0.3L18,35.4V14.6z M54.2,60H14.1c-2.4,0-4.3-1.9-4.3-4.3V12.9c0.1,0.1,0.3,0.3,0.4,0.4c0,0,0,0,0,0
	c0.1,0.1,0.3,0.2,0.5,0.3c0,0,0,0,0,0c0.2,0.1,0.3,0.2,0.5,0.3c0,0,0,0,0.1,0c0.2,0.1,0.3,0.1,0.5,0.2c0,0,0.1,0,0.1,0
	c0.2,0.1,0.3,0.1,0.5,0.2c0,0,0.1,0,0.1,0c0.2,0,0.3,0.1,0.5,0.1c0,0,0.1,0,0.1,0c0.1,0,0.3,0,0.5,0.1c0.1,0,0.1,0,0.2,0
	c0.1,0,0.2,0,0.3,0h0.2H16v23.2c0,0.4,0.2,0.8,0.6,0.9c0.1,0.1,0.2,0.1,0.4,0.1c0.3,0,0.5-0.1,0.7-0.3l4.6-4.6l4.6,4.6
	c0.3,0.3,0.7,0.4,1.1,0.2c0.4-0.2,0.6-0.5,0.6-0.9V14.6h25.6V60z"/>
</svg>
