<svg id="outline" xmlns="http://www.w3.org/2000/svg" viewBox="0 0 32 32"><defs><style>.cls-1{fill:#ffebf0;}.cls-2{fill:#d70a5a;}</style></defs><title>icon-api-cost</title><path class="cls-1" d="M28.82,9.7l-.7-4a2.59,2.59,0,0,0-2.6-2.2H25L3.72,7.3A2.45,2.45,0,0,0,2,8.4a2.88,2.88,0,0,0-.5,2l2,11.3v4.1a2.69,2.69,0,0,0,2.7,2.7h21.6a2.69,2.69,0,0,0,2.7-2.7V12.2A2.72,2.72,0,0,0,28.82,9.7Z"/><path class="cls-2" d="M29.32,9.4l-.7-3.7A3.12,3.12,0,0,0,25.52,3h-.6L3.62,6.8A3.2,3.2,0,0,0,1,10.5H1L3,21.6v4.2A3.16,3.16,0,0,0,6.22,29h21.6A3.16,3.16,0,0,0,31,25.8V12.2A3.16,3.16,0,0,0,29.32,9.4ZM3.82,7.8h0L25.12,4h.4a2.07,2.07,0,0,1,2.1,1.8l.6,3.2h-22A3.16,3.16,0,0,0,3,12.2v3.7L2,10.3A2.16,2.16,0,0,1,3.82,7.8ZM30,25.8a2.22,2.22,0,0,1-2.2,2.2H6.22A2.22,2.22,0,0,1,4,25.8V25H30ZM4,21V12.2A2.22,2.22,0,0,1,6.22,10h21.6A2.22,2.22,0,0,1,30,12.2V21Z"/></svg>