<svg xmlns="http://www.w3.org/2000/svg" viewBox="0 0 32 32"><defs><style>.cls-1{fill:#885b00;}.cls-2{fill:#fff2d8;}</style></defs><title>icon-dataset-restricted-md</title><g id="outline"><path class="cls-1" d="M24.31,14H10.5V8.5a5.5,5.5,0,0,1,11,0V10a1,1,0,0,0,2,0V8.5a7.5,7.5,0,0,0-15,0V14H7.69A1.69,1.69,0,0,0,6,15.69V29.31A1.69,1.69,0,0,0,7.69,31H24.31A1.69,1.69,0,0,0,26,29.31V15.69A1.69,1.69,0,0,0,24.31,14Z"/><path class="cls-2" d="M24.31,15H7.69a.69.69,0,0,0-.69.69V29.31a.69.69,0,0,0,.69.69H24.31a.69.69,0,0,0,.69-.69V15.69A.69.69,0,0,0,24.31,15Zm-5,8.5H12.67a1,1,0,0,1,0-2h6.66a1,1,0,0,1,0,2Z"/></g></svg>