<svg id="outline" xmlns="http://www.w3.org/2000/svg" viewBox="0 0 32 32"><defs><style>.cls-1{fill:#c4ebfa;}.cls-2{fill:#0069a5;}</style></defs><title>icon-small-authoritative</title><polygon class="cls-1" points="16 2.69 20.33 11.45 30 12.86 23 19.68 24.65 29.32 16 24.77 7.35 29.32 9 19.68 2 12.86 11.67 11.45 16 2.69"/><path class="cls-2" d="M16,2.69l4.33,8.76L30,12.86l-7,6.82,1.65,9.63L16,24.77,7.35,29.31,9,19.68,2,12.86l9.67-1.41L16,2.69m0-1a1,1,0,0,0-.9.55L11,10.54,1.86,11.87a1,1,0,0,0-.56,1.7L7.93,20,6.36,29.15a1,1,0,0,0,.4,1,1,1,0,0,0,.59.19.92.92,0,0,0,.46-.11L16,25.9l8.19,4.3a.92.92,0,0,0,.46.11,1,1,0,0,0,.59-.19,1,1,0,0,0,.4-1L24.07,20l6.63-6.46a1,1,0,0,0-.56-1.7L21,10.54,16.9,2.24a1,1,0,0,0-.9-.55Z"/></svg>