<svg id="outline" xmlns="http://www.w3.org/2000/svg" viewBox="0 0 32 32"><defs><style>.cls-1{fill:#dcfaf0;}.cls-2{fill:#007d69;}</style></defs><title>icon-dataset-open</title><rect class="cls-1" x="11" y="14" width="20" height="17" rx="1.69"/><path class="cls-2" d="M29.31,14H16V8.5a7.5,7.5,0,0,0-15,0V10a1,1,0,0,0,2,0V8.5a5.5,5.5,0,0,1,11,0V14H12.69A1.69,1.69,0,0,0,11,15.69V29.31A1.69,1.69,0,0,0,12.69,31H29.31A1.69,1.69,0,0,0,31,29.31V15.69A1.69,1.69,0,0,0,29.31,14Zm0,1a.69.69,0,0,1,.69.69V29.31a.69.69,0,0,1-.69.69H12.69a.69.69,0,0,1-.69-.69V15.69a.69.69,0,0,1,.69-.69Z"/><path class="cls-2" d="M19.5,26.5a1,1,0,0,1-.71-.29l-2-2a1,1,0,0,1,1.42-1.42L19.43,24l4.3-5.16a1,1,0,0,1,1.54,1.28l-5,6a1,1,0,0,1-.73.36Z"/></svg>