<svg id="outline" xmlns="http://www.w3.org/2000/svg" viewBox="0 0 32 32"><defs><style>.cls-1{fill:#ffebf0;}.cls-2{fill:#d70a5a;}</style></defs><title>icon-dataset-closed</title><rect class="cls-1" x="7" y="14" width="18" height="15" rx="0.69"/><path class="cls-2" d="M24.31,13H23.5V9.5a7.5,7.5,0,0,0-15,0V13H7.69A1.69,1.69,0,0,0,6,14.69V28.31A1.69,1.69,0,0,0,7.69,30H24.31A1.69,1.69,0,0,0,26,28.31V14.69A1.69,1.69,0,0,0,24.31,13ZM10.5,9.5a5.5,5.5,0,0,1,11,0V13h-11ZM24.31,14a.69.69,0,0,1,.69.69V28.31a.69.69,0,0,1-.69.69H7.69A.69.69,0,0,1,7,28.31V14.69A.69.69,0,0,1,7.69,14Z"/><path class="cls-2" d="M17.41,21.5l2.3-2.29a1,1,0,0,0-1.42-1.42L16,20.09l-2.29-2.3a1,1,0,0,0-1.42,1.42l2.3,2.29-2.3,2.29a1,1,0,0,0,0,1.42,1,1,0,0,0,1.42,0L16,22.91l2.29,2.3a1,1,0,0,0,1.42,0,1,1,0,0,0,0-1.42Z"/></svg>