<svg xmlns="http://www.w3.org/2000/svg" viewBox="0 0 396 275"><defs><style>.cls-1{fill:#445055;}.cls-2{fill:#dadada;}.cls-3{fill:#f39200;}</style></defs><title>illustration-search-nap</title><g id="outline"><polygon class="cls-1" points="62.26 12.62 97.94 48.3 97.94 30.46 80.1 12.62 62.26 12.62"/><polygon class="cls-2" points="97.94 48.3 97.94 30.46 115.78 48.3 97.94 48.3"/><polygon class="cls-3" points="97.94 12.62 133.63 48.3 133.63 30.46 115.79 12.62 97.94 12.62"/><polygon class="cls-1" points="133.62 12.62 169.3 48.3 169.3 30.46 151.46 12.62 133.62 12.62"/><polygon class="cls-2" points="169.3 48.3 169.3 30.46 187.15 48.3 169.3 48.3"/><polygon class="cls-3" points="169.3 12.62 204.99 48.3 204.99 30.46 187.15 12.62 169.3 12.62"/><polygon class="cls-1" points="204.98 12.62 240.66 48.3 240.66 30.46 222.82 12.62 204.98 12.62"/><polygon class="cls-2" points="240.66 48.3 240.66 30.46 258.51 48.3 240.66 48.3"/><polygon class="cls-3" points="240.66 12.62 275.85 47.81 275.85 29.96 258.51 12.62 240.66 12.62"/><polygon class="cls-1" points="276.34 12.62 312.02 48.3 312.02 30.46 294.18 12.62 276.34 12.62"/><polygon class="cls-2" points="312.02 48.3 312.02 30.46 329.87 48.3 312.02 48.3"/><polygon class="cls-3" points="312.51 12.62 347.7 47.81 347.7 29.96 330.36 12.62 312.51 12.62"/><polygon class="cls-1" points="347.7 12.62 383.38 48.3 383.38 30.46 365.55 12.62 347.7 12.62"/><polygon class="cls-1" points="133.62 83.98 133.62 66.14 115.78 48.3 97.94 48.3 133.62 83.98"/><polygon class="cls-2" points="133.62 83.98 133.62 66.14 151.47 83.98 133.62 83.98"/><polygon class="cls-3" points="169.31 83.98 169.31 66.14 151.47 48.3 133.62 48.3 169.31 83.98"/><polygon class="cls-1" points="204.98 83.98 204.98 66.14 187.14 48.3 169.3 48.3 204.98 83.98"/><polygon class="cls-2" points="204.98 83.98 204.98 66.14 222.83 83.98 204.98 83.98"/><polygon class="cls-3" points="240.66 83.98 240.66 66.14 222.82 48.3 204.98 48.3 240.66 83.98"/><polygon class="cls-1" points="276.34 83.98 276.34 66.14 258.5 48.3 240.66 48.3 276.34 83.98"/><polygon class="cls-2" points="276.34 83.98 276.34 66.14 294.19 83.98 276.34 83.98"/><polygon class="cls-3" points="311.53 83.48 311.53 65.64 293.69 47.8 275.85 47.8 311.53 83.48"/><polygon class="cls-1" points="347.7 83.98 347.7 66.14 329.86 48.3 312.02 48.3 347.7 83.98"/><polygon class="cls-2" points="347.7 83.98 347.7 66.14 365.55 83.98 347.7 83.98"/><polygon class="cls-3" points="347.7 47.8 383.38 83.48 383.38 65.65 365.55 47.8 347.7 47.8"/><polygon class="cls-1" points="169.3 119.66 169.3 101.82 151.46 83.98 133.62 83.98 169.3 119.66"/><polygon class="cls-2" points="169.3 119.66 169.3 101.82 187.15 119.66 169.3 119.66"/><polygon class="cls-3" points="204.99 119.66 204.99 101.82 187.15 83.98 169.3 83.98 204.99 119.66"/><polygon class="cls-1" points="240.66 119.66 240.66 101.82 222.82 83.98 204.98 83.98 240.66 119.66"/><polygon class="cls-2" points="240.66 119.66 240.66 101.82 258.51 119.66 240.66 119.66"/><polygon class="cls-3" points="276.35 119.66 276.35 101.82 258.51 83.98 240.66 83.98 276.35 119.66"/><polygon class="cls-1" points="312.02 119.66 312.02 101.82 294.18 83.98 276.34 83.98 312.02 119.66"/><polygon class="cls-2" points="312.02 119.66 312.02 101.82 329.87 119.66 312.02 119.66"/><polygon class="cls-3" points="347.71 119.66 347.71 101.82 329.87 83.98 312.02 83.98 347.71 119.66"/><polygon class="cls-1" points="347.7 83.98 383.38 119.66 383.38 101.82 365.55 83.98 347.7 83.98"/><polygon class="cls-1" points="204.98 155.34 204.98 137.5 187.14 119.66 169.3 119.66 204.98 155.34"/><polygon class="cls-2" points="204.98 155.34 204.98 137.5 222.83 155.34 204.98 155.34"/><polygon class="cls-3" points="240.66 155.34 240.66 137.5 222.82 119.66 204.98 119.66 240.66 155.34"/><polygon class="cls-1" points="276.34 155.34 276.34 137.5 258.5 119.66 240.66 119.66 276.34 155.34"/><polygon class="cls-2" points="276.34 155.34 276.34 137.5 294.19 155.34 276.34 155.34"/><polygon class="cls-3" points="312.02 155.34 312.02 137.5 294.19 119.66 276.34 119.66 312.02 155.34"/><polygon class="cls-1" points="347.7 155.34 347.7 137.5 329.86 119.66 312.02 119.66 347.7 155.34"/><polygon class="cls-2" points="347.7 155.34 347.7 137.5 365.55 155.34 347.7 155.34"/><polygon class="cls-3" points="347.7 119.66 383.38 155.33 383.38 137.49 365.55 119.66 347.7 119.66"/><polygon class="cls-1" points="240.66 191.02 240.66 173.18 222.82 155.34 204.98 155.34 240.66 191.02"/><polygon class="cls-2" points="240.66 191.02 240.66 173.18 258.51 191.02 240.66 191.02"/><polygon class="cls-3" points="276.35 191.02 276.35 173.18 258.51 155.34 240.66 155.34 276.35 191.02"/><polygon class="cls-1" points="312.02 191.02 312.02 173.18 294.18 155.34 276.34 155.34 312.02 191.02"/><polygon class="cls-2" points="312.02 191.02 312.02 173.18 329.87 191.02 312.02 191.02"/><polygon class="cls-3" points="347.71 191.02 347.71 173.18 329.87 155.34 312.02 155.34 347.71 191.02"/><polygon class="cls-1" points="347.7 155.34 383.38 191.02 383.38 173.18 365.55 155.34 347.7 155.34"/><polygon class="cls-1" points="276.34 226.7 276.34 208.86 258.5 191.02 240.66 191.02 276.34 226.7"/><polygon class="cls-2" points="276.34 226.7 276.34 208.86 294.19 226.7 276.34 226.7"/><polygon class="cls-3" points="312.02 226.7 312.02 208.86 294.19 191.02 276.34 191.02 312.02 226.7"/><polygon class="cls-1" points="347.7 226.7 347.7 208.86 329.86 191.02 312.02 191.02 347.7 226.7"/><polygon class="cls-2" points="347.7 226.7 347.7 208.86 365.55 226.7 347.7 226.7"/><polygon class="cls-3" points="347.7 191.02 383.38 226.69 383.38 208.85 365.55 191.02 347.7 191.02"/><polygon class="cls-1" points="312.02 262.38 312.02 244.53 294.18 226.7 276.34 226.7 312.02 262.38"/><polygon class="cls-2" points="312.02 262.38 312.02 244.53 329.87 262.38 312.02 262.38"/><polygon class="cls-3" points="347.71 262.38 347.71 244.53 329.87 226.7 312.02 226.7 347.71 262.38"/><polygon class="cls-1" points="347.7 226.7 383.38 262.38 383.38 244.54 365.55 226.7 347.7 226.7"/><polygon class="cls-2" points="204.98 155.34 204.98 137.5 222.82 155.34 204.98 155.34"/></g></svg>