<?xml version="1.0" encoding="utf-8"?>
<!-- Generator: Adobe Illustrator 23.0.6, SVG Export Plug-In . SVG Version: 6.00 Build 0)  -->
<svg version="1.1" id="Layer_1" xmlns="http://www.w3.org/2000/svg" xmlns:xlink="http://www.w3.org/1999/xlink" x="0px" y="0px"
	 viewBox="0 0 523.2 149" style="enable-background:new 0 0 523.2 149;" xml:space="preserve">
<style type="text/css">
	.st0{fill:#F8D499;}
	.st1{fill:#F4BE66;}
	.st2{fill:#F1A933;}
	.st3{fill:#ED9300;}
	.st4{fill:#444F55;}
</style>
<g>
	<path class="st0" d="M36,84.5c0-9.7,3.2-20.6,9.1-30.8C51,43.6,58.9,35.3,67.4,30.5c0.2-0.1,0.4-0.2,0.7-0.4l-12.1-6.9
		c-1.4-0.8-3.7,0.5-5.1,2.9L24,72.4c-1.4,2.4-1.4,5,0,5.8l12,6.9C36.1,84.9,36,84.7,36,84.5z"/>
	<path class="st1" d="M52.2,64.9c0-4,2.3-8.1,5.4-9.9l35.6-20.5c-5.3-5.4-13.9-5.9-23.7-0.2C53.4,43.5,40.4,66,40.4,84.5
		c0,11,4.7,18.1,11.9,20.1V64.9z"/>
	<path class="st2" d="M68.4,82.4c-1.2-1.7-1.6-3.9-1-6.3c0.7-3.2,2.8-6.2,5.4-7.7l42-24.3V31.3c0-2.4-1.5-3.5-3.2-2.5L59.8,58.7
		c-1.8,1-3.2,3.8-3.2,6.2v58.3c0,2.4,1.5,3.5,3.2,2.5l27.9-16.1L68.4,82.4z"/>
	<path class="st3" d="M98.8,117.8L71.9,79.9c-1.3-1.9,0.3-6.2,3-7.8L128.7,41c2.7-1.6,4.4,0.8,3,4.3l-26.9,69
		C103.5,117.7,100.2,119.7,98.8,117.8z"/>
</g>
<g>
	<g>
		<path class="st4" d="M168.1,37.2h4.4v23.5h-3.8l-5.1-10.5c-0.4-0.8-0.9-2-1.3-3.2h-0.1c0.1,1,0.1,1.9,0.1,2.9v10.8h-4.4V37.2h3.8
			l5.2,10.8c0.4,0.8,0.8,1.9,1.2,2.8h0.1c-0.1-1-0.1-2-0.1-3V37.2z"/>
		<path class="st4" d="M187,60.7h-4.1l-0.1-1.2c-0.6,0.3-1.3,0.7-1.9,0.9c-0.8,0.3-1.6,0.5-2.4,0.4c-1.1-0.1-1.8-0.4-2.4-1
			c-0.8-0.8-1-2.1-1-3.2V56c0-1.4,0.3-2.4,1-3.2c0.6-0.8,1.7-1.4,3-1.7l3.8-1c0-0.8,0-1.6-0.6-2.2c-0.3-0.3-0.9-0.5-1.7-0.6
			c-0.6,0-1.2,0-1.9,0.2c-0.6,0.1-1.2,0.3-1.7,0.5l-0.8-3.6c0.6-0.3,1.3-0.5,2-0.6c0.9-0.2,1.9-0.3,2.7-0.3c1,0,2,0.1,2.8,0.5
			c0.9,0.3,1.6,0.9,2.1,1.5c1.1,1.5,1.2,3.7,1.2,5.8V60.7z M182.9,56.3v-2.9l-1.8,0.6c-0.5,0.2-1,0.3-1.4,0.6
			c-0.3,0.3-0.5,0.7-0.5,1.3v0.3c0,0.5,0.2,0.8,0.5,1c0.5,0.3,1.3,0,1.9-0.3L182.9,56.3z"/>
		<path class="st4" d="M198.8,59.5c-1,1-2.6,1.4-4.4,1.4c-1.1,0-1.9-0.1-2.9-0.3c-0.6-0.2-1.4-0.4-1.9-0.7l0.7-3.3
			c1,0.2,1.8,0.5,2.7,0.6c0.5,0.1,0.9,0.2,1.4,0.1c0.8,0,1.7-0.5,1.7-1.3c0.1-0.6-0.4-1.1-0.9-1.4c-1.1-0.6-2.4-1.1-3.5-1.8
			c-1.7-1.1-2.5-2.6-2.4-4.6c0.1-1.7,0.8-3.3,2.4-4.1c0.8-0.4,1.8-0.6,3-0.6c0.9,0,1.8,0.1,2.6,0.3c0.8,0.2,1.4,0.4,2,0.6l-0.7,3.3
			c-1.2-0.3-2.3-0.6-3.5-0.6c-0.9,0-1.6,0.4-1.7,1.3c0,0.5,0.1,0.8,0.3,1.1c0.3,0.4,0.8,0.6,1.3,0.9c0.8,0.3,1.7,0.8,2.6,1.1
			c1.8,0.8,2.6,2.2,2.6,4.3C200.3,57.5,199.7,58.6,198.8,59.5z"/>
		<path class="st4" d="M207.2,60.9c0,1.9,0.1,4.3-1.4,5.8c-0.9,0.9-2.2,1.3-3.6,1.3c-1.2,0-2.4-0.3-3.4-0.9l0.9-3.4
			c0.5,0.2,1.3,0.5,2.1,0.5C203,64,203,61.9,203,61V43.8h4.2V60.9z M207.3,41.5h-4.4v-4.3h4.4V41.5z"/>
		<path class="st4" d="M210,50.6c0-1.7,0.2-3.6,1.2-5c0.9-1.3,2.5-2.1,4.9-2.1s4,0.7,4.9,2.1c1,1.4,1.2,3.3,1.2,4.9v3.2
			c0,1.7-0.2,3.6-1.2,4.9c-1,1.4-2.5,2.2-4.9,2.2s-4-0.8-4.9-2.1c-1-1.4-1.2-3.3-1.2-5V50.6z M216.2,57.2c1.6,0,1.9-1.3,1.9-2.7
			v-4.6c0-1.3-0.3-2.6-1.9-2.6H216c-1.5,0-1.9,1.3-1.9,2.6v4.6c0,1.4,0.3,2.7,1.9,2.7H216.2z"/>
		<path class="st4" d="M225,60.7V44.5c2.6-0.8,4.8-1,6.5-1c2,0,3.4,0.5,4.3,1.4c1.2,1.2,1.4,2.9,1.4,5.3v10.4h-4.2v-9.1
			c0-1,0.1-2.7-0.4-3.5c-0.3-0.5-0.9-0.8-1.8-0.8c-0.6,0-1.2,0.1-1.6,0.2v13.2H225z"/>
		<path class="st4" d="M251.5,60.7h-4.1l-0.1-1.2c-0.6,0.3-1.3,0.7-1.9,0.9c-0.8,0.3-1.6,0.5-2.4,0.4c-1.1-0.1-1.8-0.4-2.4-1
			c-0.8-0.8-1-2.1-1-3.2V56c0-1.4,0.3-2.4,1-3.2c0.6-0.8,1.7-1.4,3-1.7l3.8-1c0-0.8,0-1.6-0.6-2.2c-0.3-0.3-0.9-0.5-1.7-0.6
			c-0.6,0-1.2,0-1.9,0.2c-0.6,0.1-1.2,0.3-1.7,0.5l-0.8-3.6c0.6-0.3,1.3-0.5,2-0.6c0.9-0.2,1.9-0.3,2.7-0.3c1,0,2,0.1,2.8,0.5
			c0.9,0.3,1.6,0.9,2.1,1.5c1.1,1.5,1.2,3.7,1.2,5.8V60.7z M247.3,56.3v-2.9l-1.8,0.6c-0.5,0.2-1,0.3-1.4,0.6
			c-0.3,0.3-0.5,0.7-0.5,1.3v0.3c0,0.5,0.2,0.8,0.5,1c0.5,0.3,1.3,0,1.9-0.3L247.3,56.3z"/>
		<path class="st4" d="M258.7,60.7h-4.1V37.2h4.1V60.7z"/>
		<path class="st4" d="M262.8,47.6h-2V44h2v-3.8h4.2V44h3.3v3.6H267V54c0,0.9,0,3,1.3,3.2c0.7,0,1.5-0.3,2-0.5l0.9,3.5
			c-1.1,0.6-2.3,0.9-3.5,0.9c-1.4,0-2.7-0.3-3.6-1.2c-1.4-1.5-1.4-4-1.4-5.9V47.6z"/>
		<path class="st4" d="M284.8,47.6h-2V44h2v-3.8h4.2V44h3.3v3.6H289V54c0,0.9,0,3,1.3,3.2c0.7,0,1.5-0.3,2-0.5l0.9,3.5
			c-1.1,0.6-2.3,0.9-3.5,0.9c-1.4,0-2.7-0.3-3.6-1.2c-1.4-1.5-1.4-4-1.4-5.9V47.6z"/>
		<path class="st4" d="M299.8,41.5h-4.4v-4.3h4.4V41.5z M299.6,60.7h-4.1V43.8h4.1V60.7z"/>
		<path class="st4" d="M307,60.7h-4.1V37.2h4.1V60.7z"/>
		<path class="st4" d="M322,60.8c0,1.6-0.1,3.2-0.8,4.4c-0.5,0.9-1.2,1.6-2.3,2.2c-1,0.5-2.3,0.6-3.5,0.6c-1.4,0-3.3-0.5-4.6-1.1
			l1-3.5c0.5,0.2,1.2,0.4,1.9,0.5c0.6,0.2,1.2,0.2,1.9,0.2c1,0,1.7-0.5,2.1-1.1c0.3-0.7,0.3-1.6,0.3-2.4c-0.8,0.2-1.6,0.3-2.3,0.3
			c-1.3,0-2.8-0.3-3.9-1.2c-1.9-1.6-2-4.2-2-6.5c0-0.5,0-0.9,0-1.4c0-2.9,0.3-5.1,1.6-6.5c1-1.1,2.7-1.7,5.2-1.8
			c1.7,0,3.8,0.3,5.5,0.9V60.8z M317.9,47.5c-0.5-0.1-1.1-0.2-1.7-0.2c-0.7,0-1.4,0.2-1.8,0.7c-0.5,0.6-0.5,1.6-0.5,2.7V54
			c0,1.6,0.3,3.1,2.3,3.2c0.6,0,1.3-0.1,1.6-0.2V47.5z"/>
		<path class="st4" d="M336.4,60.7h-4.1l-0.1-1.2c-0.6,0.3-1.3,0.7-1.9,0.9c-0.8,0.3-1.6,0.5-2.4,0.4c-1.1-0.1-1.8-0.4-2.4-1
			c-0.8-0.8-1-2.1-1-3.2V56c0-1.4,0.3-2.4,1-3.2c0.6-0.8,1.7-1.4,3-1.7l3.8-1c0-0.8,0-1.6-0.6-2.2c-0.3-0.3-0.9-0.5-1.7-0.6
			c-0.6,0-1.2,0-1.9,0.2c-0.6,0.1-1.2,0.3-1.7,0.5l-0.8-3.6c0.6-0.3,1.3-0.5,2-0.6c0.9-0.2,1.9-0.3,2.7-0.3c1,0,2,0.1,2.8,0.5
			c0.9,0.3,1.6,0.9,2.1,1.5c1.1,1.5,1.2,3.7,1.2,5.8V60.7z M332.3,56.3v-2.9l-1.8,0.6c-0.5,0.2-1,0.3-1.4,0.6
			c-0.3,0.3-0.5,0.7-0.5,1.3v0.3c0,0.5,0.2,0.8,0.5,1c0.5,0.3,1.3,0,1.9-0.3L332.3,56.3z"/>
		<path class="st4" d="M339.5,60.7V44.5c2.6-0.8,4.8-1,6.5-1c2,0,3.4,0.5,4.3,1.4c1.2,1.2,1.4,2.9,1.4,5.3v10.4h-4.2v-9.1
			c0-1,0.1-2.7-0.4-3.5c-0.3-0.5-0.9-0.8-1.8-0.8c-0.6,0-1.2,0.1-1.6,0.2v13.2H339.5z"/>
		<path class="st4" d="M366.5,60.8c0,1.6-0.1,3.2-0.8,4.4c-0.5,0.9-1.2,1.6-2.3,2.2c-1,0.5-2.3,0.6-3.5,0.6c-1.4,0-3.3-0.5-4.6-1.1
			l1-3.5c0.5,0.2,1.2,0.4,1.9,0.5c0.6,0.2,1.2,0.2,1.9,0.2c1,0,1.7-0.5,2.1-1.1c0.3-0.7,0.3-1.6,0.3-2.4c-0.8,0.2-1.6,0.3-2.3,0.3
			c-1.3,0-2.8-0.3-3.9-1.2c-1.9-1.6-2-4.2-2-6.5c0-0.5,0-0.9,0-1.4c0-2.9,0.3-5.1,1.6-6.5c1-1.1,2.7-1.7,5.2-1.8
			c1.7,0,3.8,0.3,5.5,0.9V60.8z M362.4,47.5c-0.5-0.1-1.1-0.2-1.7-0.2c-0.7,0-1.4,0.2-1.8,0.7c-0.5,0.6-0.5,1.6-0.5,2.7V54
			c0,1.6,0.3,3.1,2.3,3.2c0.6,0,1.3-0.1,1.6-0.2V47.5z"/>
		<path class="st4" d="M378.5,59.5c-1,1-2.6,1.4-4.4,1.4c-1.1,0-1.9-0.1-2.9-0.3c-0.6-0.2-1.4-0.4-1.9-0.7l0.7-3.3
			c1,0.2,1.8,0.5,2.7,0.6c0.5,0.1,1,0.2,1.4,0.1c0.8,0,1.7-0.5,1.7-1.3c0.1-0.6-0.4-1.1-0.9-1.4c-1.1-0.6-2.4-1.1-3.5-1.8
			c-1.7-1.1-2.5-2.6-2.4-4.6c0.1-1.7,0.8-3.3,2.4-4.1c0.8-0.4,1.8-0.6,3-0.6c0.9,0,1.8,0.1,2.6,0.3c0.8,0.2,1.4,0.4,2,0.6l-0.7,3.3
			c-1.2-0.3-2.3-0.6-3.5-0.6c-0.9,0-1.6,0.4-1.7,1.3c0,0.5,0.1,0.8,0.3,1.1c0.3,0.4,0.8,0.6,1.3,0.9c0.8,0.3,1.7,0.8,2.6,1.1
			c1.8,0.8,2.6,2.2,2.6,4.3C379.9,57.5,379.4,58.6,378.5,59.5z"/>
		<path class="st4" d="M382.4,44.6c1.9-0.6,3.7-1,5.7-1c1,0,2.3,0.2,3.2,0.5c0.8,0.4,1.5,0.9,2.1,1.7c1.3,1.7,1.3,4,1.3,6v1.6
			c0,1.2,0,2.5-0.4,3.6c-0.4,1.3-1,2.2-1.9,2.8c-1,0.7-2.2,1-3.5,1.1c-0.8,0-1.6-0.1-2.4-0.3v7h-4.1V44.6z M386.5,56.9
			c0.3,0.1,1,0.2,1.6,0.2c1,0,1.7-0.5,2-1.1c0.3-0.5,0.3-1.3,0.3-2v-3.5c0-0.9-0.1-1.8-0.4-2.4c-0.3-0.5-0.9-0.8-1.8-0.8
			c-0.8,0-1,0.1-1.7,0.2V56.9z"/>
		<path class="st4" d="M409.5,43.8v16.9h-4l-0.1-1.3c-0.7,0.3-1.4,0.8-2.1,1c-0.7,0.3-1.6,0.5-2.5,0.4c-1.3-0.1-2.2-0.6-2.7-1.4
			c-0.5-0.8-0.7-1.8-0.7-3V43.8h4.1v12.3c0,0.5,0.2,0.8,0.5,1c0.5,0.3,1.3,0,1.8-0.3l1.4-0.8V43.8H409.5z"/>
		<path class="st4" d="M412.6,60.7V44.5c2.6-0.8,4.8-1,6.5-1c2,0,3.4,0.5,4.3,1.4c1.2,1.2,1.4,2.9,1.4,5.3v10.4h-4.2v-9.1
			c0-1,0.1-2.7-0.4-3.5c-0.3-0.5-0.9-0.8-1.8-0.8c-0.6,0-1.2,0.1-1.6,0.2v13.2H412.6z"/>
		<path class="st4" d="M432,50.5h0.5l3.5-6.7h3.9v0.8l-4.1,7.2l4.5,8.2v0.7H436l-3.5-6.8H432v6.8h-4.1V37.2h4.1V50.5z"/>
		<path class="st4" d="M443.5,47.6h-2V44h2v-3.8h4.2V44h3.3v3.6h-3.3V54c0,0.9,0,3,1.3,3.2c0.7,0,1.5-0.3,2-0.5l0.9,3.5
			c-1.1,0.6-2.3,0.9-3.5,0.9c-1.4,0-2.7-0.3-3.6-1.2c-1.4-1.5-1.4-4-1.4-5.9V47.6z"/>
		<path class="st4" d="M463.7,47.6V44h2.3c0-1,0-2.1,0.2-3.1c0.1-0.8,0.4-1.6,0.9-2.4c0.8-1.1,2.1-1.6,3.9-1.6c1.2,0,2.4,0.5,3.5,1
			l-1,3.4c-0.5-0.2-1.4-0.6-2.1-0.5c-0.5,0-0.8,0.4-1,0.9c-0.2,0.7-0.2,1.5-0.2,2.2h3.2v3.7h-3.2v13.1H466V47.6H463.7z"/>
		<path class="st4" d="M475.3,50.6c0-1.7,0.2-3.6,1.2-5c1-1.3,2.5-2.1,4.9-2.1s4,0.7,4.9,2.1c1,1.4,1.2,3.3,1.2,4.9v3.2
			c0,1.7-0.2,3.6-1.2,4.9c-1,1.4-2.5,2.2-4.9,2.2s-4-0.8-4.9-2.1c-1-1.4-1.2-3.3-1.2-5V50.6z M481.6,57.2c1.6,0,1.9-1.3,1.9-2.7
			v-4.6c0-1.3-0.3-2.6-1.9-2.6h-0.2c-1.5,0-1.9,1.3-1.9,2.6v4.6c0,1.4,0.3,2.7,1.9,2.7H481.6z"/>
		<path class="st4" d="M490.3,60.7V44.5c1.5-0.6,3.2-0.9,4.7-0.9c0.8,0,1.7,0,2.6,0.2l-0.5,3.8c-0.5-0.1-1-0.1-1.3-0.1
			c-0.4,0-0.9,0.1-1.3,0.2v13.1H490.3z"/>
		<path class="st4" d="M156.5,81.5v-6.3h23.1v6.3h-7.9v30.2h-7.2V81.5H156.5z"/>
		<path class="st4" d="M194.7,75.2c4.2,0,7,1.2,8.7,3.5c1.8,2.4,2.1,5.3,2.1,8.1c0,3.1-0.6,5.7-1.9,7.6c-1,1.5-2.5,2.5-4.4,3.1
			l7.1,12.5v1.5h-7.4l-6.6-13.4h-0.6v13.4h-7.2V75.2H194.7z M194.6,92.2c1.5,0,2.4-0.5,3-1.2c0.6-0.9,0.8-2.3,0.8-3.7
			c0-0.9,0-0.1,0-0.9c0-1.3-0.1-2.7-0.8-3.7c-0.5-0.7-1.7-1.2-2.8-1.2h-3.1v10.7H194.6z"/>
		<path class="st4" d="M218.9,105.1l-1.2,6.6h-7v-1.8l7.6-34.6h9.1l7.6,34.9v1.5h-7.1l-1.2-6.6H218.9z M220.1,98.9h5.5l-2.8-15.7
			L220.1,98.9z"/>
		<path class="st4" d="M256.1,75.2h6.8v36.5h-6L249,95.4c-0.6-1.2-1.4-3.1-2-4.9h-0.1c0.1,1.5,0.2,3,0.2,4.5v16.7h-6.8V75.2h6
			l8.1,16.8c0.6,1.2,1.3,2.9,1.8,4.4h0.1c-0.1-1.5-0.2-3.1-0.2-4.7V75.2z"/>
		<path class="st4" d="M270.4,78.3c1.8-2.1,4.5-3.1,8-3.2c2.8-0.1,5.7,0.5,8.3,1.5l-1.1,5.8c-2.2-0.6-4.2-1.1-6.6-1.1
			c-1.4,0-2.3,0.3-3,1c-0.6,0.6-0.9,1.6-0.9,3c0,1.5,0.8,2.6,1.9,3.5c2.2,1.5,5.1,2.5,7.5,4c0.9,0.5,1.6,1.1,2.2,1.8
			c1.2,1.5,1.9,3.4,1.9,6.3c0,2.5-0.4,5.1-2,7.3c-1.9,2.7-5.5,3.7-9.3,3.7c-3.1,0-6.6-0.8-8.9-1.8l1.1-6c2.7,0.8,4.7,1.4,7,1.4h0.7
			c1.4,0,2.5-0.4,3.2-1.2c0.7-0.7,1.1-1.8,1-3.1c0-0.9-0.4-1.7-0.8-2.3c-0.5-0.6-1.2-1.1-2.1-1.5c-2.8-1.7-6.4-3.2-8.5-5.8
			c-1.4-1.8-1.9-3.9-1.9-6.8C268.2,82.2,269.1,79.8,270.4,78.3z"/>
		<path class="st4" d="M294.2,75.2h10.1c4.2,0,7.1,1.2,8.8,3.5c1.8,2.4,2.1,5.5,2.1,8.4c0,0.3,0,0.5,0,0.8c0,2.9-0.4,6.1-2.1,8.4
			c-1.7,2.3-4.5,3.5-8.7,3.5h-3v11.7h-7.2V75.2z M304.8,93.8c1.1,0,1.9-0.5,2.4-1.2c0.7-0.9,0.8-2.4,0.8-3.7c0-0.9,0-1.7,0-2.5
			c0-1.3-0.1-2.7-0.8-3.7c-0.5-0.7-1.5-1.2-2.6-1.2h-3.2v12.3H304.8z"/>
		<path class="st4" d="M320.4,87c0-2.9,0.4-6,2.1-8.4c1.7-2.3,4.5-3.7,8.7-3.7c4.2,0,7.1,1.2,8.8,3.5c1.8,2.4,2.1,5.5,2.1,8.4V100
			c0,2.8-0.4,6-2.1,8.4c-1.7,2.3-4.6,3.7-8.8,3.7c-4.2,0-7.1-1.2-8.8-3.5c-1.8-2.4-2.1-5.5-2.1-8.4V87z M331.6,105.8
			c1.2,0,2.1-0.5,2.5-1.2c0.6-0.9,0.8-2.4,0.8-3.7V86c0-1.3-0.1-2.7-0.7-3.7c-0.5-0.7-1.4-1.2-2.6-1.2h-0.7c-1.1,0-2.1,0.5-2.5,1.2
			c-0.6,1-0.8,2.4-0.8,3.7V101c0,1.2,0.2,2.7,0.8,3.7c0.5,0.7,1.4,1.2,2.5,1.2H331.6z"/>
		<path class="st4" d="M358.5,75.2c4.2,0,7,1.2,8.7,3.5c1.8,2.4,2.1,5.3,2.1,8.1c0,3.1-0.6,5.7-1.9,7.6c-1,1.5-2.5,2.5-4.4,3.1
			l7.1,12.5v1.5h-7.4L356,98.3h-0.6v13.4h-7.2V75.2H358.5z M358.3,92.2c1.5,0,2.4-0.5,3-1.2c0.6-0.9,0.8-2.3,0.8-3.7
			c0-0.9,0-0.1,0-0.9c0-1.3-0.1-2.7-0.8-3.7c-0.5-0.7-1.7-1.2-2.8-1.2h-3.1v10.7H358.3z"/>
		<path class="st4" d="M373.6,81.5v-6.3h23.1v6.3h-7.9v30.2h-7.2V81.5H373.6z"/>
		<path class="st4" d="M422.7,98.6c0,1.9,0,3.9-0.4,5.7c-0.5,2.4-1.5,4.2-2.8,5.3c-1,0.8-2.2,1.4-3.6,1.8c-1.4,0.4-3,0.4-4.7,0.4
			h-9.7V75.2h10c0.5,0,5.3-0.1,8,2.4c1.4,1.2,2.3,2.9,2.7,5.1c0.4,1.8,0.4,3.8,0.4,5.7V98.6z M415.5,86.9c0-1.5-0.1-3-0.6-4
			c-0.7-1.2-2.1-1.4-3.4-1.4h-2.7v24h2.7c1.4,0,2.7-0.2,3.4-1.4c0.5-0.9,0.6-2.4,0.6-4V86.9z"/>
		<path class="st4" d="M435.2,105.1l-1.2,6.6h-7v-1.8l7.6-34.6h9.1l7.6,34.9v1.5h-7.1l-1.2-6.6H435.2z M436.3,98.9h5.5l-2.8-15.7
			L436.3,98.9z"/>
		<path class="st4" d="M452.1,81.5v-6.3h23.1v6.3h-7.9v30.2h-7.2V81.5H452.1z"/>
		<path class="st4" d="M484.2,105.1l-1.2,6.6h-7v-1.8l7.6-34.6h9.1l7.6,34.9v1.5h-7.1l-1.2-6.6H484.2z M485.3,98.9h5.5l-2.8-15.7
			L485.3,98.9z"/>
	</g>
</g>
</svg>
