<svg id="outline" xmlns="http://www.w3.org/2000/svg" viewBox="0 0 64 64"><defs><style>.cls-1{fill:#ffcab1;}.cls-2{fill:#ff9664;}</style></defs><title>icon-catalogue-protokoll-2</title><path class="cls-1" d="M45,17.12h4a0,0,0,0,1,0,0v34a2,2,0,0,1-2,2h0a2,2,0,0,1-2-2v-34a0,0,0,0,1,0,0Z" transform="translate(-11.09 43.49) rotate(-45)"/><path class="cls-2" d="M35.64,21,59.69,45a2,2,0,0,1,0,2.83h0a2,2,0,0,1-2.82,0L32.81,23.81,35.64,21m0-2a2,2,0,0,0-1.42.58l-2.83,2.83a2,2,0,0,0,0,2.83L55.45,49.28a4,4,0,0,0,5.66,0,4,4,0,0,0,0-5.66L37.05,19.56A2,2,0,0,0,35.64,19Z"/><path class="cls-1" d="M44.33,11.27,36.86,3.8A2.71,2.71,0,0,0,33,3.8l-2.6,2.59A2.73,2.73,0,0,0,30,9.66L21.13,18.5a2.7,2.7,0,0,0-3.26.44l-2.24,2.24a2.71,2.71,0,0,0,0,3.85L23.1,32.5a2.73,2.73,0,0,0,3.85,0l2.24-2.24A2.73,2.73,0,0,0,29.62,27l8.85-8.84a2.7,2.7,0,0,0,3.26-.44l2.6-2.59A2.73,2.73,0,0,0,44.33,11.27Z"/><path class="cls-2" d="M34.93,3a2.73,2.73,0,0,1,1.93.8l7.47,7.47a2.73,2.73,0,0,1,0,3.85l-2.6,2.59a2.69,2.69,0,0,1-1.91.79,2.8,2.8,0,0,1-1.35-.35L29.62,27a2.73,2.73,0,0,1-.43,3.27L27,32.5a2.72,2.72,0,0,1-3.85,0L15.63,25a2.71,2.71,0,0,1,0-3.85l2.24-2.24a2.73,2.73,0,0,1,3.26-.44L30,9.66a2.73,2.73,0,0,1,.43-3.27L33,3.8A2.7,2.7,0,0,1,34.93,3m0-2a4.7,4.7,0,0,0-3.34,1.38L29,5a4.73,4.73,0,0,0-1.31,4.13l-7.1,7.11a4.43,4.43,0,0,0-.81-.07,4.66,4.66,0,0,0-3.33,1.37l-2.24,2.24a4.73,4.73,0,0,0,0,6.68l7.47,7.47a4.71,4.71,0,0,0,6.68,0l2.24-2.24a4.74,4.74,0,0,0,1.31-4.13L39,20.43a4.43,4.43,0,0,0,.81.07,4.71,4.71,0,0,0,3.33-1.37l2.59-2.6a4.73,4.73,0,0,0,0-6.68L38.27,2.38A4.7,4.7,0,0,0,34.93,1Z"/><rect class="cls-1" x="8.08" y="52.18" width="21.7" height="2.72"/><path class="cls-2" d="M29.78,52.18v2.73H8.08V52.18h21.7m0-2H8.08a2,2,0,0,0-2,2v2.73a2,2,0,0,0,2,2h21.7a2,2,0,0,0,2-2V52.18a2,2,0,0,0-2-2Z"/><rect class="cls-1" x="4" y="57" width="29.87" height="2.72"/><path class="cls-2" d="M33.87,57v2.72H4V57H33.87m0-2H4a2,2,0,0,0-2,2v2.72a2,2,0,0,0,2,2H33.87a2,2,0,0,0,2-2V57a2,2,0,0,0-2-2Z"/></svg>