<svg xmlns="http://www.w3.org/2000/svg" viewBox="0 0 24 24"><defs><style>.cls-1{fill:#2d3741;}.cls-2{fill:#fff;}</style></defs><title>icon-approved-circle-md</title><g id="outline"><circle class="cls-1" cx="12" cy="12" r="10"/><path class="cls-2" d="M12.5,15.25h0a.77.77,0,0,1-.61-.35l-2.5-4a.75.75,0,1,1,1.28-.8l1.92,3.07L16.4,8.05a.75.75,0,1,1,1.2.9l-4.5,6A.74.74,0,0,1,12.5,15.25Z"/><path class="cls-2" d="M17,17.75H7A.76.76,0,0,1,6.25,17V7A.76.76,0,0,1,7,6.25h8a.75.75,0,0,1,0,1.5H7.75v8.5h8.5V13a.75.75,0,0,1,1.5,0v4A.76.76,0,0,1,17,17.75Z"/></g></svg>