<svg id="outline" xmlns="http://www.w3.org/2000/svg" viewBox="0 0 64 64"><defs><style>.cls-1{fill:#fff;}.cls-2{fill:#28d296;}.cls-3{fill:#93e8ca;}</style></defs><title>icon-catalogue-begrep-2</title><path class="cls-1" d="M55.23,3a5.32,5.32,0,0,0,0,10.63H14.08A5.32,5.32,0,0,1,14.08,3Z"/><path class="cls-2" d="M55.23,14.63H14.08A6.32,6.32,0,0,1,14.08,2H55.23a1,1,0,0,1,0,2,4.32,4.32,0,0,0,0,8.63,1,1,0,0,1,0,2ZM14.08,4a4.32,4.32,0,0,0,0,8.63H50.63a6.3,6.3,0,0,1,0-8.63Z"/><path class="cls-3" d="M55.23,13.63V61H14.08a5.32,5.32,0,0,1-5.31-5.32V8.32a5.31,5.31,0,0,0,5.31,5.31Z"/><path class="cls-2" d="M55.23,62H14.08a6.32,6.32,0,0,1-6.31-6.32V8.32a1,1,0,0,1,2,0,4.31,4.31,0,0,0,4.31,4.31H55.23a1,1,0,0,1,1,1V61A1,1,0,0,1,55.23,62ZM9.77,12.92V55.68A4.32,4.32,0,0,0,14.08,60H54.23V14.63H14.08A6.29,6.29,0,0,1,9.77,12.92Z"/><polygon class="cls-1" points="27.64 13.63 27.64 37.79 22.3 32.45 16.96 37.79 16.96 13.63 27.64 13.63"/><path class="cls-2" d="M17,38.79a.84.84,0,0,1-.38-.08,1,1,0,0,1-.62-.92V13.63a1,1,0,0,1,1-1H27.64a1,1,0,0,1,1,1V37.79a1,1,0,0,1-.62.92,1,1,0,0,1-1.09-.21L22.3,33.86,17.67,38.5A1,1,0,0,1,17,38.79Zm5.34-7.34a1,1,0,0,1,.71.29l3.63,3.64V14.63H18V35.38l3.63-3.64A1,1,0,0,1,22.3,31.45Z"/></svg>