<svg id="crop" xmlns="http://www.w3.org/2000/svg" viewBox="0 0 449.47 607.21"><defs><style>.cls-1{fill:#0069a5;}.cls-2{fill:#004a73;}.cls-3{fill:#8cbbd6;}.cls-4{fill:#fff;}</style></defs><title>illustration-login</title><path class="cls-1" d="M264.59,55.49a12,12,0,1,0,12,20.77L408.48,0H360.54Z"/><path class="cls-2" d="M360,55.83a12,12,0,0,0,11.94,20.82l77.54-44.49V4.49Z"/><path class="cls-1" d="M291.33,150.94,160.93,226.4a12,12,0,1,0,12,20.77l130.4-75.45a12,12,0,0,0-12-20.78Z"/><path class="cls-3" d="M390.46,149.62a12,12,0,1,0,12,20.76l47-27.2V115.45Z"/><path class="cls-1" d="M269.05,11a12,12,0,0,0,10.43,6,11.91,11.91,0,0,0,5.95-1.59L312.35,0H268.57A12,12,0,0,0,269.05,11Z"/><path class="cls-1" d="M328.3,74.13,317,80.63a12,12,0,1,0,12,20.79l11.26-6.51a12,12,0,1,0-12-20.78Z"/><path class="cls-4" d="M158.9,19.51a12,12,0,0,0,16.39,4.4L216.7,0h-48l-5.41,3.12A12,12,0,0,0,158.9,19.51Z"/><path class="cls-1" d="M55,24.08a12,12,0,0,0,16.4,4.39L120.7,0h-48L59.39,7.68A12,12,0,0,0,55,24.08Z"/><path class="cls-2" d="M146.45,68.37,105.88,91.93a12,12,0,0,0,6,22.38,11.84,11.84,0,0,0,6-1.63L158.5,89.12a12,12,0,1,0-12.05-20.75Z"/><path class="cls-1" d="M334.85,236.71,260.54,279.8a12,12,0,1,0,12,20.76l74.32-43.09a12,12,0,0,0-12-20.76Z"/><path class="cls-1" d="M357.93,279.8a12,12,0,1,0,12,20.76l79.5-46.1V226.72Z"/><path class="cls-3" d="M387.2,319.31a12,12,0,1,0,12,20.76l50.23-29.13V283.2Z"/><path class="cls-1" d="M340.13,403.09a12,12,0,1,0,12,20.76l97.3-56.42V339.68Z"/><path class="cls-1" d="M400.44,424.6a12,12,0,1,0,12,20.76l37-21.45V396.16Z"/><path class="cls-4" d="M332.72,520.35a12,12,0,1,0,12,20.76l104.71-60.72V452.65Z"/><path class="cls-1" d="M416.34,528.34a12,12,0,1,0,12,20.76l21.09-12.23V509.13Z"/><path class="cls-2" d="M416.34,584.82a12,12,0,1,0,12,20.76l21.09-12.23V565.61Z"/><path class="cls-2" d="M260.57,223.55,189.1,264.7a12,12,0,1,0,12,20.8l71.47-41.15a12,12,0,0,0-12-20.8Z"/><path class="cls-4" d="M129.11,189.13,82.7,215.93a12,12,0,1,0,12,20.78l46.41-26.79a12,12,0,0,0-12-20.79Z"/><path class="cls-1" d="M133.79,20.15,10,91.63a12,12,0,1,0,12,20.78l123.8-71.47a12,12,0,1,0-12-20.79Z"/><path class="cls-3" d="M230.94,74.61,97.11,152.34a12,12,0,0,0,12,20.76L243,95.36a12,12,0,1,0-12.05-20.75Z"/><path class="cls-3" d="M29.56,24.9,6,38.51A12,12,0,1,0,18,59.29l23.56-13.6a12,12,0,1,0-12-20.79Z"/><path class="cls-1" d="M242.44,12.62,175.9,51.27A12,12,0,1,0,188,72l66.54-38.64a12,12,0,0,0-12.05-20.76Z"/><path class="cls-1" d="M285.93,98.59l-123.15,71.1a12,12,0,1,0,12,20.79l123.15-71.1a12,12,0,0,0-12-20.79Z"/><path class="cls-3" d="M359.48,166.6l-66,38a12,12,0,0,0,12,20.8l66-38a12,12,0,0,0-12-20.8Z"/><path class="cls-4" d="M327.46,296.38,232.85,351a12,12,0,1,0,12,20.78l94.61-54.62a12,12,0,0,0-12-20.79Z"/><path class="cls-1" d="M355.46,337.72,236.09,406.94a12,12,0,1,0,12,20.76l119.36-69.22a12,12,0,1,0-12-20.76Z"/><path class="cls-2" d="M366.31,218.46a12,12,0,1,0,12,20.76L449.47,198V170.24Z"/><path class="cls-4" d="M323.06,132.58a12,12,0,1,0,12,20.77L449.47,87.16V59.43Z"/><path class="cls-2" d="M370.82,441.77l-47.9,27.78a12,12,0,1,0,12,20.76l47.91-27.78a12,12,0,0,0-12-20.76Z"/></svg>