<?xml version="1.0" encoding="utf-8"?>
<!-- Generator: Adobe Illustrator 16.0.0, SVG Export Plug-In . SVG Version: 6.00 Build 0)  -->
<!DOCTYPE svg PUBLIC "-//W3C//DTD SVG 1.1//EN" "http://www.w3.org/Graphics/SVG/1.1/DTD/svg11.dtd">
<svg version="1.1" id="Layer_1" xmlns="http://www.w3.org/2000/svg" xmlns:xlink="http://www.w3.org/1999/xlink" x="0px" y="0px"
	 width="300px" height="37px" viewBox="0 0 300 37" enable-background="new 0 0 300 37" xml:space="preserve">
<g>
	<path fill="#010202" d="M58.78,31.573h-6.985V14.308h6.72c3.199,0,5.211,1.819,5.211,4.728c0,1.867-1.163,3.201-2.328,3.662
		c1.333,0.536,2.595,1.817,2.595,4.001C63.993,29.877,61.835,31.573,58.78,31.573z M58.294,16.66h-3.876v4.948h3.876
		c1.672,0,2.812-0.875,2.812-2.475C61.106,17.533,59.966,16.66,58.294,16.66z M58.538,23.958h-4.121v5.26h4.121
		c1.818,0,2.835-1.119,2.835-2.644C61.373,25.051,60.354,23.958,58.538,23.958z"/>
	<path fill="#010202" d="M74.104,22.165c-0.559-0.557-0.995-0.826-1.843-0.826c-1.335,0-2.45,1.065-2.45,2.766v7.467h-2.473V19.278
		h2.424v1.333c0.63-0.872,1.892-1.478,3.275-1.478c1.188,0,2.085,0.316,2.935,1.165L74.104,22.165z"/>
	<path fill="#010202" d="M85.208,30.264c-0.8,0.822-2.011,1.453-3.684,1.453c-1.019,0-1.842-0.24-2.521-0.604l-0.288,0.488h-1.672
		l0.797-1.361c-1.165-1.21-1.432-2.766-1.432-4.825c0-2.057,0.292-3.613,1.456-4.825c0.801-0.824,1.986-1.455,3.662-1.455
		c1.017,0,1.865,0.241,2.546,0.606l0.263-0.461h1.674l-0.799,1.31c1.165,1.211,1.458,2.768,1.458,4.825
		C86.663,27.5,86.374,29.051,85.208,30.264z M81.522,21.339c-0.726,0-1.334,0.242-1.794,0.704c-0.749,0.75-0.847,2.037-0.847,3.369
		c0,0.971,0.048,1.918,0.364,2.644l3.734-6.304C82.564,21.484,82.081,21.339,81.522,21.339z M83.827,22.772l-3.736,6.301
		c0.388,0.267,0.874,0.437,1.431,0.437c0.727,0,1.357-0.267,1.819-0.728c0.75-0.75,0.85-2.037,0.85-3.37
		C84.19,24.442,84.141,23.499,83.827,22.772z"/>
	<path fill="#010202" d="M97.26,31.573V24.08c0-1.915-1.091-2.739-2.473-2.739c-1.383,0-2.546,0.849-2.546,2.739v7.494h-2.474V19.28
		h2.427v1.237c0.848-0.921,2.038-1.384,3.273-1.384c1.261,0,2.303,0.413,3.029,1.116c0.946,0.922,1.238,2.085,1.238,3.468v7.854
		L97.26,31.573L97.26,31.573z"/>
	<path fill="#010202" d="M110.791,31.573V24.08c0-1.915-1.093-2.739-2.473-2.739c-1.383,0-2.546,0.849-2.546,2.739v7.494h-2.473
		V19.28h2.424v1.237c0.849-0.921,2.039-1.384,3.275-1.384c1.262,0,2.304,0.413,3.029,1.116c0.946,0.922,1.238,2.085,1.238,3.468
		v7.854L110.791,31.573L110.791,31.573z"/>
	<path fill="#010202" d="M125.048,30.264c-0.802,0.822-2.014,1.453-3.684,1.453c-1.019,0-1.845-0.24-2.522-0.604l-0.291,0.488
		h-1.671l0.797-1.361c-1.163-1.21-1.429-2.766-1.429-4.825c0-2.057,0.289-3.613,1.453-4.825c0.803-0.824,1.987-1.455,3.661-1.455
		c1.02,0,1.867,0.241,2.549,0.606l0.262-0.461h1.67l-0.795,1.31c1.162,1.211,1.453,2.768,1.453,4.825
		C126.501,27.5,126.209,29.051,125.048,30.264z M121.361,21.339c-0.728,0-1.333,0.242-1.795,0.704
		c-0.749,0.75-0.848,2.037-0.848,3.369c0,0.971,0.049,1.918,0.366,2.644l3.733-6.304C122.406,21.484,121.92,21.339,121.361,21.339z
		 M123.663,22.772l-3.733,6.301c0.386,0.267,0.873,0.437,1.428,0.437c0.73,0,1.359-0.267,1.819-0.728
		c0.752-0.75,0.849-2.037,0.849-3.37C124.029,24.442,123.98,23.499,123.663,22.772z"/>
	<path fill="#010202" d="M133.461,34.021c-0.24,0.68-0.534,1.164-0.896,1.531c-0.681,0.677-1.579,0.897-2.522,0.897h-0.995v-2.236
		h0.629c1.042,0,1.407-0.313,1.77-1.309l0.678-1.916l-4.292-11.712h2.619l2.935,8.656l2.862-8.656h2.643L133.461,34.021z"/>
	<path fill="#010202" d="M144.689,31.716c-2.012,0-3.709-0.338-5.167-1.77l1.624-1.624c0.997,1.016,2.329,1.285,3.543,1.285
		c1.501,0,2.691-0.536,2.691-1.699c0-0.824-0.459-1.357-1.65-1.457l-1.963-0.167c-2.305-0.192-3.636-1.24-3.636-3.397
		c0-2.399,2.057-3.758,4.631-3.758c1.842,0,3.418,0.388,4.558,1.383l-1.553,1.576c-0.775-0.655-1.868-0.897-3.031-0.897
		c-1.476,0-2.229,0.656-2.229,1.58c0,0.727,0.389,1.281,1.697,1.402l1.938,0.17c2.304,0.193,3.663,1.284,3.663,3.466
		C149.804,30.382,147.623,31.716,144.689,31.716z"/>
	<path fill="#010202" d="M159.986,31.573v-1.236c-0.849,0.922-2.038,1.38-3.274,1.38c-1.261,0-2.303-0.409-3.029-1.114
		c-0.945-0.918-1.236-2.086-1.236-3.466V19.28h2.473v7.491c0,1.917,1.088,2.741,2.473,2.741c1.384,0,2.547-0.847,2.547-2.741V19.28
		h2.473v12.293H159.986z"/>
	<path fill="#010202" d="M173.59,31.573V24.08c0-1.915-1.089-2.739-2.474-2.739c-1.382,0-2.546,0.849-2.546,2.739v7.494h-2.472
		V19.28h2.425v1.237c0.852-0.921,2.039-1.384,3.272-1.384c1.264,0,2.305,0.413,3.03,1.116c0.945,0.922,1.237,2.085,1.237,3.468
		v7.854L173.59,31.573L173.59,31.573z"/>
	<path fill="#010202" d="M186.684,31.573v-1.309c-0.923,1.115-1.916,1.453-3.247,1.453c-1.237,0-2.329-0.409-3.009-1.089
		c-1.238-1.234-1.384-3.346-1.384-5.213c0-1.865,0.146-3.951,1.384-5.187c0.68-0.679,1.745-1.091,2.98-1.091
		c1.311,0,2.327,0.315,3.225,1.383v-6.208h2.477v17.262H186.684L186.684,31.573z M184.09,21.339c-2.232,0-2.574,1.893-2.574,4.073
		c0,2.182,0.342,4.098,2.574,4.098c2.229,0,2.547-1.919,2.547-4.098S186.318,21.339,184.09,21.339z"/>
	<path fill="#010202" d="M199.56,22.165c-0.556-0.557-0.996-0.826-1.847-0.826c-1.333,0-2.444,1.065-2.444,2.766v7.467h-2.474
		V19.278h2.429v1.333c0.627-0.872,1.889-1.478,3.269-1.478c1.191,0,2.091,0.316,2.938,1.165L199.56,22.165z"/>
	<path fill="#010202" d="M204.264,26.14c0,2.109,1.112,3.444,3.125,3.444c1.388,0,2.113-0.389,2.983-1.263l1.576,1.475
		c-1.263,1.267-2.446,1.919-4.605,1.919c-3.079,0-5.528-1.624-5.528-6.304c0-3.976,2.062-6.28,5.211-6.28
		c3.299,0,5.216,2.426,5.216,5.915v1.092L204.264,26.14L204.264,26.14z M209.454,22.747c-0.391-0.925-1.266-1.554-2.429-1.554
		s-2.061,0.629-2.449,1.554c-0.239,0.555-0.287,0.92-0.311,1.67h5.526C209.767,23.667,209.695,23.304,209.454,22.747z"/>
	<path fill="#010202" d="M219.395,36.689c-1.866,0-3.058-0.434-4.344-1.625l1.579-1.577c0.776,0.727,1.456,1.091,2.664,1.091
		c2.088,0,2.888-1.478,2.888-3.127v-1.578c-0.896,1.069-1.914,1.405-3.173,1.405c-1.236,0-2.252-0.411-2.937-1.092
		c-1.189-1.188-1.38-2.905-1.38-4.989c0-2.089,0.19-3.812,1.38-4.997c0.685-0.679,1.723-1.066,2.96-1.066
		c1.311,0,2.31,0.34,3.226,1.455v-1.309h2.397v12.223C224.653,34.506,222.665,36.689,219.395,36.689z M219.687,21.339
		c-2.232,0-2.522,1.917-2.522,3.856c0,1.941,0.293,3.855,2.522,3.855c2.228,0,2.495-1.914,2.495-3.855
		C222.179,23.256,221.914,21.339,219.687,21.339z"/>
	<path fill="#010202" d="M228.268,16.855v-2.618h2.619v2.618H228.268z M228.342,31.573V19.28h2.472v12.293H228.342z"/>
	<path fill="#010202" d="M238.473,31.716c-2.011,0-3.709-0.338-5.165-1.77l1.624-1.624c0.996,1.016,2.33,1.285,3.541,1.285
		c1.507,0,2.693-0.536,2.693-1.699c0-0.824-0.461-1.357-1.646-1.457l-1.965-0.167c-2.308-0.192-3.639-1.24-3.639-3.397
		c0-2.399,2.06-3.758,4.633-3.758c1.844,0,3.42,0.388,4.56,1.383l-1.553,1.576c-0.776-0.655-1.866-0.897-3.032-0.897
		c-1.476,0-2.229,0.656-2.229,1.58c0,0.727,0.387,1.281,1.695,1.402l1.942,0.17c2.304,0.193,3.661,1.284,3.661,3.466
		C243.593,30.382,241.408,31.716,238.473,31.716z"/>
	<path fill="#010202" d="M249.775,31.573c-2.304,0-3.37-1.65-3.37-3.419v-6.767h-1.408v-1.89h1.403v-3.734h2.477v3.734h2.377v1.89
		h-2.377v6.646c0,0.896,0.432,1.429,1.356,1.429h1.018v2.111H249.775z"/>
	<path fill="#010202" d="M260.927,22.165c-0.555-0.557-0.994-0.826-1.842-0.826c-1.334,0-2.447,1.065-2.447,2.766v7.467h-2.472
		V19.278h2.424v1.333c0.629-0.872,1.895-1.478,3.273-1.478c1.188,0,2.087,0.316,2.935,1.165L260.927,22.165z"/>
	<path fill="#010202" d="M265.634,26.14c0,2.109,1.112,3.444,3.126,3.444c1.383,0,2.11-0.389,2.981-1.263l1.575,1.475
		c-1.263,1.267-2.446,1.919-4.607,1.919c-3.075,0-5.523-1.624-5.523-6.304c0-3.976,2.059-6.28,5.213-6.28
		c3.294,0,5.21,2.426,5.21,5.915v1.092L265.634,26.14L265.634,26.14z M270.821,22.747c-0.389-0.925-1.262-1.554-2.426-1.554
		c-1.163,0-2.062,0.629-2.445,1.554c-0.245,0.555-0.293,0.92-0.316,1.67h5.528C271.137,23.667,271.063,23.304,270.821,22.747z"/>
	<path fill="#010202" d="M284.133,31.573V24.08c0-1.915-1.092-2.739-2.472-2.739c-1.382,0-2.549,0.849-2.549,2.739v7.494h-2.475
		V19.28h2.429v1.237c0.848-0.921,2.035-1.384,3.271-1.384c1.266,0,2.309,0.413,3.029,1.116c0.946,0.922,1.24,2.085,1.24,3.468v7.854
		L284.133,31.573L284.133,31.573z"/>
	<path fill="#010202" d="M291.988,26.14c0,2.109,1.114,3.444,3.128,3.444c1.385,0,2.11-0.389,2.983-1.263l1.576,1.475
		c-1.263,1.267-2.449,1.919-4.603,1.919c-3.085,0-5.529-1.624-5.529-6.304c0-3.976,2.058-6.28,5.211-6.28
		c3.294,0,5.214,2.426,5.214,5.915v1.092L291.988,26.14L291.988,26.14z M297.179,22.747c-0.388-0.925-1.263-1.554-2.426-1.554
		s-2.06,0.629-2.449,1.554c-0.242,0.555-0.29,0.92-0.313,1.67h5.529C297.494,23.667,297.421,23.304,297.179,22.747z"/>
</g>
<rect y="0.5" fill="#010202" width="10.36" height="3.453"/>
<rect x="13.816" y="0.5" fill="#010202" width="10.362" height="3.453"/>
<rect x="27.632" y="0.5" fill="#010202" width="10.362" height="3.453"/>
<rect y="7.407" fill="#010202" width="10.36" height="3.455"/>
<rect x="13.816" y="7.407" fill="#010202" width="10.362" height="3.455"/>
<rect x="27.632" y="7.407" fill="#010202" width="10.362" height="3.455"/>
<rect y="14.316" fill="#010202" width="10.36" height="3.454"/>
<rect x="13.816" y="14.316" fill="#010202" width="10.362" height="3.454"/>
<rect y="21.223" fill="#010202" width="10.36" height="3.453"/>
<rect x="13.816" y="21.223" fill="#010202" width="10.362" height="3.453"/>
<rect y="28.132" fill="#010202" width="10.36" height="3.453"/>
<rect x="13.816" y="28.132" fill="#010202" width="10.362" height="3.453"/>
</svg>
